<?xml version="1.0" encoding="UTF-8" standalone="no"?>
<!DOCTYPE svg PUBLIC "-//W3C//DTD SVG 1.1//EN" "http://www.w3.org/Graphics/SVG/1.1/DTD/svg11.dtd">
<svg xmlns="http://www.w3.org/2000/svg" version="1.1" viewBox="0 0 618 618" width="618.0pt" height="618.0pt">
<path d="M 0.00 0.00 L 618.00 0.00 L 618.00 618.00 L 0.00 618.00 L 0.00 0.00 Z" fill="#ffffff" />
<path d="M 232.11 46.13 C 234.55 47.03 237.06 47.02 239.57 47.62 C 240.85 47.93 242.13 48.24 243.40 48.59 C 244.08 48.95 244.75 49.32 245.42 49.68 C 247.59 50.76 249.61 52.07 251.69 53.28 C 253.76 55.22 255.76 57.21 257.65 59.32 C 258.76 61.13 260.13 62.75 261.34 64.49 C 261.66 65.17 261.97 65.85 262.29 66.53 C 263.01 68.03 263.70 69.54 264.34 71.07 C 266.35 69.77 268.34 68.41 270.40 67.18 C 271.77 66.61 273.14 66.05 274.52 65.51 C 278.70 64.71 284.12 64.70 288.30 65.49 C 289.70 66.27 291.12 67.00 292.57 67.68 C 295.61 69.72 298.19 72.68 300.70 75.32 C 301.52 76.75 302.44 78.13 303.30 79.54 C 303.99 80.51 304.67 81.48 305.33 82.47 C 305.93 84.22 306.56 85.94 307.30 87.64 C 307.82 89.28 308.23 90.95 308.74 92.60 C 308.93 93.51 309.13 94.42 309.32 95.33 C 310.21 98.02 309.98 100.58 310.11 103.41 C 310.94 102.96 311.78 102.52 312.61 102.09 C 313.32 102.06 314.02 102.02 314.73 101.99 C 315.00 100.85 315.30 99.72 315.61 98.59 C 315.95 97.87 316.29 97.16 316.62 96.44 C 318.54 93.69 320.89 91.56 323.32 89.29 C 325.03 88.31 326.69 87.23 328.41 86.24 C 329.08 85.90 329.75 85.56 330.41 85.22 C 331.76 84.66 333.12 84.11 334.49 83.61 C 335.79 83.24 337.10 82.93 338.41 82.59 C 341.85 81.53 345.60 82.63 348.80 81.13 C 351.28 80.99 353.72 80.99 356.20 81.13 C 360.41 82.87 365.70 81.57 370.20 82.14 C 374.11 83.79 379.01 82.64 383.20 83.14 C 385.96 84.47 389.47 84.22 392.36 83.43 C 394.04 82.58 395.78 81.88 397.53 81.16 C 398.16 81.05 398.79 80.93 399.43 80.81 C 400.45 80.38 401.47 79.96 402.51 79.55 C 404.11 79.18 405.73 78.94 407.35 78.65 C 410.19 77.86 413.06 78.23 415.79 77.16 C 423.51 76.89 431.51 76.89 439.22 77.17 C 441.65 78.02 444.16 78.03 446.64 78.66 C 448.29 78.95 449.94 79.20 451.57 79.61 C 452.91 79.96 454.26 80.30 455.59 80.71 C 456.21 80.88 456.84 81.05 457.47 81.22 C 458.77 81.74 460.09 82.22 461.39 82.73 C 463.76 83.72 466.16 84.59 468.47 85.69 C 469.14 86.02 469.80 86.35 470.47 86.68 C 471.84 87.54 473.16 88.46 474.53 89.32 C 475.51 90.01 476.50 90.69 477.50 91.36 C 478.55 92.03 479.61 92.70 480.69 93.32 C 483.69 96.22 487.05 99.08 489.41 102.55 C 490.40 103.84 491.41 105.12 492.32 106.47 C 492.80 107.46 493.28 108.45 493.77 109.44 C 494.49 111.15 495.15 112.88 495.85 114.59 C 495.92 115.25 495.98 115.92 496.04 116.58 C 496.83 117.37 497.63 118.16 498.41 118.95 C 499.07 119.02 499.73 119.10 500.39 119.18 C 501.75 119.71 503.12 120.17 504.49 120.65 C 506.18 121.23 507.83 121.92 509.46 122.68 C 510.79 123.36 512.12 124.04 513.46 124.72 C 514.88 125.57 516.25 126.48 517.69 127.30 C 520.45 129.88 523.12 132.56 525.71 135.31 C 526.70 137.04 527.78 138.70 528.76 140.43 C 529.59 141.89 530.49 143.31 531.27 144.80 C 532.30 145.70 533.35 146.57 534.44 147.39 C 535.16 147.68 535.87 147.97 536.58 148.26 C 538.57 149.01 540.54 149.77 542.45 150.70 C 543.82 151.38 545.19 152.03 546.58 152.66 C 549.60 154.76 552.21 157.47 554.40 160.40 C 554.75 161.43 555.10 162.45 555.45 163.48 C 556.45 167.90 555.98 172.72 555.83 177.22 C 554.83 179.85 554.86 182.87 554.62 185.65 C 555.12 186.64 555.72 187.58 556.28 188.53 C 557.67 190.38 558.73 192.40 559.84 194.42 C 560.35 195.77 560.86 197.13 561.33 198.50 C 561.71 199.50 562.08 200.51 562.44 201.51 C 562.97 203.97 563.00 206.41 563.78 208.81 C 563.85 210.61 563.85 212.41 563.80 214.22 C 563.15 216.30 562.87 218.45 562.34 220.56 C 562.04 221.85 561.77 223.14 561.45 224.43 C 560.39 226.28 559.19 228.04 558.12 229.88 L 558.89 231.81 C 559.08 236.19 558.97 240.60 559.02 245.00 C 559.00 247.96 559.21 250.71 558.41 253.59 C 558.07 254.89 557.74 256.20 557.37 257.50 C 557.03 258.51 556.67 259.51 556.31 260.51 C 556.01 261.49 555.69 262.46 555.36 263.44 C 555.01 264.11 554.65 264.78 554.29 265.45 C 553.43 266.87 552.52 268.26 551.70 269.72 C 550.41 271.07 549.08 272.37 547.70 273.63 C 546.23 274.52 544.89 275.58 543.56 276.67 C 542.18 277.53 540.84 278.45 539.47 279.31 C 538.79 279.66 538.11 280.01 537.44 280.36 C 536.46 280.68 535.48 280.99 534.50 281.29 C 533.50 281.70 532.50 282.10 531.49 282.50 C 529.14 283.03 526.80 283.02 524.40 283.05 C 521.67 285.94 519.14 288.76 515.44 290.44 C 514.16 290.78 512.88 291.07 511.59 291.39 C 508.62 292.27 505.29 292.33 502.33 291.33 C 500.72 291.05 499.09 290.82 497.49 290.48 C 496.09 289.89 494.71 289.27 493.34 288.60 C 492.01 288.24 490.66 287.99 489.31 287.73 C 489.03 289.36 488.78 290.98 488.37 292.58 C 488.05 293.89 487.75 295.20 487.39 296.50 C 486.89 297.88 486.35 299.24 485.80 300.59 C 485.43 301.24 485.06 301.89 484.69 302.54 C 484.23 303.54 483.78 304.54 483.34 305.55 C 482.60 306.61 481.81 307.63 481.01 308.65 C 480.99 314.10 481.02 319.55 480.97 325.00 C 481.00 327.38 480.79 329.58 481.85 331.80 C 481.90 337.30 482.56 343.20 481.41 348.61 C 481.17 349.22 480.94 349.83 480.70 350.44 C 480.19 351.84 479.68 353.26 479.30 354.70 C 479.92 355.37 480.56 356.01 481.23 356.64 C 483.14 357.52 484.25 358.70 485.43 360.40 C 485.76 361.43 486.10 362.46 486.44 363.48 C 487.34 366.86 487.00 370.74 486.89 374.22 C 484.78 376.83 487.50 377.50 488.88 379.49 C 489.03 380.10 489.18 380.71 489.33 381.32 C 490.39 385.18 490.35 390.79 489.36 394.66 C 489.05 396.31 488.78 397.95 488.36 399.57 C 488.05 400.89 487.75 402.20 487.40 403.50 C 486.90 404.87 486.36 406.23 485.81 407.58 C 485.28 408.53 484.75 409.47 484.23 410.42 C 483.94 411.10 483.64 411.77 483.34 412.45 C 482.25 414.58 480.95 416.57 479.70 418.62 C 478.57 419.92 477.44 421.23 476.37 422.58 C 475.89 425.23 475.82 427.88 476.51 430.49 C 477.06 431.87 477.62 433.24 478.19 434.61 C 478.73 435.51 479.29 436.40 479.85 437.30 C 479.38 438.28 478.94 439.28 478.51 440.29 C 477.87 439.96 477.23 439.63 476.58 439.30 C 475.61 438.79 474.63 438.26 473.66 437.74 C 473.96 438.67 474.27 439.61 474.59 440.54 C 475.85 442.23 477.22 443.84 478.49 445.52 C 478.75 446.69 479.00 447.86 479.23 449.04 C 477.38 449.01 475.53 448.97 473.68 448.91 C 472.66 448.45 471.63 448.00 470.60 447.56 C 471.00 448.59 471.40 449.61 471.82 450.62 C 471.96 451.84 472.10 453.06 472.25 454.27 C 473.46 457.28 472.99 461.05 472.83 464.24 C 471.99 466.66 471.97 469.17 471.31 471.65 C 471.12 472.57 470.93 473.49 470.75 474.41 C 470.20 476.14 469.78 477.91 469.21 479.63 C 469.12 480.31 469.03 480.99 468.94 481.66 C 468.29 482.23 467.65 482.80 467.00 483.37 C 467.02 486.33 467.03 489.29 466.84 492.24 C 466.14 494.29 465.89 496.40 465.39 498.49 C 465.04 499.50 464.68 500.50 464.31 501.51 C 463.99 502.51 463.66 503.51 463.31 504.51 C 463.02 505.49 462.72 506.47 462.41 507.45 C 461.50 508.81 460.55 510.14 459.65 511.50 C 459.17 512.86 458.72 514.23 458.22 515.58 C 458.10 516.18 457.98 516.78 457.87 517.39 C 456.91 518.69 456.03 520.02 455.22 521.42 C 454.41 522.86 453.52 524.25 452.72 525.68 C 451.02 527.48 449.28 529.22 447.57 531.00 C 446.57 531.00 445.58 531.00 444.58 531.00 C 443.36 532.95 441.88 534.72 440.66 536.68 C 438.76 538.79 436.75 540.78 434.69 542.72 C 433.25 543.52 431.87 544.40 430.43 545.20 C 427.50 546.68 425.18 548.80 423.63 551.70 C 421.88 553.78 420.05 555.61 417.55 556.79 C 416.16 557.58 414.83 558.46 413.47 559.29 C 412.49 559.77 411.52 560.24 410.54 560.71 C 409.85 561.09 409.17 561.48 408.48 561.87 C 407.85 561.97 407.22 562.08 406.59 562.18 C 405.56 562.61 404.52 563.03 403.48 563.44 C 401.05 563.61 398.76 563.79 396.43 564.63 C 395.82 564.87 395.20 565.12 394.58 565.37 C 392.96 565.78 391.31 566.05 389.66 566.36 C 387.32 567.09 384.99 567.01 382.56 567.04 C 381.21 569.91 380.49 569.77 377.61 570.45 C 374.65 571.16 371.05 571.50 368.21 570.17 C 366.48 570.06 364.75 569.99 363.02 569.93 L 362.98 572.04 C 360.02 572.00 357.27 572.21 354.41 571.41 C 353.10 571.07 351.79 570.75 350.49 570.39 C 349.45 570.00 348.42 569.61 347.40 569.19 C 346.81 569.09 346.21 568.98 345.62 568.88 C 343.90 567.61 343.62 566.61 341.37 567.58 C 340.78 567.87 340.19 568.16 339.60 568.45 C 335.86 569.58 331.64 568.22 328.17 569.89 C 326.72 569.92 325.27 569.91 323.81 569.87 C 321.38 568.93 318.93 568.98 316.41 568.44 C 314.62 567.97 312.96 567.41 311.29 566.63 C 309.37 566.13 307.42 565.86 305.48 565.42 C 303.80 564.79 302.15 564.09 300.51 563.36 C 298.73 562.40 297.00 561.37 295.37 560.16 C 293.36 560.01 291.37 559.91 289.41 559.40 C 288.10 559.07 286.79 558.76 285.49 558.39 C 284.13 557.89 282.78 557.35 281.43 556.79 C 280.46 556.29 279.48 555.79 278.50 555.30 C 277.49 554.66 276.51 553.99 275.53 553.31 C 274.12 552.44 272.75 551.52 271.31 550.70 C 270.03 549.49 268.76 548.25 267.52 547.00 C 266.83 547.00 266.14 547.00 265.45 547.00 C 263.08 544.56 260.63 542.20 258.33 539.69 C 257.14 537.74 255.95 535.26 254.00 534.01 C 250.73 531.68 248.29 529.09 246.56 525.44 C 246.23 524.16 245.94 522.86 245.64 521.57 C 245.20 519.87 244.93 518.14 244.60 516.41 C 243.94 517.50 243.30 518.59 242.69 519.70 C 239.03 523.29 235.65 527.56 231.36 530.39 C 230.10 531.47 228.87 532.59 227.63 533.69 C 226.22 534.53 224.86 535.45 223.47 536.31 C 222.49 537.00 221.50 537.68 220.50 538.34 C 219.82 538.66 219.15 538.98 218.47 539.30 C 216.84 540.08 215.20 540.81 213.51 541.47 C 211.91 541.81 210.28 542.06 208.66 542.34 C 205.14 543.38 200.97 543.29 197.41 542.41 C 196.11 542.07 194.80 541.74 193.50 541.37 C 192.49 541.03 191.49 540.67 190.50 540.31 C 189.52 540.01 188.55 539.71 187.59 539.40 C 186.16 538.48 184.77 537.53 183.30 536.67 C 182.36 535.79 181.43 534.90 180.51 534.00 C 179.55 534.00 178.58 534.01 177.61 534.01 C 176.31 535.19 174.99 536.34 173.52 537.31 C 171.76 538.19 170.12 539.26 168.45 540.30 C 166.73 540.93 165.03 541.58 163.36 542.34 C 162.10 542.72 160.83 543.04 159.56 543.37 C 157.44 543.88 155.30 544.15 153.22 544.83 C 150.74 544.97 148.28 544.97 145.80 544.82 C 143.41 543.98 140.98 543.98 138.52 543.44 C 137.51 543.08 136.50 542.70 135.50 542.32 C 134.53 541.99 133.57 541.64 132.61 541.27 C 131.26 540.70 129.89 540.15 128.50 539.68 C 127.50 539.02 126.49 538.37 125.45 537.77 C 123.28 536.58 121.41 534.98 119.32 533.67 C 117.22 531.77 115.23 529.78 113.34 527.68 C 111.75 525.26 109.91 523.09 108.65 520.45 C 108.33 519.79 108.01 519.13 107.69 518.46 C 106.92 516.85 106.21 515.21 105.59 513.53 C 105.24 512.22 104.93 510.91 104.61 509.59 C 103.62 506.20 103.99 502.26 104.15 498.76 C 104.65 497.33 104.99 495.86 105.32 494.38 C 104.04 494.06 102.76 493.72 101.49 493.36 C 100.52 493.05 99.54 492.72 98.58 492.38 C 97.15 491.47 95.76 490.53 94.29 489.68 C 93.28 488.71 92.29 487.72 91.31 486.71 C 90.48 485.25 89.53 483.85 88.63 482.43 C 88.28 481.46 87.92 480.48 87.58 479.50 C 87.20 477.90 86.94 476.28 86.65 474.66 C 85.67 471.43 85.67 467.57 86.65 464.34 C 86.95 462.72 87.19 461.10 87.58 459.51 C 87.93 458.50 88.28 457.49 88.65 456.49 C 89.14 455.10 89.70 453.73 90.28 452.38 C 90.63 451.47 90.96 450.56 91.28 449.64 C 89.61 448.70 87.99 447.66 86.31 446.73 C 84.25 444.81 82.24 442.92 80.65 440.57 C 80.19 439.56 79.72 438.56 79.24 437.56 C 78.65 436.22 78.08 434.86 77.55 433.49 C 77.19 431.89 76.94 430.28 76.66 428.66 C 75.63 425.58 75.98 421.97 76.17 418.76 C 77.02 416.36 77.03 413.89 77.63 411.42 C 77.93 410.14 78.23 408.85 78.57 407.58 C 78.98 406.91 79.39 406.25 79.80 405.59 C 80.06 404.86 80.33 404.14 80.60 403.41 C 83.34 399.75 86.91 396.66 90.14 393.43 C 88.25 391.71 86.54 389.92 84.32 388.62 C 82.56 387.07 80.90 385.42 79.30 383.70 C 78.31 381.97 77.21 380.30 76.16 378.60 C 75.64 377.24 75.11 375.88 74.62 374.50 C 74.25 373.20 73.93 371.89 73.59 370.59 C 72.80 367.72 73.00 364.96 72.96 362.00 C 73.02 359.01 72.73 356.15 73.68 353.33 C 73.87 352.42 74.07 351.51 74.26 350.60 C 74.77 348.95 75.18 347.28 75.69 345.63 C 76.43 343.97 77.07 342.27 77.71 340.57 C 78.04 339.89 78.36 339.22 78.69 338.55 C 79.53 337.17 80.42 335.83 81.22 334.44 C 82.43 332.28 84.02 330.40 85.34 328.32 C 89.19 324.22 93.18 320.18 97.32 316.37 C 98.78 315.48 100.11 314.41 101.43 313.32 C 104.06 311.55 106.70 310.05 109.57 308.70 C 110.53 308.24 111.48 307.78 112.44 307.31 C 114.07 306.50 115.69 305.66 117.23 304.66 C 114.30 302.57 111.63 300.45 109.30 297.69 C 108.47 296.24 107.53 294.85 106.65 293.43 C 106.27 292.46 105.89 291.48 105.52 290.51 C 104.72 286.14 104.63 280.75 105.59 276.41 C 105.92 275.15 106.24 273.89 106.61 272.63 C 107.32 271.28 108.01 269.92 108.70 268.55 C 109.77 266.40 111.07 264.39 112.29 262.33 C 113.99 260.52 115.73 258.75 117.39 256.90 C 115.68 255.18 113.96 253.46 112.30 251.69 C 111.48 250.25 110.56 248.87 109.69 247.45 C 109.36 246.79 109.03 246.13 108.69 245.47 C 107.91 243.84 107.19 242.19 106.52 240.50 C 106.02 237.97 106.05 235.60 105.14 233.18 C 105.13 232.06 105.13 230.94 105.14 229.82 C 106.04 227.42 106.02 224.99 106.56 222.52 C 106.92 221.51 107.30 220.50 107.67 219.50 C 108.14 218.13 108.65 216.77 109.16 215.42 C 110.46 213.01 111.85 210.69 113.30 208.37 C 114.07 207.46 114.85 206.54 115.61 205.62 C 117.11 203.14 119.17 201.24 121.32 199.34 C 123.15 198.24 124.75 196.86 126.48 195.63 C 127.51 195.22 128.55 194.81 129.58 194.42 C 130.52 193.68 131.45 192.97 132.28 192.10 C 130.80 190.19 129.05 188.53 127.60 186.60 C 127.25 185.57 126.90 184.55 126.55 183.52 C 125.66 179.26 125.71 173.78 126.52 169.50 C 126.90 168.50 127.27 167.50 127.66 166.49 C 128.23 164.80 128.91 163.15 129.63 161.51 C 130.52 160.17 131.46 158.85 132.35 157.50 C 133.03 156.45 133.70 155.39 134.32 154.30 C 138.21 150.23 142.19 146.19 146.32 142.35 C 148.12 141.23 149.74 139.88 151.51 138.73 C 153.24 137.81 154.87 136.74 156.54 135.73 C 157.51 135.23 158.47 134.73 159.43 134.22 C 161.50 133.37 163.60 132.59 165.64 131.67 C 166.89 131.27 168.16 130.93 169.42 130.56 C 171.69 130.05 173.95 129.96 176.25 129.75 C 177.50 129.41 178.74 129.16 180.02 128.96 C 181.73 129.89 183.52 130.01 185.40 130.25 C 185.03 129.36 184.65 128.48 184.26 127.60 C 183.53 125.91 182.89 124.19 182.22 122.48 C 182.03 121.85 181.85 121.22 181.66 120.60 C 181.22 118.97 180.95 117.31 180.63 115.66 C 179.86 112.80 180.25 109.91 179.14 107.21 C 178.98 104.72 178.98 102.28 179.14 99.79 C 180.25 97.09 179.85 94.20 180.65 91.35 C 180.94 89.73 181.19 88.11 181.55 86.51 C 181.96 85.48 182.37 84.45 182.81 83.43 C 182.93 82.80 183.05 82.17 183.18 81.54 C 183.98 79.51 184.75 77.49 185.70 75.52 C 186.02 74.85 186.34 74.17 186.66 73.50 C 187.32 72.50 188.00 71.51 188.70 70.54 C 189.56 69.13 190.48 67.75 191.30 66.31 C 194.21 63.23 197.21 60.22 200.31 57.32 C 201.39 56.70 202.44 56.02 203.49 55.34 C 204.84 54.46 206.17 53.54 207.53 52.68 C 208.19 52.34 208.86 52.01 209.53 51.69 C 211.15 50.93 212.78 50.21 214.47 49.61 C 215.48 49.31 216.49 49.01 217.50 48.72 C 218.50 48.31 219.51 47.91 220.52 47.52 C 224.35 46.99 228.26 46.41 232.11 46.13 Z" fill="#000000" />
<path d="M 236.06 51.84 C 244.06 53.12 250.92 57.89 255.41 64.56 C 258.45 68.76 260.10 73.46 261.97 78.22 C 262.20 79.71 264.35 80.30 265.39 79.53 C 267.10 76.94 267.74 74.30 270.56 72.59 C 274.42 70.27 279.54 69.14 284.00 69.35 C 290.22 69.95 295.28 75.57 298.61 80.41 C 303.74 87.63 305.77 96.14 305.96 104.90 C 297.65 108.92 289.37 114.76 284.98 123.11 C 281.43 129.76 281.55 138.09 285.43 144.57 C 291.49 154.67 303.55 160.34 308.94 171.00 C 310.32 173.84 311.79 178.12 310.09 181.07 C 308.25 184.81 306.14 188.43 304.01 192.01 C 296.64 204.36 287.03 213.64 280.82 226.81 C 277.76 233.65 274.02 240.46 273.42 247.96 C 273.13 250.22 274.56 252.55 274.60 254.75 C 272.99 258.04 270.90 261.03 269.66 264.52 C 263.94 280.03 264.08 295.71 264.47 311.97 C 264.45 318.86 265.08 325.49 266.61 332.21 C 262.29 335.25 257.79 335.90 252.66 336.53 C 253.14 339.69 255.29 340.60 257.19 342.79 C 258.38 344.98 257.78 348.17 257.12 350.46 C 255.55 355.35 252.43 360.28 248.01 363.04 C 245.34 364.78 242.26 364.99 239.20 365.60 C 238.25 376.47 245.25 383.97 253.27 390.10 C 248.05 390.98 243.05 391.31 238.18 388.85 C 233.61 386.83 230.66 383.28 227.80 379.35 C 226.87 380.24 225.95 381.13 225.02 382.02 C 229.88 388.91 233.75 395.90 236.33 403.96 C 232.18 406.16 228.16 408.58 224.33 411.29 C 216.40 416.71 208.65 422.04 201.63 428.64 C 198.24 432.22 193.15 432.45 189.51 435.90 C 191.57 429.25 191.13 422.07 186.11 416.88 C 182.82 413.61 176.43 412.12 173.02 416.02 C 168.98 420.67 170.16 426.52 168.62 431.89 C 167.89 433.64 166.93 433.59 165.69 432.20 C 165.56 425.59 170.92 418.34 169.04 412.07 C 167.35 407.95 164.08 408.37 160.29 408.61 C 157.01 411.68 153.73 414.30 151.38 418.22 C 147.20 425.13 145.24 434.10 147.45 441.98 C 149.24 448.79 154.80 455.03 161.97 456.17 C 168.71 457.15 175.49 454.82 180.72 450.56 C 178.35 456.08 176.83 462.00 175.00 467.84 C 171.97 478.06 168.89 488.32 168.02 498.99 C 166.99 509.79 169.05 520.71 175.63 529.53 C 166.01 537.07 152.94 541.42 140.73 539.41 C 123.05 535.96 108.02 519.20 107.63 501.01 C 107.32 497.32 108.71 494.27 109.59 490.81 C 106.39 489.28 102.97 488.96 99.87 487.16 C 95.48 484.65 92.67 479.94 91.77 475.04 C 90.41 466.74 92.08 457.97 97.23 451.22 C 98.70 449.40 98.82 448.28 98.72 445.99 C 94.92 445.03 91.43 444.32 88.44 441.59 C 84.19 437.82 82.38 432.54 81.69 427.03 C 81.03 420.09 81.82 412.41 85.22 406.22 C 87.72 401.81 91.45 399.38 95.09 396.11 C 96.10 395.34 96.58 394.33 96.55 393.06 C 92.69 387.83 86.70 384.54 82.79 379.20 C 78.70 373.98 77.37 367.52 77.72 361.00 C 78.28 352.61 81.05 344.59 85.40 337.42 C 92.92 324.99 104.27 315.80 116.89 308.89 C 119.47 307.48 122.34 306.42 124.75 304.73 L 124.65 303.35 C 121.77 300.81 118.10 299.46 115.34 296.66 C 110.89 292.45 108.86 286.00 110.05 279.99 C 111.07 274.13 113.66 268.14 117.89 263.89 C 119.80 261.90 122.21 260.96 124.37 259.35 C 125.34 258.52 125.05 256.75 124.04 256.00 C 120.37 252.46 116.58 249.51 114.08 244.92 C 109.37 236.73 109.58 226.90 113.41 218.41 C 116.90 210.71 122.77 203.36 130.27 199.27 C 133.88 197.20 137.60 197.28 141.49 196.35 C 141.79 195.34 142.28 193.74 141.22 193.01 C 138.78 190.89 136.15 189.50 134.15 186.86 C 130.66 182.36 130.04 176.57 131.49 171.16 C 133.88 162.14 140.16 154.18 147.08 148.11 C 156.25 140.17 167.66 134.21 179.98 133.80 C 183.97 133.60 187.71 135.06 191.60 134.51 C 191.15 133.30 190.56 132.14 189.83 131.02 C 186.05 125.24 184.46 117.77 183.69 111.00 C 182.31 95.71 186.99 79.67 196.75 67.76 C 205.89 56.21 221.44 49.77 236.06 51.84 Z" fill="#fce8b9" />
<path d="M 228.57 77.91 C 233.94 76.88 239.87 77.02 245.01 79.02 C 252.79 81.92 259.21 88.16 261.97 96.03 C 264.67 103.50 264.13 112.09 259.83 118.86 C 256.91 123.48 252.50 126.59 247.52 128.66 C 241.19 131.28 234.09 133.32 227.19 133.17 C 222.38 133.02 218.43 131.06 214.56 128.37 C 212.64 119.67 211.52 110.85 210.59 102.00 C 210.16 96.28 211.00 90.21 214.57 85.54 C 217.91 81.22 223.39 79.05 228.57 77.91 Z" fill="#000000" />
<path d="M 257.65 93.36 C 263.48 103.82 258.60 117.73 248.13 123.07 C 240.64 126.87 231.35 129.55 222.94 128.16 C 220.96 127.63 217.16 126.56 217.00 124.06 C 216.17 118.08 215.94 111.99 215.34 105.98 C 214.88 100.82 214.02 95.84 215.80 90.80 C 217.38 86.28 221.84 82.96 226.18 81.30 C 237.34 77.08 251.98 82.98 257.65 93.36 Z" fill="#f1a3a3" />
<path d="M 418.99 81.53 C 434.75 80.55 451.21 82.35 465.48 89.49 C 476.54 94.90 485.81 103.50 490.90 114.82 C 488.65 113.75 487.58 111.88 485.01 113.66 C 487.94 116.88 491.34 119.61 495.24 121.56 C 500.46 124.27 505.77 125.39 510.71 128.53 C 513.35 134.18 516.19 139.23 517.17 145.50 C 518.22 152.89 517.95 160.61 514.17 167.22 C 511.48 172.07 505.64 175.39 503.65 180.47 C 502.03 184.94 506.14 189.92 505.13 193.97 C 503.94 197.42 501.30 196.55 498.36 197.00 C 495.70 193.69 490.75 195.05 486.99 194.61 C 477.77 194.62 471.05 189.26 464.22 183.78 C 459.56 179.99 457.29 174.91 453.32 170.55 C 453.31 169.54 453.31 168.53 453.30 167.52 C 448.81 166.47 444.29 166.59 439.76 166.00 C 427.10 164.56 413.22 162.12 401.98 155.84 C 403.19 155.58 404.40 155.33 405.61 155.08 C 405.62 153.52 405.99 152.19 405.06 150.80 C 401.92 150.38 398.65 150.66 395.49 150.80 C 386.41 151.52 377.10 152.09 368.00 151.37 C 357.89 150.30 347.10 148.89 337.49 145.44 C 334.51 144.41 331.55 142.74 328.45 142.19 C 327.51 144.73 330.41 145.32 331.92 146.72 C 328.78 149.60 326.39 152.69 324.30 156.40 C 320.90 162.49 316.87 168.14 313.75 174.39 C 312.64 171.19 311.57 168.06 309.70 165.21 C 305.40 158.47 299.00 153.39 293.57 147.43 C 290.69 144.29 288.20 141.03 287.27 136.77 C 285.83 131.27 288.68 125.30 292.14 121.13 C 297.51 114.68 305.35 109.99 313.01 106.76 C 312.46 109.49 311.78 112.18 311.43 114.95 L 313.59 113.50 C 315.85 108.63 316.63 103.38 319.67 98.75 C 324.18 91.44 332.85 87.89 341.01 86.62 C 354.68 84.31 366.64 87.62 380.20 87.94 C 378.37 89.17 374.02 89.84 373.80 92.39 C 380.54 91.79 387.48 90.80 393.51 87.64 C 401.41 83.97 410.34 82.21 418.99 81.53 Z" fill="#ffffff" />
<path d="M 237.46 97.76 C 241.48 99.94 242.68 105.98 239.19 109.20 C 237.16 111.23 234.39 110.68 231.75 110.80 C 231.24 106.95 230.19 102.70 230.76 98.84 C 232.56 97.06 235.18 96.92 237.46 97.76 Z" fill="#000000" />
<path d="M 233.38 100.23 C 236.51 100.49 238.50 101.67 238.47 105.03 C 238.73 107.35 235.43 108.05 233.88 108.90 C 233.60 106.00 233.26 103.16 233.38 100.23 Z" fill="#feecbc" />
<path d="M 510.71 128.53 C 514.51 130.85 518.06 133.67 521.11 136.92 C 524.41 140.49 526.38 144.90 529.96 148.04 C 535.32 152.81 542.31 153.35 547.77 158.26 C 551.16 161.22 552.74 165.52 552.61 169.98 C 552.40 176.99 549.84 183.53 550.07 190.62 C 551.35 190.66 552.62 190.70 553.90 190.73 C 557.37 199.95 560.60 208.86 557.67 218.80 C 556.39 224.07 552.47 227.87 551.23 233.07 C 552.29 233.30 553.36 233.53 554.43 233.76 C 554.34 245.01 555.23 255.84 548.72 265.71 C 543.30 273.48 532.96 277.99 523.93 279.78 C 520.30 280.67 517.15 279.56 513.70 278.55 C 513.51 279.35 513.33 280.16 513.14 280.96 C 514.76 281.87 516.39 282.77 518.01 283.68 C 514.88 285.56 511.72 287.10 508.00 287.36 C 501.89 287.93 496.26 285.80 490.24 284.44 C 491.14 281.71 491.99 279.03 493.61 276.62 C 501.56 264.36 508.43 250.97 512.17 236.79 C 514.89 239.33 517.70 241.62 520.87 243.57 C 521.73 243.11 522.59 242.66 523.44 242.20 C 523.46 241.40 523.48 240.60 523.50 239.80 C 520.72 237.73 518.06 235.82 515.90 233.06 C 512.43 228.71 510.46 222.75 508.60 217.54 C 506.70 212.27 505.60 206.82 504.72 201.30 C 503.98 201.23 503.24 201.16 502.50 201.09 C 502.14 201.99 501.77 202.89 501.41 203.78 C 499.46 202.72 497.51 201.66 495.58 200.58 C 496.52 199.40 497.46 198.22 498.36 197.00 C 501.30 196.55 503.94 197.42 505.13 193.97 C 506.14 189.92 502.03 184.94 503.65 180.47 C 505.64 175.39 511.48 172.07 514.17 167.22 C 517.95 160.61 518.22 152.89 517.17 145.50 C 516.19 139.23 513.35 134.18 510.71 128.53 Z" fill="#c5a8bd" />
<path d="M 241.97 136.13 C 248.03 134.99 255.69 135.50 261.53 137.50 C 266.36 139.12 270.55 143.66 269.81 149.04 C 269.75 152.95 267.07 156.35 263.01 156.43 C 258.39 156.17 254.39 151.29 249.80 151.04 C 247.95 151.05 246.82 151.79 247.20 153.78 C 249.73 154.76 252.58 154.90 255.06 155.97 C 259.26 158.68 257.91 166.11 253.09 167.43 C 250.20 167.79 247.13 167.12 244.26 166.83 L 245.01 169.37 C 248.61 170.05 253.12 168.90 256.32 170.74 C 258.25 171.88 260.03 173.54 259.79 175.99 C 259.36 178.74 258.00 181.38 256.90 183.91 C 255.65 186.67 252.94 188.31 249.99 188.63 C 243.58 189.45 237.04 187.06 231.21 184.63 C 227.37 182.94 223.03 180.97 220.75 177.26 C 218.06 172.94 218.18 167.96 219.40 163.17 C 220.71 158.29 222.56 153.45 225.08 149.05 C 228.82 142.70 234.52 137.48 241.97 136.13 Z" fill="#000000" />
<path d="M 253.99 139.98 C 257.64 140.41 262.40 141.23 265.08 143.97 C 266.61 146.19 267.00 150.31 265.70 152.71 C 265.03 154.24 263.55 153.93 262.22 153.62 C 258.11 152.31 254.26 148.71 249.99 148.20 C 246.73 147.80 243.29 151.25 244.56 154.51 C 245.99 157.50 251.10 156.63 253.46 158.46 C 255.30 160.25 254.37 163.46 252.09 164.41 C 249.00 164.53 245.93 163.47 242.80 163.59 C 238.20 165.91 240.63 172.07 244.99 172.63 C 248.68 173.23 254.20 171.63 256.41 175.50 C 257.54 180.29 253.04 185.59 248.03 185.32 C 241.41 185.15 234.71 182.10 228.87 179.15 C 224.32 176.74 221.70 172.22 222.99 167.02 C 224.84 159.56 227.87 150.98 233.57 145.58 C 239.03 140.36 246.76 139.37 253.99 139.98 Z" fill="#f1a3a3" />
<path d="M 335.74 148.40 C 345.49 152.21 355.64 154.37 365.99 155.74 C 375.45 157.17 385.66 156.30 395.07 156.19 C 398.00 156.02 400.80 158.25 403.22 159.70 C 406.53 161.93 410.05 163.67 413.88 164.80 C 423.34 167.61 433.26 170.08 443.14 170.56 C 442.49 178.06 442.35 185.10 446.09 191.89 C 449.11 197.83 454.07 201.62 459.62 205.03 C 449.60 221.17 439.75 237.09 431.46 254.25 C 428.44 260.43 425.96 266.80 423.18 273.09 C 422.10 273.59 421.03 274.10 419.95 274.61 C 415.21 271.07 410.26 267.80 405.12 264.87 C 396.26 259.89 386.34 256.28 377.01 251.95 C 364.35 246.10 350.69 241.05 336.87 238.92 C 320.78 237.37 303.44 240.63 287.77 244.19 C 283.18 245.38 278.75 244.80 276.45 249.83 L 280.28 249.19 C 279.10 250.12 277.94 251.07 276.80 252.04 C 276.47 250.27 276.13 248.50 275.74 246.74 C 277.19 242.69 279.30 239.00 281.24 235.18 C 284.46 228.53 287.75 222.07 292.00 216.00 C 296.88 209.00 302.48 202.30 307.09 195.04 C 312.85 186.06 317.09 175.80 322.97 166.99 C 325.27 163.56 327.56 160.15 329.52 156.51 C 331.16 153.46 333.05 150.63 335.74 148.40 Z" fill="#ffffff" />
<path d="M 367.81 156.17 C 366.95 159.68 364.48 161.57 362.29 164.20 C 353.61 174.27 346.69 185.38 339.44 196.44 C 331.07 208.77 326.03 222.42 319.32 235.58 C 318.66 235.49 318.00 235.40 317.33 235.31 C 318.91 231.83 320.51 228.37 321.84 224.78 C 326.26 212.68 332.25 201.10 339.75 190.62 C 347.20 179.89 354.02 167.74 363.41 158.40 C 364.70 157.00 365.96 156.63 367.81 156.17 Z" fill="#000000" />
<path d="M 400.02 165.19 L 401.96 166.96 C 400.67 169.69 398.50 172.14 396.72 174.62 C 389.52 184.51 383.53 195.14 378.11 206.10 C 372.70 216.69 367.24 227.38 362.42 238.25 C 361.52 240.02 361.09 241.76 359.23 242.75 C 359.30 241.14 359.59 239.71 360.22 238.23 C 364.13 228.91 368.19 219.67 372.54 210.55 C 378.42 198.29 384.23 185.21 392.21 174.18 C 394.55 171.06 396.99 167.65 400.02 165.19 Z" fill="#000000" />
<path d="M 436.78 170.94 C 436.75 174.51 434.83 177.08 433.37 180.24 C 420.89 205.64 408.05 229.48 397.40 255.54 C 396.72 257.46 395.84 257.52 394.04 258.13 C 394.20 255.56 394.88 253.18 395.80 250.79 C 401.71 235.09 410.26 219.67 417.50 204.48 C 422.26 195.04 427.10 185.60 432.50 176.50 C 433.68 174.46 435.02 172.54 436.78 170.94 Z" fill="#000000" />
<path d="M 443.14 170.56 C 445.35 170.68 447.69 170.60 449.83 171.14 C 453.54 175.98 454.69 182.05 459.49 186.50 C 463.73 190.32 468.50 193.83 473.58 196.42 C 479.42 199.37 485.63 200.17 492.08 200.34 C 493.27 202.20 494.51 204.34 496.15 205.84 C 497.95 207.47 500.32 208.13 502.54 208.97 C 504.19 216.92 506.06 224.67 509.44 232.10 C 505.31 245.75 500.12 258.99 493.27 271.51 C 493.41 267.44 493.62 263.38 493.54 259.30 C 492.01 259.68 490.00 258.68 489.87 260.87 C 489.05 266.56 488.73 272.30 487.58 277.95 C 485.73 286.49 483.95 295.21 480.86 303.40 C 479.54 296.05 478.53 287.56 473.03 281.97 C 469.24 278.20 463.80 277.75 458.97 279.65 C 451.19 282.33 445.84 288.25 442.21 295.45 C 435.24 287.91 428.27 280.69 419.95 274.61 C 421.03 274.10 422.10 273.59 423.18 273.09 C 423.69 274.14 424.22 275.18 424.78 276.20 C 431.64 263.43 437.54 250.16 444.39 237.38 C 450.82 225.51 457.29 213.66 463.90 201.89 C 464.91 200.08 465.84 198.23 466.70 196.35 C 466.06 196.55 465.42 196.77 464.78 196.99 C 462.85 199.49 461.28 202.34 459.62 205.03 C 454.07 201.62 449.11 197.83 446.09 191.89 C 442.35 185.10 442.49 178.06 443.14 170.56 Z" fill="#c5a8bd" />
<path d="M 198.06 172.54 C 201.38 173.35 203.84 175.98 204.97 179.14 C 206.54 183.75 206.19 189.17 207.56 193.79 C 208.02 195.11 208.58 196.50 210.12 196.78 C 212.63 196.26 214.86 194.27 217.15 193.15 C 220.86 191.09 225.34 190.46 229.02 192.95 C 233.29 195.81 234.40 201.32 233.26 206.08 C 231.39 213.53 225.74 218.85 218.90 221.94 C 212.96 224.61 205.30 226.62 199.00 224.02 C 193.96 222.18 190.76 217.25 188.17 212.82 C 184.06 205.41 181.29 196.49 181.91 187.96 C 182.38 184.18 183.35 179.04 186.58 176.62 C 189.72 174.09 193.92 171.90 198.06 172.54 Z" fill="#000000" />
<path d="M 199.32 176.66 C 202.77 178.70 202.71 183.49 203.18 186.98 C 203.58 191.04 203.58 197.25 207.08 200.05 C 209.12 201.20 211.53 200.25 213.55 199.50 C 217.43 197.96 221.80 194.59 226.06 194.75 C 230.13 196.21 231.21 202.22 229.95 205.85 C 228.15 211.29 222.30 214.97 217.47 217.48 C 211.89 220.31 204.92 222.21 199.11 218.96 C 194.95 216.33 191.93 211.56 189.77 207.24 C 186.22 200.03 183.90 190.77 186.00 182.86 C 188.11 178.44 194.46 174.56 199.32 176.66 Z" fill="#f1a3a3" />
<path d="M 464.78 196.99 C 465.42 196.77 466.06 196.55 466.70 196.35 C 465.84 198.23 464.91 200.08 463.90 201.89 C 457.29 213.66 450.82 225.51 444.39 237.38 C 437.54 250.16 431.64 263.43 424.78 276.20 C 424.22 275.18 423.69 274.14 423.18 273.09 C 425.96 266.80 428.44 260.43 431.46 254.25 C 439.75 237.09 449.60 221.17 459.62 205.03 C 461.28 202.34 462.85 199.49 464.78 196.99 Z" fill="#000000" />
<path d="M 495.41 213.56 C 494.40 216.34 492.95 218.88 491.38 221.37 C 480.63 238.76 472.22 257.21 466.38 276.82 C 465.35 276.65 464.32 276.48 463.29 276.30 C 467.74 255.05 478.72 234.74 491.07 217.05 C 492.31 215.18 493.33 214.44 495.41 213.56 Z" fill="#000000" />
<path d="M 225.12 225.68 C 228.97 226.79 232.86 228.41 235.16 231.89 C 237.05 234.79 236.92 238.43 235.44 241.47 C 233.54 245.15 229.66 248.02 228.05 251.89 C 225.92 257.39 227.38 263.71 225.12 269.15 C 223.41 273.16 218.95 275.80 214.81 276.56 C 210.16 277.52 205.52 273.66 205.22 269.01 C 204.72 263.75 206.75 257.95 208.00 252.85 C 210.05 245.53 211.51 236.45 216.48 230.49 C 218.70 227.67 221.71 226.43 225.12 225.68 Z" fill="#000000" />
<path d="M 224.09 229.08 C 229.01 229.37 234.13 233.59 232.73 239.01 C 231.41 244.26 225.31 247.64 223.89 253.13 C 222.91 257.26 223.14 261.65 222.30 265.81 C 221.60 269.90 217.14 273.09 213.07 272.71 C 210.22 272.48 208.48 269.73 208.63 267.03 C 208.93 262.38 211.19 257.78 212.11 253.17 C 213.49 246.56 214.23 239.79 217.91 233.93 C 219.27 231.83 221.50 229.48 224.09 229.08 Z" fill="#f1a3a3" />
<path d="M 318.00 243.50 C 327.66 243.11 336.69 242.44 346.12 245.00 C 331.21 248.97 316.03 251.48 301.00 254.90 C 292.78 256.59 284.83 258.91 276.56 260.16 C 278.63 256.22 280.22 251.65 282.95 248.15 C 294.68 246.57 306.14 244.00 318.00 243.50 Z" fill="#b9917d" />
<path d="M 346.12 245.00 C 356.78 247.94 367.13 252.17 377.11 256.88 C 383.05 259.67 389.14 262.07 395.01 264.98 C 397.89 270.89 401.28 275.72 403.31 281.80 C 405.31 287.92 406.29 294.15 404.66 300.50 C 402.90 307.62 400.04 313.99 401.62 321.55 C 403.03 327.41 408.90 331.86 412.69 336.31 C 417.63 341.65 420.44 348.70 420.32 356.00 C 420.20 359.82 419.71 363.64 419.32 367.44 C 418.30 370.37 417.48 373.32 416.80 376.35 C 411.42 377.54 406.43 379.78 401.05 380.96 C 397.07 382.60 393.23 384.61 389.25 386.30 C 384.54 389.33 381.16 395.08 378.37 399.82 C 372.01 397.77 365.29 397.08 358.80 395.48 C 353.43 392.51 345.89 392.40 340.06 394.10 C 336.58 393.22 333.86 394.39 330.51 394.94 C 330.49 394.38 330.49 393.82 330.53 393.26 C 334.25 390.69 339.23 389.93 343.53 388.71 C 344.66 388.53 345.78 388.30 346.88 388.03 C 351.83 386.57 354.70 384.47 356.43 379.49 C 361.69 384.26 366.78 390.70 374.46 391.00 C 374.54 390.16 374.62 389.32 374.69 388.49 C 366.16 384.84 360.04 377.85 351.83 373.84 C 350.82 372.42 349.90 370.67 348.51 369.60 C 346.17 368.55 344.76 369.83 342.74 370.82 C 344.55 371.87 346.51 372.77 348.18 374.03 C 349.45 378.75 347.53 382.90 344.84 386.67 C 344.45 385.93 344.03 385.20 343.60 384.49 C 342.17 382.24 341.06 380.33 338.02 380.66 C 333.38 381.43 327.35 382.60 325.79 387.82 L 328.71 386.73 C 327.54 387.91 326.52 389.19 325.47 390.47 C 320.19 390.60 314.41 390.72 310.57 386.45 C 306.74 382.10 307.38 376.47 308.48 371.22 C 309.52 374.46 310.08 379.42 312.98 381.55 C 315.85 380.57 316.90 376.85 317.58 374.22 C 317.89 371.72 318.84 368.51 315.82 367.37 C 313.68 367.20 311.44 367.52 309.30 367.71 C 312.41 357.68 315.78 345.96 313.42 335.47 C 311.98 329.38 308.75 323.20 303.96 319.09 C 301.04 316.63 297.63 316.41 294.01 317.03 C 288.36 318.03 282.37 318.76 277.04 320.94 C 273.93 322.15 271.75 324.39 269.65 326.89 C 266.31 305.27 266.85 280.19 276.56 260.16 C 284.83 258.91 292.78 256.59 301.00 254.90 C 316.03 251.48 331.21 248.97 346.12 245.00 Z" fill="#e8c0a8" />
<path d="M 183.94 261.03 C 187.14 260.17 190.90 261.99 193.85 263.18 C 198.69 264.98 200.92 271.26 200.72 276.03 C 200.78 279.89 198.02 282.92 194.79 284.63 C 191.80 286.28 187.92 287.10 185.32 289.33 C 183.28 290.83 184.52 293.55 184.64 295.63 C 191.42 295.99 194.56 289.57 201.02 290.21 C 204.95 290.21 208.05 293.06 208.40 296.97 C 208.61 302.16 205.70 307.50 202.08 311.07 C 195.98 317.33 186.54 319.86 178.03 318.42 C 172.50 317.39 167.81 313.96 164.68 309.34 C 160.57 303.24 159.74 296.19 160.37 288.99 C 161.10 281.10 164.07 272.58 170.56 267.61 C 174.49 264.66 179.09 262.02 183.94 261.03 Z" fill="#000000" />
<path d="M 184.78 264.59 C 187.91 265.66 191.96 266.29 194.48 268.49 C 197.81 271.33 198.37 277.09 195.13 280.18 C 191.65 283.12 185.25 283.30 182.12 287.11 C 179.66 289.86 179.51 294.21 182.03 296.97 C 183.76 299.11 186.35 299.04 188.86 298.68 C 192.70 297.65 195.92 293.01 199.99 292.68 C 202.59 292.54 205.53 293.99 205.36 296.97 C 204.96 301.29 201.35 305.43 198.32 308.32 C 191.41 314.57 179.27 316.76 171.85 310.17 C 164.14 303.46 163.37 291.35 166.44 282.18 C 168.96 273.44 176.25 267.17 184.78 264.59 Z" fill="#f1a3a3" />
<path d="M 395.01 264.98 C 400.26 267.41 405.24 270.18 410.06 273.38 C 411.16 278.64 412.96 283.65 414.38 288.81 C 415.14 291.48 415.97 293.99 417.96 296.02 C 420.39 298.90 424.46 301.82 424.27 305.97 C 424.12 312.05 423.79 317.98 424.45 324.06 C 424.37 327.10 424.12 330.12 423.76 333.14 C 424.48 333.72 425.21 334.31 425.94 334.89 C 425.41 337.05 424.89 339.20 424.36 341.35 C 424.92 341.97 425.49 342.58 426.05 343.20 C 425.13 348.90 422.78 354.16 422.05 359.90 C 421.62 362.62 420.42 364.95 419.32 367.44 C 419.71 363.64 420.20 359.82 420.32 356.00 C 420.44 348.70 417.63 341.65 412.69 336.31 C 408.90 331.86 403.03 327.41 401.62 321.55 C 400.04 313.99 402.90 307.62 404.66 300.50 C 406.29 294.15 405.31 287.92 403.31 281.80 C 401.28 275.72 397.89 270.89 395.01 264.98 Z" fill="#b47e7c" />
<path d="M 282.08 268.05 C 285.49 275.68 283.44 282.39 283.26 290.31 C 283.01 295.61 283.97 300.75 284.23 306.01 C 284.31 309.40 283.77 312.79 280.79 314.86 C 278.14 315.50 275.61 313.83 274.68 311.35 C 269.90 298.84 272.44 285.30 277.38 273.26 C 278.33 270.93 280.15 269.54 282.08 268.05 Z" fill="#efcfbb" />
<path d="M 410.06 273.38 C 420.90 280.48 429.56 289.27 438.48 298.55 C 438.46 300.32 438.44 302.09 438.58 303.86 C 438.96 306.64 439.44 309.41 439.79 312.20 L 438.04 311.33 C 435.75 313.30 433.58 315.37 431.10 317.12 C 428.38 319.11 425.77 320.78 424.45 324.06 C 423.79 317.98 424.12 312.05 424.27 305.97 C 424.46 301.82 420.39 298.90 417.96 296.02 C 415.97 293.99 415.14 291.48 414.38 288.81 C 412.96 283.65 411.16 278.64 410.06 273.38 Z" fill="#8d5f5b" />
<path d="M 466.05 282.80 C 470.48 283.45 473.05 287.69 474.46 291.54 C 479.15 305.08 476.77 317.12 478.31 330.97 C 478.78 339.09 479.46 347.95 475.24 355.28 C 473.58 358.31 470.73 361.29 466.93 360.56 C 464.52 360.32 463.46 357.62 462.17 355.90 C 461.39 355.40 460.60 354.91 459.82 354.41 C 459.21 348.59 456.61 343.67 453.72 338.70 C 454.53 338.16 455.35 337.61 456.16 337.06 C 454.00 333.55 451.32 330.49 448.65 327.37 C 444.71 322.78 443.69 316.88 439.79 312.20 C 439.44 309.41 438.96 306.64 438.58 303.86 C 439.48 302.21 440.38 300.57 441.30 298.93 C 441.57 301.12 441.86 303.30 442.21 305.48 C 444.25 301.10 444.99 296.92 448.12 293.09 C 452.33 287.82 459.13 283.04 466.05 282.80 Z" fill="#b47e7c" />
<path d="M 465.82 290.57 C 468.88 291.49 470.88 294.08 472.01 296.95 C 474.15 302.50 474.74 308.44 474.06 314.34 C 471.98 307.96 471.79 300.21 466.80 295.21 C 464.60 292.87 461.19 292.95 458.66 294.70 C 454.84 297.22 453.40 300.93 451.81 305.01 C 456.43 307.74 461.88 309.61 465.99 313.04 C 471.21 317.62 472.42 325.09 471.38 331.66 C 470.64 332.19 469.76 332.55 468.75 332.73 C 468.09 327.71 469.18 323.12 466.57 318.45 C 463.97 313.16 456.32 310.91 451.53 307.81 C 451.23 309.31 450.93 310.80 450.62 312.29 C 453.17 316.07 456.46 319.27 458.92 323.09 C 461.35 326.75 459.85 330.56 460.32 334.74 C 462.66 336.77 466.10 337.50 467.60 340.42 C 468.46 342.30 469.79 344.77 467.11 345.80 C 465.77 344.21 464.69 342.31 463.18 340.89 C 461.47 339.52 459.38 338.57 457.66 337.18 C 456.40 333.84 458.40 328.78 456.37 325.51 C 454.84 322.86 452.63 320.53 450.71 318.14 C 450.15 319.99 449.58 321.84 448.95 323.67 C 448.16 320.49 447.67 317.28 447.86 313.99 C 448.20 307.93 448.91 301.46 452.22 296.21 C 454.97 291.69 460.68 289.32 465.82 290.57 Z" fill="#000000" />
<path d="M 366.25 293.75 C 370.84 295.55 376.08 297.87 379.44 301.57 C 381.63 303.95 382.30 307.37 383.02 310.42 C 379.09 309.05 375.85 306.46 371.97 304.98 C 361.83 301.07 350.66 300.93 340.01 302.39 C 336.07 302.88 331.92 304.33 327.95 304.14 C 326.90 303.93 325.09 303.68 324.65 302.52 C 323.51 300.19 322.53 297.70 322.13 295.13 C 324.13 293.41 326.47 293.12 328.96 292.51 C 341.48 289.84 354.08 289.09 366.25 293.75 Z" fill="#000000" />
<path d="M 348.00 293.78 C 356.35 293.52 364.31 295.84 371.84 299.24 C 375.01 300.68 377.60 302.89 379.99 305.37 C 375.71 303.72 371.77 301.66 367.22 300.71 C 360.22 299.20 353.16 298.44 346.00 299.09 C 339.69 299.49 333.64 301.29 327.34 301.90 C 326.71 300.19 326.08 298.47 325.46 296.75 C 332.89 295.43 340.45 294.06 348.00 293.78 Z" fill="#bc4720" />
<path d="M 333.33 306.48 C 334.60 307.66 336.05 308.64 336.43 310.44 C 337.55 315.88 336.13 321.71 335.25 327.06 C 334.51 331.32 334.82 335.56 334.46 339.84 C 334.25 342.19 332.84 344.37 331.73 346.41 C 329.27 343.39 328.27 340.70 327.67 336.85 C 328.56 336.71 329.46 336.57 330.35 336.42 C 330.11 330.35 329.18 324.82 329.97 318.75 C 330.51 315.11 330.80 311.53 330.72 307.84 C 331.58 307.37 332.45 306.92 333.33 306.48 Z" fill="#b47e7c" />
<path d="M 329.81 308.38 L 330.72 307.84 C 330.80 311.53 330.51 315.11 329.97 318.75 C 329.18 324.82 330.11 330.35 330.35 336.42 C 329.46 336.57 328.56 336.71 327.67 336.85 C 325.83 327.71 325.85 316.98 329.81 308.38 Z" fill="#000000" />
<path d="M 373.78 316.23 C 375.39 316.86 376.47 317.64 377.59 318.96 L 375.97 320.37 C 369.35 319.02 364.11 315.93 356.99 317.00 C 350.53 317.38 344.84 319.66 338.85 321.85 C 339.63 320.14 340.31 318.87 341.97 317.95 C 351.38 312.23 363.74 312.17 373.78 316.23 Z" fill="#000000" />
<path d="M 438.19 314.89 C 441.45 321.90 444.04 328.76 449.62 334.36 C 449.39 335.23 449.15 336.11 448.91 336.98 C 451.30 340.89 453.44 344.87 455.43 348.99 C 453.82 347.98 452.20 346.99 450.57 346.01 C 452.10 349.89 454.10 353.06 456.78 356.23 C 459.99 360.07 461.82 364.48 463.84 368.99 C 463.41 370.00 462.98 371.00 462.56 372.00 C 465.83 378.98 466.86 386.24 471.68 392.50 C 470.99 393.21 470.31 393.93 469.62 394.64 C 470.55 399.57 471.07 404.46 471.30 409.47 C 470.02 408.74 468.74 408.01 467.46 407.29 C 468.84 411.08 470.85 415.03 471.48 419.01 C 472.17 423.35 472.51 427.76 473.08 432.12 C 471.50 431.63 469.92 431.16 468.34 430.69 C 468.79 436.11 471.17 440.62 473.59 445.34 C 471.64 444.03 469.70 442.69 467.78 441.32 C 466.85 441.37 465.91 441.41 464.97 441.45 C 466.46 446.39 468.43 450.80 469.00 455.99 C 469.97 462.63 467.48 469.34 466.01 475.75 C 465.03 473.92 464.67 472.03 462.73 470.98 C 461.45 473.72 462.64 477.09 462.93 480.03 C 464.17 487.67 462.23 494.44 459.98 501.63 C 458.76 501.40 457.55 501.17 456.33 500.94 C 456.03 504.92 455.93 508.71 454.59 512.53 C 453.56 515.33 451.91 518.01 450.42 520.60 C 449.23 520.18 448.03 519.77 446.84 519.35 C 443.54 526.42 439.33 532.02 433.81 537.50 C 434.13 535.31 435.28 533.61 433.91 531.56 C 431.24 533.87 429.84 536.88 427.77 539.78 C 425.04 543.61 422.06 547.51 418.19 550.23 C 415.31 552.25 412.46 554.93 409.16 556.21 C 405.98 557.07 402.80 557.37 399.84 558.97 C 392.44 562.65 384.40 564.41 376.19 562.65 C 380.80 560.21 385.26 558.49 389.46 555.40 C 394.94 551.48 399.26 546.74 404.19 542.20 C 408.93 537.80 413.15 533.08 416.42 527.46 C 418.21 524.37 419.39 520.99 421.20 517.93 C 422.71 518.42 422.56 520.68 423.03 521.96 C 428.11 514.73 432.27 507.01 434.09 498.28 C 432.17 499.80 430.66 501.42 428.17 501.94 C 428.56 497.36 430.95 493.97 432.62 489.80 C 435.30 483.51 435.94 476.12 436.90 469.38 C 434.35 471.40 431.91 472.80 428.79 473.79 C 430.45 467.17 432.69 460.76 433.91 454.02 C 435.49 446.31 435.02 439.01 434.90 431.21 C 433.82 432.24 432.73 433.27 431.64 434.29 C 429.60 425.04 431.33 416.01 430.16 406.68 C 429.01 406.79 427.87 406.90 426.72 407.02 C 426.54 401.50 426.55 395.99 426.68 390.47 C 425.33 391.02 423.98 391.56 422.63 392.10 C 422.67 388.07 423.08 383.98 422.76 379.96 C 422.64 378.44 421.29 377.07 420.59 375.78 C 421.27 371.05 422.49 367.17 424.97 363.08 C 427.70 358.84 426.23 354.79 427.36 349.79 C 428.24 345.84 429.09 342.26 427.99 338.23 C 429.15 332.40 427.24 327.38 427.14 321.46 C 429.04 320.53 430.95 319.66 432.91 318.86 C 434.68 317.55 436.44 316.22 438.19 314.89 Z" fill="#a43214" />
<path d="M 211.59 328.97 C 212.12 334.82 205.60 337.64 203.30 342.23 C 201.83 346.09 202.17 350.66 200.50 354.52 C 198.77 358.51 196.36 362.29 192.67 364.73 C 190.23 366.34 186.86 367.53 184.20 365.68 C 180.66 363.27 179.62 357.99 179.59 354.01 C 179.77 346.10 181.95 337.97 186.28 331.30 C 189.14 326.85 192.97 323.89 196.97 320.56 C 203.02 318.87 210.59 322.44 211.59 328.97 Z" fill="#000000" />
<path d="M 301.55 321.46 C 303.62 322.45 304.55 324.97 305.62 326.86 C 297.70 325.62 290.40 324.31 282.46 326.51 C 278.15 327.55 274.87 330.00 271.25 332.37 C 272.00 330.40 272.32 328.38 273.90 326.91 C 277.37 323.45 282.86 322.24 287.50 321.29 C 292.07 320.47 297.17 319.32 301.55 321.46 Z" fill="#bc4720" />
<path d="M 377.99 322.11 C 380.02 322.47 382.08 321.97 383.46 323.73 C 381.03 326.74 380.02 330.10 378.62 333.63 C 377.93 333.29 377.23 332.94 376.54 332.60 C 377.88 330.30 379.27 328.05 380.72 325.83 C 371.64 326.34 366.20 333.60 357.01 334.38 C 350.96 334.72 344.70 334.80 338.74 333.52 C 342.80 328.23 347.43 323.81 354.01 321.96 C 362.17 319.62 369.62 321.57 377.99 322.11 Z" fill="#000000" />
<path d="M 200.03 323.35 C 203.93 322.82 208.91 326.60 207.70 330.83 C 205.98 334.03 201.93 335.83 200.08 339.00 C 198.34 343.02 198.38 347.83 197.00 352.01 C 195.50 356.50 191.78 361.67 186.93 362.77 C 184.08 360.73 183.88 356.23 183.78 353.04 C 183.96 343.91 187.12 334.20 193.40 327.42 C 195.30 325.49 197.14 323.46 200.03 323.35 Z" fill="#f1a3a3" />
<path d="M 358.35 324.16 C 358.02 325.94 357.67 327.72 357.29 329.49 C 356.51 328.34 355.78 327.16 355.09 325.96 C 356.13 325.29 357.22 324.69 358.35 324.16 Z" fill="#aaa3a6" />
<path d="M 368.06 325.08 C 369.73 324.12 370.56 326.42 368.67 326.77 C 367.68 326.50 367.48 325.94 368.06 325.08 Z" fill="#6e6768" />
<path d="M 349.03 325.81 C 349.91 327.77 350.88 329.64 351.97 331.48 C 348.81 331.50 345.65 331.59 342.48 331.68 C 344.18 329.97 345.79 328.28 347.68 326.78 C 348.13 326.45 348.58 326.13 349.03 325.81 Z" fill="#ffffff" />
<path d="M 366.08 326.73 C 363.89 328.74 362.36 330.89 359.17 329.16 C 361.56 327.43 363.03 326.79 366.08 326.73 Z" fill="#81a7b3" />
<path d="M 305.22 329.68 C 306.92 330.01 307.60 332.26 308.49 333.56 C 303.37 332.17 298.32 331.47 293.09 332.77 C 293.20 331.33 293.32 329.88 293.43 328.43 C 290.91 328.54 288.42 328.63 285.90 328.86 C 292.25 327.56 298.99 328.05 305.22 329.68 Z" fill="#b47e7c" />
<path d="M 285.90 328.86 C 288.42 328.63 290.91 328.54 293.43 328.43 C 293.32 329.88 293.20 331.33 293.09 332.77 C 286.14 335.10 280.56 339.21 275.98 344.89 C 275.29 342.23 273.03 338.91 273.32 336.20 C 275.42 331.95 281.54 329.76 285.90 328.86 Z" fill="#e8c0a8" />
<path d="M 352.43 328.47 C 354.39 328.19 356.15 329.25 356.85 331.11 C 354.87 331.34 352.81 330.64 352.43 328.47 Z" fill="#81a7b3" />
<path d="M 308.97 336.39 C 309.18 337.46 309.40 338.54 309.61 339.62 C 305.15 338.10 300.99 337.97 296.38 338.87 C 296.53 338.19 296.68 337.52 296.83 336.84 C 294.95 336.31 293.07 335.84 291.13 335.63 C 296.76 334.37 303.13 336.23 308.97 336.39 Z" fill="#b47f7c" />
<path d="M 291.13 335.63 C 293.07 335.84 294.95 336.31 296.83 336.84 C 296.68 337.52 296.53 338.19 296.38 338.87 C 289.55 340.76 282.76 345.63 278.87 351.57 C 285.38 351.06 292.65 351.18 298.70 348.71 C 302.14 347.39 304.95 345.36 307.97 343.32 C 306.49 346.07 304.92 348.67 303.66 351.52 C 307.64 350.09 308.16 346.74 309.79 343.32 C 310.07 355.19 304.89 365.93 305.17 377.86 C 303.69 379.97 302.33 381.93 302.04 384.57 C 301.50 388.79 300.59 392.99 300.43 397.23 C 301.60 395.73 302.37 394.04 303.14 392.31 C 304.33 393.58 305.57 395.13 307.08 396.01 C 309.38 397.04 311.97 396.73 313.98 395.20 C 313.36 391.91 308.45 392.99 306.67 390.40 C 304.92 388.19 305.42 385.57 305.33 382.93 C 306.93 386.08 307.79 389.08 310.86 391.18 C 316.02 394.95 321.53 394.79 327.64 394.69 C 329.20 394.74 328.88 396.04 327.56 396.24 C 323.80 397.06 320.15 397.14 316.51 398.59 C 311.09 400.86 305.71 402.84 301.05 406.52 C 297.82 405.80 294.45 405.57 291.27 404.68 C 288.50 402.16 286.82 398.20 284.94 395.00 C 281.93 389.29 278.32 383.63 276.19 377.54 C 274.02 367.42 278.20 357.81 276.51 347.44 C 281.27 343.10 285.25 338.56 291.13 335.63 Z" fill="#e8c0a8" />
<path d="M 268.36 336.62 C 269.04 337.97 269.73 339.32 270.44 340.65 C 270.81 342.21 271.05 343.79 271.32 345.36 C 271.77 347.00 272.05 348.67 272.37 350.34 C 273.23 353.20 273.00 356.01 273.05 359.00 C 272.95 361.74 273.34 364.29 272.14 366.79 C 271.96 369.40 271.82 371.95 272.53 374.50 C 272.24 375.53 272.03 376.56 271.77 377.59 C 270.62 378.89 269.51 380.19 268.62 381.69 C 266.54 384.08 264.13 386.16 262.05 388.56 C 261.96 391.04 263.56 390.99 265.36 390.02 C 265.04 391.13 264.71 392.24 264.35 393.34 C 263.11 395.62 262.27 398.06 261.19 400.42 C 256.41 400.12 251.03 399.32 246.34 400.66 C 245.44 400.88 244.54 401.09 243.64 401.31 C 242.27 401.69 240.88 401.98 239.48 402.27 C 239.08 401.37 238.67 400.48 238.25 399.59 C 237.39 397.54 236.61 395.46 235.74 393.41 C 235.33 392.51 234.94 391.61 234.55 390.71 C 235.56 391.25 236.57 391.79 237.58 392.33 C 238.55 392.72 239.53 393.11 240.50 393.49 C 244.58 394.27 249.45 394.34 253.51 393.45 C 254.54 393.10 255.56 392.76 256.59 392.42 C 257.56 391.52 259.36 391.00 259.03 389.42 C 257.25 388.00 255.27 386.82 253.30 385.69 C 251.57 384.08 249.91 382.42 248.29 380.70 C 247.06 378.58 245.73 376.51 244.52 374.38 C 244.23 373.09 244.00 371.79 243.77 370.49 C 243.40 369.78 243.03 369.06 242.66 368.34 C 244.33 368.04 245.99 367.77 247.62 367.33 C 248.22 367.17 248.81 367.00 249.41 366.84 C 250.48 366.08 251.56 365.34 252.69 364.66 C 255.44 362.25 257.96 359.93 259.30 356.42 C 259.81 355.47 260.33 354.52 260.86 353.58 C 262.63 350.02 261.93 346.63 261.90 342.78 L 260.94 340.79 C 261.58 339.44 263.18 339.13 264.41 338.50 C 265.71 337.85 267.01 337.19 268.36 336.62 Z" fill="#ffffff" />
<path d="M 370.69 336.83 L 373.10 337.88 C 366.75 343.81 357.53 346.42 348.99 345.18 C 344.18 344.26 339.38 342.52 336.73 338.09 C 338.93 338.88 341.02 339.87 343.15 340.81 C 348.89 343.44 356.03 342.96 361.86 340.83 C 364.92 339.79 367.63 337.83 370.69 336.83 Z" fill="#000000" />
<path d="M 296.07 342.20 C 296.19 343.00 296.19 343.80 296.07 344.63 C 294.66 344.13 293.59 343.38 292.89 342.03 C 293.96 341.39 295.44 340.55 296.07 342.20 Z" fill="#796d68" />
<path d="M 303.97 341.15 C 305.62 340.11 306.40 342.46 304.61 342.87 C 303.64 342.62 303.43 342.05 303.97 341.15 Z" fill="#887f7e" />
<path d="M 302.44 342.20 C 301.40 344.52 300.24 345.39 298.04 346.55 C 298.06 345.43 298.11 344.31 298.17 343.19 C 299.58 342.79 301.00 342.48 302.44 342.20 Z" fill="#7c9aa5" />
<path d="M 289.12 344.30 C 289.80 345.62 290.47 346.95 291.15 348.27 C 288.68 348.66 286.21 348.99 283.72 349.24 C 284.81 348.19 285.91 347.14 287.04 346.13 C 287.73 345.52 288.43 344.91 289.12 344.30 Z" fill="#b8b2b2" />
<path d="M 293.23 346.23 C 295.02 345.03 296.15 347.81 294.05 348.23 C 292.92 347.92 292.64 347.26 293.23 346.23 Z" fill="#362e2b" />
<path d="M 369.37 347.45 C 372.55 347.23 375.77 349.40 374.91 352.93 C 373.79 359.97 365.00 364.88 358.35 364.54 C 354.01 364.36 348.15 359.89 351.07 355.17 C 353.41 353.66 356.28 352.90 358.80 351.69 C 362.14 350.21 365.71 347.83 369.37 347.45 Z" fill="#efcfbb" />
<path d="M 158.62 352.13 C 163.92 351.51 168.85 353.75 172.62 357.38 C 176.98 361.49 179.91 367.13 181.11 372.98 C 183.28 383.63 178.16 395.24 169.02 401.04 C 159.38 407.36 144.78 405.67 137.46 396.52 C 133.52 392.04 133.06 385.69 133.55 380.00 C 134.31 366.63 145.22 354.05 158.62 352.13 Z" fill="#000000" />
<path d="M 277.33 352.19 C 279.93 353.01 281.60 355.87 284.18 356.52 C 288.47 357.27 291.98 354.95 295.97 354.11 L 297.60 355.00 C 295.82 357.85 292.89 358.43 289.87 359.32 C 288.47 359.40 287.06 359.49 285.66 359.58 C 282.67 358.84 280.53 357.78 278.33 355.63 C 277.96 354.50 277.62 353.35 277.33 352.19 Z" fill="#191513" />
<path d="M 154.55 356.72 C 159.85 355.51 165.39 356.88 169.32 360.71 C 174.31 365.62 177.22 373.03 176.61 380.03 C 175.79 390.49 166.59 399.58 156.02 399.78 C 149.18 400.17 141.38 395.96 138.94 389.38 C 137.56 384.10 138.16 377.98 139.81 372.80 C 142.43 366.01 147.90 359.78 154.55 356.72 Z" fill="#f1a3a3" />
<path d="M 285.66 359.58 C 287.06 359.49 288.47 359.40 289.87 359.32 C 293.83 359.86 297.78 360.17 298.28 365.01 C 297.93 370.59 291.87 372.93 287.10 373.48 C 284.45 373.91 279.85 373.01 279.31 369.87 C 278.21 365.52 282.99 362.30 285.66 359.58 Z" fill="#efcfbb" />
<path d="M 478.06 358.30 C 480.39 362.01 482.57 365.45 482.75 369.98 C 483.31 375.04 481.68 379.38 480.36 384.13 L 482.07 385.60 C 483.68 383.62 484.83 381.50 486.17 379.33 C 488.39 386.94 486.36 395.50 483.92 402.83 C 481.74 408.32 478.99 414.80 474.27 418.56 C 474.57 414.69 475.47 410.80 475.30 407.01 C 475.15 403.81 474.62 400.60 474.20 397.42 C 475.48 396.97 476.75 396.51 478.03 396.05 C 476.49 392.38 474.20 389.28 471.88 386.09 C 469.69 383.12 468.72 379.68 468.60 376.02 C 468.47 371.66 466.71 367.97 465.22 363.94 C 467.50 363.98 470.34 364.33 472.47 363.34 C 474.63 362.22 476.39 360.03 478.06 358.30 Z" fill="#b47e7c" />
<path d="M 315.82 367.37 C 318.84 368.51 317.89 371.72 317.58 374.22 C 316.90 376.85 315.85 380.57 312.98 381.55 C 310.08 379.42 309.52 374.46 308.48 371.22 C 308.71 370.04 308.99 368.87 309.30 367.71 C 311.44 367.52 313.68 367.20 315.82 367.37 Z" fill="#efcfbb" />
<path d="M 348.51 369.60 C 349.90 370.67 350.82 372.42 351.83 373.84 C 360.04 377.85 366.16 384.84 374.69 388.49 C 374.62 389.32 374.54 390.16 374.46 391.00 C 366.78 390.70 361.69 384.26 356.43 379.49 C 355.62 378.67 354.81 377.85 354.02 377.02 C 353.29 376.23 352.57 375.44 351.86 374.65 C 351.67 379.99 350.28 383.92 346.88 388.03 C 345.78 388.30 344.66 388.53 343.53 388.71 C 343.97 388.03 344.41 387.35 344.84 386.67 C 347.53 382.90 349.45 378.75 348.18 374.03 C 346.51 372.77 344.55 371.87 342.74 370.82 C 344.76 369.83 346.17 368.55 348.51 369.60 Z" fill="#000000" />
<path d="M 155.48 373.51 C 160.70 371.51 165.85 378.58 163.17 383.12 C 160.25 386.99 154.18 386.24 152.28 381.77 C 150.46 378.22 152.42 375.30 155.48 373.51 Z" fill="#000000" />
<path d="M 157.79 374.61 C 159.18 376.26 162.56 378.39 161.07 380.93 C 159.94 384.67 154.00 382.18 154.41 378.96 C 154.49 377.22 156.77 375.89 157.79 374.61 Z" fill="#fce9ba" />
<path d="M 351.86 374.65 C 352.57 375.44 353.29 376.23 354.02 377.02 C 354.81 377.85 355.62 378.67 356.43 379.49 C 354.70 384.47 351.83 386.57 346.88 388.03 C 350.28 383.92 351.67 379.99 351.86 374.65 Z" fill="#b47e7c" />
<path d="M 420.59 375.78 C 421.29 377.07 422.64 378.44 422.76 379.96 C 423.08 383.98 422.67 388.07 422.63 392.10 C 423.98 391.56 425.33 391.02 426.68 390.47 C 426.55 395.99 426.54 401.50 426.72 407.02 C 427.87 406.90 429.01 406.79 430.16 406.68 C 431.33 416.01 429.60 425.04 431.64 434.29 C 432.73 433.27 433.82 432.24 434.90 431.21 C 435.02 439.01 435.49 446.31 433.91 454.02 C 432.69 460.76 430.45 467.17 428.79 473.79 C 431.91 472.80 434.35 471.40 436.90 469.38 C 435.94 476.12 435.30 483.51 432.62 489.80 C 430.95 493.97 428.56 497.36 428.17 501.94 C 430.66 501.42 432.17 499.80 434.09 498.28 C 432.27 507.01 428.11 514.73 423.03 521.96 C 422.56 520.68 422.71 518.42 421.20 517.93 C 419.39 520.99 418.21 524.37 416.42 527.46 C 413.15 533.08 408.93 537.80 404.19 542.20 C 399.26 546.74 394.94 551.48 389.46 555.40 C 385.26 558.49 380.80 560.21 376.19 562.65 C 374.55 562.49 372.91 562.44 371.25 562.39 C 371.60 563.87 371.95 565.34 372.30 566.81 C 366.40 566.18 361.16 563.89 355.59 562.08 C 355.52 564.00 355.48 565.92 355.45 567.85 C 348.74 566.35 343.17 563.73 337.47 559.95 C 337.35 561.18 337.24 562.41 337.13 563.63 C 330.50 564.23 322.64 565.73 316.21 563.76 C 312.57 562.65 310.52 559.51 307.27 558.10 C 306.34 558.90 305.43 559.72 304.56 560.59 C 299.25 558.53 295.56 555.56 291.86 551.29 C 291.07 552.20 290.28 553.12 289.50 554.04 C 284.08 552.45 278.92 551.22 274.37 547.65 C 270.82 545.07 268.37 541.64 265.48 538.42 C 264.63 537.32 262.65 537.47 261.42 537.13 C 257.50 532.67 256.90 527.58 255.17 522.18 C 252.82 522.28 253.70 526.16 253.24 527.85 C 249.46 522.34 246.48 514.44 250.16 508.18 C 252.30 504.09 253.06 500.25 255.97 496.98 C 258.42 494.11 260.93 491.27 263.53 488.53 C 271.14 480.78 280.71 475.58 289.63 469.66 C 294.62 466.06 299.45 461.61 299.60 454.98 C 299.83 452.41 298.47 450.76 297.33 448.62 C 299.78 446.56 302.30 444.61 304.88 442.71 C 306.71 445.29 308.47 448.01 311.05 449.91 C 312.88 451.12 314.76 452.17 316.94 451.07 C 321.92 449.10 322.50 442.97 326.32 439.78 C 325.58 443.63 324.31 447.13 324.10 450.90 C 324.85 450.80 325.58 450.62 326.28 450.37 C 327.51 447.04 328.18 443.55 329.70 440.30 C 330.11 441.92 328.57 446.02 331.09 446.01 C 331.93 444.60 332.66 443.14 333.38 441.67 C 338.93 441.64 344.16 440.67 349.45 439.06 C 351.44 443.95 354.28 447.66 358.11 451.26 C 358.61 449.75 359.09 448.24 359.56 446.72 C 363.04 448.72 366.56 450.36 370.54 451.08 C 370.96 449.98 371.39 448.88 371.81 447.78 C 375.68 447.54 379.15 446.84 382.02 444.03 C 387.70 438.71 390.97 430.55 391.76 422.90 C 393.92 423.83 395.35 425.57 397.80 424.35 C 397.57 421.06 394.84 419.33 392.33 417.70 C 385.27 413.53 376.70 413.73 368.83 412.52 C 364.57 411.96 360.55 410.63 356.52 409.17 C 356.11 410.09 355.69 411.01 355.27 411.93 C 350.95 411.25 346.92 410.18 342.91 408.40 C 342.26 409.14 341.61 409.87 340.97 410.61 C 337.06 409.77 333.24 408.76 329.62 407.04 C 328.76 408.67 327.90 410.30 327.02 411.93 C 326.35 411.65 325.68 411.37 325.00 411.09 C 323.45 412.79 321.89 414.69 320.02 416.03 C 317.76 417.51 314.82 418.13 312.56 419.60 C 310.31 421.09 308.26 422.88 306.14 424.54 C 301.75 421.45 296.96 419.21 292.19 416.80 C 285.02 413.13 280.13 407.45 272.80 404.34 C 269.82 403.11 267.63 401.70 265.25 399.53 C 266.86 395.56 268.50 391.62 270.28 387.73 C 269.93 386.93 269.59 386.14 269.24 385.35 C 270.61 383.58 271.95 381.80 273.27 379.99 C 276.07 389.10 281.39 397.67 286.93 405.37 C 287.18 406.41 287.46 407.44 287.78 408.46 C 290.34 409.56 293.67 409.20 296.42 409.20 C 296.29 410.30 294.79 412.27 296.32 412.73 C 299.25 413.00 302.27 409.77 304.58 408.24 C 305.41 408.33 306.24 408.42 307.06 408.52 C 311.95 404.94 316.94 401.79 322.71 399.84 C 329.89 401.28 334.35 397.07 341.12 396.11 C 344.56 395.47 347.89 396.16 351.32 396.59 C 351.68 397.40 352.04 398.22 352.41 399.03 C 361.76 399.27 369.88 402.55 379.21 404.52 C 380.22 404.36 381.21 404.07 382.19 403.66 C 381.60 402.60 381.02 401.53 380.43 400.47 C 383.97 397.30 387.21 394.11 389.08 389.63 C 393.37 387.85 397.79 387.08 401.84 384.70 C 403.94 384.31 406.04 383.94 408.13 383.54 C 411.19 379.91 415.04 380.45 419.32 380.09 C 419.76 378.66 420.19 377.22 420.59 375.78 Z" fill="#d54d1d" />
<path d="M 338.02 380.66 C 341.06 380.33 342.17 382.24 343.60 384.49 C 342.38 385.54 341.21 387.00 339.73 387.66 C 337.88 388.18 335.71 387.75 333.82 387.61 C 333.46 386.73 333.10 385.86 332.74 384.98 C 331.39 385.56 330.05 386.14 328.71 386.73 L 325.79 387.82 C 327.35 382.60 333.38 381.43 338.02 380.66 Z" fill="#000000" />
<path d="M 343.60 384.49 C 344.03 385.20 344.45 385.93 344.84 386.67 C 344.41 387.35 343.97 388.03 343.53 388.71 C 339.23 389.93 334.25 390.69 330.53 393.26 C 330.58 392.36 330.56 391.46 330.49 390.57 C 328.82 390.40 327.16 390.45 325.47 390.47 C 326.52 389.19 327.54 387.91 328.71 386.73 C 330.05 386.14 331.39 385.56 332.74 384.98 C 333.10 385.86 333.46 386.73 333.82 387.61 C 335.71 387.75 337.88 388.18 339.73 387.66 C 341.21 387.00 342.38 385.54 343.60 384.49 Z" fill="#b47e7c" />
<path d="M 457.93 388.61 C 460.29 392.84 461.47 397.44 462.24 402.19 C 462.82 406.46 463.19 410.53 461.76 414.68 C 460.59 418.13 459.72 422.02 457.15 424.72 C 457.37 418.81 458.98 413.52 457.44 407.57 C 458.33 407.09 459.21 406.61 460.10 406.13 C 459.60 402.66 459.01 399.21 458.06 395.83 C 457.46 393.20 456.28 391.16 457.93 388.61 Z" fill="#000000" />
<path d="M 255.02 404.69 C 263.73 405.40 272.31 409.55 279.24 414.75 C 283.43 417.96 287.83 420.66 292.52 423.08 C 292.04 424.16 291.57 425.24 291.09 426.32 C 277.63 423.22 264.19 421.21 250.85 416.97 C 247.28 415.83 243.81 414.42 240.23 413.32 C 240.54 414.42 240.24 415.90 241.37 416.55 C 254.71 424.95 268.96 426.88 283.82 430.31 C 282.17 431.12 280.88 431.65 279.01 431.49 C 269.37 431.33 258.74 431.26 249.56 428.09 C 241.35 425.30 233.99 421.31 224.97 422.55 C 222.38 423.27 219.40 422.90 219.30 426.40 C 223.39 426.32 226.86 424.81 231.06 425.80 C 238.55 427.43 244.98 431.79 252.46 433.80 C 250.76 435.79 248.46 436.70 249.19 439.73 C 251.65 437.99 254.06 436.20 256.68 434.69 C 264.71 436.28 272.71 436.36 280.85 436.55 C 280.07 438.11 279.30 439.68 278.55 441.25 C 269.62 438.29 261.98 440.69 253.01 441.40 C 240.46 442.54 227.21 437.83 214.97 439.94 C 212.18 440.42 210.98 441.16 209.21 443.37 C 213.30 443.42 217.08 442.44 221.18 442.88 C 226.91 443.48 232.62 444.42 238.31 445.32 C 236.59 447.53 233.93 449.78 233.19 452.52 L 234.55 453.16 C 237.20 451.15 239.84 447.18 243.16 446.42 C 250.01 446.55 256.77 446.83 263.61 446.02 C 262.84 448.22 261.23 451.26 262.51 453.52 C 264.29 455.94 268.31 455.76 270.82 454.74 C 274.60 453.42 276.08 450.04 278.24 446.98 C 279.12 448.08 280.92 449.29 280.62 450.84 C 280.09 453.78 277.05 456.22 274.53 457.52 C 268.37 460.63 260.82 461.65 254.01 462.18 C 245.42 462.78 234.90 460.88 226.77 463.85 C 221.84 466.67 217.51 470.69 212.74 473.77 C 209.20 476.01 205.50 477.03 201.59 478.41 C 201.61 479.12 201.62 479.82 201.64 480.53 C 203.85 480.83 205.79 481.35 208.01 480.82 C 213.07 479.88 217.58 476.25 222.01 473.73 C 219.30 476.88 215.58 479.29 213.87 482.98 C 219.46 481.44 224.03 476.32 227.06 471.59 C 229.05 475.29 231.29 478.72 234.21 481.75 C 234.51 488.16 236.04 493.80 234.72 500.03 C 233.33 507.60 229.50 515.60 222.80 519.81 C 220.04 521.65 216.48 521.99 213.80 523.81 C 213.64 524.99 213.51 526.17 213.40 527.36 C 212.49 530.38 212.44 532.23 213.24 535.30 C 209.95 536.39 206.47 537.05 203.00 537.10 C 189.12 536.98 175.97 525.59 173.50 512.03 C 171.57 495.33 176.67 478.07 181.35 462.18 C 183.92 453.81 187.45 444.17 194.69 438.72 C 198.33 435.83 202.34 435.49 206.56 434.05 C 206.61 431.23 204.84 431.92 202.84 430.99 C 212.31 423.82 222.50 417.86 232.51 411.49 C 239.35 407.20 246.77 404.12 255.02 404.69 Z" fill="#e8c0a8" />
<path d="M 330.82 410.34 C 334.31 411.55 337.86 412.59 341.41 413.64 C 339.15 414.75 336.56 416.26 334.02 416.41 C 331.80 416.37 329.54 415.78 327.36 415.36 C 328.53 413.70 329.69 412.03 330.82 410.34 Z" fill="#e8c0a8" />
<path d="M 166.64 412.63 C 167.13 419.83 162.74 425.07 162.57 432.04 C 162.20 435.68 167.36 438.38 170.01 436.01 C 173.41 431.56 172.46 424.14 175.45 419.44 C 177.49 416.82 180.83 418.43 182.86 420.15 C 186.77 423.40 187.06 428.41 185.74 433.02 C 183.67 440.06 179.44 447.60 172.24 450.39 C 166.07 452.83 158.43 452.56 154.36 446.62 C 147.39 436.21 150.69 419.94 160.73 412.61 C 162.79 411.03 164.46 412.07 166.64 412.63 Z" fill="#f1a3a3" />
<path d="M 347.20 414.86 C 351.60 414.89 355.94 415.87 360.36 415.93 C 351.40 418.24 342.69 419.99 334.58 424.50 C 326.35 423.01 317.46 425.63 309.02 425.82 C 310.13 424.82 311.25 423.83 312.38 422.84 C 316.27 421.85 319.36 419.44 323.03 417.99 C 326.57 416.70 329.52 418.05 333.02 418.54 C 337.86 419.76 342.10 414.99 347.20 414.86 Z" fill="#e8b8b0" />
<path d="M 370.93 417.13 C 365.96 421.57 363.18 426.91 357.65 430.68 C 351.01 435.33 342.11 438.10 334.01 438.00 C 325.20 437.92 319.12 433.67 310.44 431.32 C 309.99 430.32 309.55 429.32 309.10 428.32 C 316.41 428.01 323.75 427.65 331.00 426.66 C 329.59 428.31 328.26 430.00 327.08 431.83 C 331.16 430.55 334.33 427.95 338.20 426.21 C 345.73 422.70 354.37 420.80 362.52 419.35 C 365.41 418.83 368.17 418.11 370.93 417.13 Z" fill="#e8b8b0" />
<path d="M 375.25 417.58 C 379.89 418.27 384.33 419.33 388.73 420.97 C 388.53 424.36 388.02 427.64 386.69 430.79 C 384.76 435.66 382.28 440.87 377.42 443.40 C 374.69 444.91 371.41 444.27 368.40 444.23 C 368.09 445.08 367.78 445.93 367.47 446.77 C 363.91 445.36 360.44 443.76 356.98 442.09 C 356.53 443.05 356.07 444.00 355.61 444.95 C 354.29 442.69 353.07 440.40 351.93 438.04 C 356.54 435.67 360.89 433.31 364.56 429.56 C 368.32 425.75 371.54 421.45 375.25 417.58 Z" fill="#e8c0a8" />
<path d="M 295.28 424.38 C 298.51 425.22 301.32 427.01 303.55 429.49 C 299.98 428.89 296.52 427.87 293.08 426.76 C 293.79 425.96 294.50 425.12 295.28 424.38 Z" fill="#b7a9a1" />
<path d="M 285.85 430.23 C 289.66 430.25 293.62 431.57 297.40 432.19 L 297.31 433.51 C 293.00 432.43 288.65 432.08 284.25 431.69 L 285.85 430.23 Z" fill="#635755" />
<path d="M 304.16 430.16 C 305.91 428.99 307.12 431.78 305.01 432.17 C 303.87 431.85 303.59 431.18 304.16 430.16 Z" fill="#241e1b" />
<path d="M 303.90 438.36 C 301.96 436.90 300.12 435.33 298.40 433.61 C 302.33 432.24 302.90 435.50 303.90 438.36 Z" fill="#856d61" />
<path d="M 309.98 434.07 C 314.10 435.63 318.02 437.70 322.10 439.37 C 320.42 442.04 318.39 447.32 314.89 447.78 C 311.28 447.70 308.67 443.39 306.76 440.80 C 307.60 438.41 308.41 436.11 309.98 434.07 Z" fill="#e8c0a8" />
<path d="M 285.58 436.66 C 288.19 436.64 290.79 436.76 293.39 436.88 C 291.49 439.15 289.94 441.37 287.06 442.47 C 285.56 442.88 282.65 442.09 282.17 440.43 C 283.16 439.07 284.36 437.82 285.58 436.66 Z" fill="#e7e4e3" />
<path d="M 296.27 437.55 C 297.17 439.23 298.41 440.48 297.36 442.45 C 294.71 446.65 289.94 448.65 285.63 450.69 C 285.22 448.83 284.78 446.98 284.31 445.13 C 289.93 444.75 292.49 441.05 296.27 437.55 Z" fill="#ebc3aa" />
<path d="M 267.82 445.74 C 270.36 445.74 272.88 445.96 275.40 446.25 C 273.94 448.53 272.90 452.10 269.84 452.52 C 267.80 452.79 265.59 453.39 264.56 451.09 C 265.23 449.02 266.46 447.40 267.82 445.74 Z" fill="#e7e4e3" />
<path d="M 139.06 449.78 C 144.18 450.48 147.70 456.22 148.30 460.97 C 148.73 464.13 147.27 467.28 144.03 468.10 C 140.42 468.99 137.14 468.73 134.39 471.65 C 141.25 471.10 147.01 469.02 154.00 471.12 C 158.90 472.53 162.63 476.06 164.18 480.94 C 166.27 486.67 165.19 492.43 162.90 497.89 C 160.86 502.70 157.38 507.27 152.61 509.61 C 148.21 511.80 142.96 511.97 138.16 511.44 C 133.60 510.80 128.80 508.73 126.36 504.62 C 124.22 501.27 123.83 497.00 124.54 493.17 C 125.41 489.85 128.33 487.63 131.80 487.98 C 135.26 488.36 138.59 488.92 142.08 488.39 C 141.33 486.15 140.28 485.00 138.47 483.53 C 133.85 485.22 129.43 486.50 124.47 485.33 C 119.62 483.94 114.73 480.89 113.10 475.85 C 111.56 471.11 113.33 465.98 115.92 461.95 C 120.91 454.35 129.74 448.83 139.06 449.78 Z" fill="#000000" />
<path d="M 295.62 450.42 C 296.25 453.09 296.16 455.01 295.42 457.64 C 289.60 458.77 284.47 460.22 281.34 465.72 C 281.80 466.69 282.27 467.66 282.73 468.63 C 277.06 471.54 271.89 474.79 266.89 478.75 C 265.20 477.55 263.52 476.33 261.87 475.08 C 261.09 475.51 260.30 475.94 259.52 476.38 C 261.01 478.05 262.57 479.65 264.18 481.21 C 257.36 487.39 251.30 494.47 245.73 501.78 C 245.69 504.13 245.72 506.20 244.36 508.23 C 237.40 520.11 225.80 529.80 213.24 535.30 C 212.44 532.23 212.49 530.38 213.40 527.36 C 219.92 527.89 225.33 525.40 229.75 520.74 C 236.07 513.95 239.33 504.19 239.28 495.00 C 239.35 489.55 237.82 484.38 237.67 479.00 C 237.58 475.57 238.63 472.63 239.46 469.37 C 238.62 469.03 237.77 468.75 236.90 468.51 C 234.44 472.65 234.19 477.06 234.21 481.75 C 231.29 478.72 229.05 475.29 227.06 471.59 C 227.76 470.26 228.37 468.88 228.99 467.51 C 234.31 466.61 239.66 466.46 245.04 466.34 C 242.10 470.04 237.87 474.70 241.79 479.37 C 243.64 473.54 245.92 468.55 252.13 466.48 C 260.61 465.45 268.33 465.42 276.06 461.09 C 279.02 459.51 281.07 456.68 283.90 455.01 C 288.04 453.86 291.90 452.66 295.62 450.42 Z" fill="#b47e7c" />
<path d="M 141.01 452.76 C 144.09 454.16 145.87 457.74 146.20 460.97 C 146.42 462.62 145.44 464.29 143.90 464.92 C 140.18 466.43 135.20 465.71 132.41 468.84 C 131.72 471.73 134.14 474.64 136.90 475.17 C 142.22 475.23 148.46 473.16 153.63 475.39 C 158.08 477.23 160.61 481.50 161.12 486.17 C 161.38 492.80 158.80 499.39 153.60 503.63 C 147.65 508.81 137.80 509.20 131.45 504.57 C 128.38 502.26 125.78 495.96 128.86 492.86 C 132.19 489.05 138.75 494.22 142.63 491.65 C 143.82 490.99 145.15 490.16 145.70 488.86 C 146.35 485.48 144.17 481.65 141.45 479.77 C 137.14 478.04 131.67 481.23 127.01 480.55 C 121.74 480.17 116.39 475.67 117.17 470.01 C 117.84 465.40 121.72 461.10 125.02 458.03 C 129.44 454.08 134.97 451.55 141.01 452.76 Z" fill="#f1a3a3" />
<path d="M 292.81 460.89 C 290.31 464.07 287.84 466.41 283.70 467.10 C 285.61 462.97 288.68 461.98 292.81 460.89 Z" fill="#846b66" />
<path d="M 236.90 468.51 C 237.77 468.75 238.62 469.03 239.46 469.37 C 238.63 472.63 237.58 475.57 237.67 479.00 C 237.82 484.38 239.35 489.55 239.28 495.00 C 239.33 504.19 236.07 513.95 229.75 520.74 C 225.33 525.40 219.92 527.89 213.40 527.36 C 213.51 526.17 213.64 524.99 213.80 523.81 C 216.48 521.99 220.04 521.65 222.80 519.81 C 229.50 515.60 233.33 507.60 234.72 500.03 C 236.04 493.80 234.51 488.16 234.21 481.75 C 234.19 477.06 234.44 472.65 236.90 468.51 Z" fill="#000000" />
<path d="M 447.76 472.78 C 450.69 482.74 449.43 492.80 446.36 502.53 C 445.79 504.30 444.52 505.37 443.26 506.65 C 441.91 510.52 441.06 514.14 438.46 517.43 C 436.58 519.76 434.74 522.17 432.66 524.34 L 431.10 523.73 C 432.14 519.40 434.65 515.57 435.64 511.15 C 435.57 509.48 437.89 510.93 438.83 510.93 C 440.76 506.08 441.48 501.46 441.49 496.23 C 442.07 496.49 442.65 496.74 443.24 496.99 C 443.48 497.99 443.72 498.99 443.96 499.99 C 445.43 494.01 446.90 488.20 446.60 481.99 C 446.69 478.61 445.52 475.69 447.76 472.78 Z" fill="#000000" />
<path d="M 181.58 478.54 C 181.99 477.41 184.99 477.48 185.79 478.13 C 189.30 480.67 190.14 484.92 190.23 488.99 C 190.32 495.94 190.31 503.13 188.87 509.95 C 188.15 513.36 186.42 516.75 182.96 518.00 C 180.12 518.19 178.43 515.44 177.73 513.05 C 176.18 507.66 176.53 501.53 176.99 495.99 C 177.71 490.21 178.58 483.62 181.58 478.54 Z" fill="#efcfbb" />
<path d="M 271.39 494.44 C 271.81 498.73 269.78 501.88 269.13 506.02 C 268.03 512.35 269.24 518.49 271.50 524.41 C 271.73 521.78 271.74 519.06 272.28 516.47 L 274.00 516.05 C 274.93 522.50 275.16 528.56 278.38 534.45 C 278.63 532.65 278.90 530.86 279.19 529.08 C 281.42 533.12 283.59 537.67 284.80 542.12 C 284.13 542.48 283.45 542.84 282.77 543.19 C 282.12 542.14 281.46 541.10 280.80 540.05 C 277.87 538.72 276.72 537.62 275.19 534.83 C 273.12 530.75 269.39 528.49 267.77 524.20 C 265.46 518.49 264.87 512.06 266.17 506.03 C 267.11 501.76 268.31 497.71 271.39 494.44 Z" fill="#000000" />
<path d="M 343.01 549.97 C 345.90 551.04 347.86 554.37 350.02 556.47 C 350.91 556.12 351.80 555.77 352.68 555.42 C 354.36 556.65 356.05 557.84 357.62 559.21 C 355.90 560.76 354.14 559.82 352.12 559.51 C 347.81 558.44 343.31 554.65 343.01 549.97 Z" fill="#000000" />
</svg>