<?xml version="1.0" encoding="UTF-8" standalone="no"?>
<!DOCTYPE svg PUBLIC "-//W3C//DTD SVG 1.1//EN" "http://www.w3.org/Graphics/SVG/1.1/DTD/svg11.dtd">
<svg xmlns="http://www.w3.org/2000/svg" version="1.1" viewBox="0 0 406 512" width="406.0pt" height="512.0pt">
<path d="M 0.00 0.00 L 406.00 0.00 L 406.00 512.00 L 0.00 512.00 L 0.00 0.00 Z" fill="#ffffff" />
<path d="M 212.03 75.06 C 221.24 76.40 230.23 78.80 239.03 81.80 C 243.77 83.42 248.19 85.83 252.25 88.75 C 263.88 96.92 271.99 110.15 276.78 123.33 C 281.39 136.45 282.68 150.77 282.38 164.59 C 286.95 165.44 290.46 168.54 292.21 172.79 C 295.72 182.48 296.09 192.57 293.41 202.52 C 294.78 191.98 294.61 181.80 290.02 172.01 C 288.12 168.91 284.83 166.15 281.03 166.11 C 277.00 165.84 273.39 167.82 270.76 170.76 C 266.71 174.85 265.31 180.54 264.33 186.03 C 264.50 180.85 265.54 175.91 268.72 171.70 C 268.19 171.32 267.66 170.93 267.13 170.55 C 265.09 173.69 262.91 176.36 262.13 180.14 C 260.04 190.36 261.76 201.69 264.41 211.68 L 265.61 212.72 C 265.50 209.58 264.94 206.70 266.28 203.76 C 266.34 207.80 266.69 213.13 270.45 215.57 C 273.94 217.26 276.60 215.76 280.06 215.14 C 277.88 217.52 274.58 218.91 271.44 217.55 C 269.61 216.96 268.78 215.55 267.58 214.17 C 265.79 216.60 265.99 216.75 266.99 219.43 C 267.64 219.51 268.29 219.60 268.93 219.69 C 270.45 222.41 272.71 224.59 276.02 224.53 C 280.97 223.79 284.67 219.29 287.44 215.47 C 289.53 212.69 290.24 209.17 292.32 206.44 C 291.13 210.84 289.69 214.35 287.14 218.14 C 289.15 225.20 291.67 232.27 294.21 239.17 C 304.95 231.11 316.15 224.69 330.00 224.67 C 338.85 224.42 346.57 229.73 350.43 237.53 C 348.10 235.90 346.99 233.06 344.69 231.30 C 338.19 225.42 329.50 225.18 321.37 227.12 C 313.50 228.53 305.89 232.81 299.35 237.29 C 286.82 246.09 275.82 257.32 265.86 268.88 C 255.18 281.33 245.26 294.49 236.19 308.17 C 229.99 317.85 223.28 328.00 215.05 336.07 C 212.86 338.40 209.85 339.39 207.81 341.83 C 204.54 345.65 201.82 350.01 199.39 354.41 C 198.14 356.49 198.36 358.55 198.05 360.88 C 197.01 361.31 195.97 361.73 194.92 362.13 C 190.53 361.75 188.10 359.80 186.12 355.98 C 183.59 350.53 183.73 344.99 183.05 339.18 L 182.24 338.93 C 181.99 343.27 181.81 347.66 182.09 352.00 C 182.36 354.17 183.59 355.80 185.06 357.32 C 187.50 359.85 190.78 362.66 192.00 366.02 C 193.23 370.49 192.25 374.78 190.69 379.01 C 190.43 379.62 190.18 380.22 189.92 380.83 C 179.95 405.14 170.11 429.09 162.23 454.19 C 160.99 458.60 158.48 463.44 159.04 468.03 C 160.76 466.00 161.69 463.22 162.96 460.87 C 167.35 451.88 172.62 443.29 177.57 434.59 C 188.21 416.36 199.36 398.42 211.24 380.96 C 211.61 380.42 211.99 379.89 212.38 379.36 C 214.57 376.41 216.72 373.42 218.93 370.47 C 224.28 363.69 229.45 356.66 235.55 350.53 C 238.09 347.74 240.99 345.33 243.62 342.64 L 243.88 341.33 C 241.76 343.07 239.69 344.86 237.62 346.65 C 235.51 348.45 234.30 350.81 231.89 352.28 C 235.48 346.11 240.67 341.49 246.60 337.64 C 262.21 327.43 281.11 321.04 299.03 316.25 C 315.54 311.89 331.94 307.79 348.20 302.47 C 353.10 300.80 359.67 299.42 363.11 295.31 C 360.89 299.36 355.12 301.11 351.12 302.95 C 341.87 306.35 332.26 308.89 322.79 311.58 C 321.04 312.17 319.70 314.17 318.48 315.49 C 310.40 325.55 303.48 336.62 296.39 347.40 C 295.48 348.77 294.63 350.16 293.87 351.62 C 296.66 353.09 299.44 354.47 299.73 357.99 C 299.37 361.16 296.95 362.84 294.46 364.42 C 288.97 367.73 282.82 369.18 277.19 372.20 C 258.13 382.13 240.74 395.38 226.27 411.27 C 221.21 416.57 216.62 422.33 211.97 427.99 C 198.78 444.60 186.45 461.91 174.79 479.62 C 174.10 480.70 173.43 481.79 172.72 482.85 L 171.64 482.86 C 172.04 481.60 172.49 480.40 173.25 479.31 C 188.33 456.62 204.39 433.89 222.33 413.38 C 236.51 397.27 253.44 383.68 272.19 373.25 C 276.21 371.17 280.24 368.98 284.48 367.41 C 287.00 366.51 289.47 365.50 291.85 364.29 C 294.12 363.14 296.15 361.63 297.73 359.63 C 299.75 355.74 294.37 353.48 291.65 352.12 C 299.10 340.63 306.30 329.14 314.54 318.15 C 315.96 316.38 317.38 314.62 318.75 312.82 C 305.34 315.91 291.98 319.53 278.93 323.94 C 268.70 327.69 258.03 331.85 248.99 338.04 C 246.37 339.63 245.51 342.30 243.24 344.33 C 239.44 347.91 236.25 351.98 232.79 355.86 C 215.54 375.38 201.59 397.78 187.98 420.00 C 179.16 434.32 171.16 449.12 162.47 463.52 C 160.92 466.41 158.64 468.66 157.39 471.73 C 159.00 468.97 158.58 466.55 158.76 463.52 C 161.69 448.47 167.11 434.91 172.48 420.48 C 177.57 407.06 183.08 393.77 188.44 380.47 C 190.37 375.80 191.89 371.55 190.55 366.42 C 188.84 362.39 184.65 359.22 181.87 355.87 C 176.90 362.20 170.81 367.43 165.66 373.62 C 157.30 382.83 149.63 392.53 143.19 403.20 C 133.10 420.17 125.92 439.06 120.44 457.98 C 119.02 466.31 117.00 474.50 115.29 482.77 L 113.81 482.75 C 117.84 464.32 122.17 445.36 123.21 426.49 C 123.98 418.51 124.15 409.28 120.91 401.80 C 119.98 402.74 119.07 403.69 118.16 404.65 C 120.12 411.18 116.36 416.65 112.35 421.39 C 102.87 431.69 89.73 438.92 76.97 444.35 C 78.83 442.49 81.10 441.57 83.40 440.42 C 92.14 435.99 100.36 431.31 107.69 424.74 C 112.42 420.41 117.34 414.59 118.16 408.01 C 118.39 406.28 118.03 405.27 117.08 404.98 C 115.70 411.56 112.72 417.41 106.46 420.47 C 100.68 422.95 93.94 423.32 88.48 427.51 C 86.80 428.75 85.80 431.14 83.95 432.04 C 79.89 432.96 75.83 431.70 72.28 429.74 C 65.57 425.86 60.41 419.69 57.56 412.50 C 56.36 409.15 53.82 406.85 52.31 403.68 C 49.88 398.93 48.90 393.93 47.81 388.77 C 46.82 389.68 45.87 390.61 44.93 391.57 C 33.75 402.86 25.14 418.51 23.89 434.50 L 21.95 434.96 C 24.50 416.86 33.22 398.57 47.79 387.09 C 47.25 381.95 46.51 377.00 47.32 371.83 C 47.92 362.54 51.66 354.38 51.74 344.97 C 51.61 339.13 54.22 333.30 58.61 329.45 C 58.84 325.63 60.13 321.68 63.16 319.18 C 65.30 317.41 66.80 315.64 68.25 313.28 C 72.92 306.03 78.57 299.71 84.45 293.43 C 87.50 290.44 92.89 290.67 96.76 291.43 C 101.37 287.26 107.16 284.10 113.57 284.81 C 115.85 282.02 118.46 279.32 121.37 277.17 C 123.04 276.34 124.70 276.15 126.53 276.58 C 129.38 277.22 132.16 276.94 135.03 276.61 C 133.87 271.58 130.42 268.18 128.69 263.47 C 124.93 254.55 120.10 244.68 118.96 235.01 C 118.90 230.24 118.81 225.36 119.22 220.60 C 119.68 222.84 120.37 224.98 121.17 227.11 C 120.96 230.12 119.91 233.13 120.53 235.99 C 122.10 245.38 126.62 254.78 130.35 263.53 C 131.97 268.03 135.51 271.87 139.21 274.79 C 140.33 275.85 141.52 275.76 142.96 275.93 C 143.14 273.14 141.23 271.42 139.71 269.33 C 137.10 266.17 134.75 262.92 133.38 259.02 C 132.04 253.81 133.48 247.99 136.76 243.78 C 139.16 241.03 142.50 240.07 146.05 240.90 C 148.53 241.39 147.96 241.36 149.82 240.21 L 147.19 238.54 C 145.02 239.24 144.03 238.70 142.10 237.84 C 140.22 234.75 140.88 232.21 142.20 229.09 C 142.70 228.14 143.29 227.24 143.97 226.39 C 144.02 229.46 142.11 231.93 142.28 235.11 C 143.29 237.60 144.79 238.03 147.27 238.35 C 145.20 234.31 145.09 230.27 144.47 225.89 C 144.98 224.94 145.54 224.09 145.69 223.00 C 146.66 216.80 149.91 211.70 150.84 205.52 C 151.12 203.00 150.99 200.41 150.94 197.88 C 150.30 198.60 149.66 199.33 149.03 200.07 C 141.41 201.29 134.09 201.54 126.67 204.68 C 125.44 205.19 124.57 206.10 123.60 206.98 C 125.65 209.40 128.19 208.84 131.01 208.88 C 134.84 208.79 138.72 206.53 142.40 205.42 C 137.20 208.29 131.14 211.12 125.09 209.47 C 123.57 208.91 122.29 208.43 122.76 206.52 C 124.23 202.40 126.72 198.71 130.75 196.76 C 135.49 193.89 141.09 194.41 146.37 195.02 C 148.10 195.71 149.61 196.74 151.15 197.77 C 150.37 195.37 149.58 193.10 148.16 191.00 C 148.74 191.56 149.31 192.11 149.88 192.68 C 152.01 197.06 152.38 201.35 152.04 206.16 C 150.35 215.39 144.54 224.08 146.79 233.95 C 147.55 237.16 149.57 239.40 152.02 241.46 L 154.26 242.26 C 152.28 242.54 152.97 242.47 152.01 243.81 C 154.28 244.53 156.61 245.72 159.00 245.95 C 161.77 246.11 163.24 243.77 166.04 243.00 C 172.22 241.25 177.92 239.06 183.71 243.23 C 187.11 245.37 190.97 246.69 195.00 246.90 C 201.55 247.26 207.83 249.85 211.58 255.45 C 215.42 260.65 216.28 266.62 216.31 272.93 C 217.00 273.20 217.64 272.98 218.24 272.27 C 220.87 269.63 222.53 265.89 224.21 262.60 C 225.08 260.76 226.00 258.95 227.13 257.25 C 230.26 253.32 233.93 249.92 237.87 246.83 C 240.78 244.55 243.65 242.81 245.67 239.62 C 252.18 229.83 256.73 217.84 256.82 206.00 C 256.10 196.40 254.70 186.93 251.01 177.97 C 248.14 168.99 241.24 162.54 232.89 158.54 C 228.53 155.93 224.16 154.65 223.17 148.98 C 222.29 140.82 222.80 132.52 221.61 124.35 C 221.03 121.99 217.74 122.04 215.81 121.54 C 211.19 121.07 206.57 120.38 201.94 120.16 C 198.88 120.11 195.87 119.77 192.91 118.97 L 192.65 118.06 L 193.13 117.26 C 201.44 113.44 209.89 111.57 216.59 104.56 C 220.50 100.47 220.68 95.10 221.34 89.81 C 221.52 87.24 222.08 84.11 220.55 81.86 C 220.70 88.76 220.65 95.19 217.70 101.58 C 215.43 105.40 211.83 108.07 207.84 109.90 C 200.73 113.26 193.33 116.21 185.75 118.36 C 182.83 119.20 179.87 119.87 176.88 120.43 C 163.75 122.78 149.75 125.07 136.96 129.84 C 132.45 131.56 128.04 133.48 123.82 135.83 C 121.16 137.43 117.75 139.51 116.48 142.46 C 115.37 150.75 114.87 158.63 116.05 166.96 C 116.19 169.56 115.89 172.00 115.30 174.53 C 114.53 166.61 113.38 159.00 114.02 151.02 C 114.64 145.27 115.40 139.52 115.73 133.75 C 116.64 126.64 118.91 119.73 122.45 113.50 C 128.79 102.29 138.60 94.86 149.53 88.50 C 162.20 80.56 176.91 75.52 191.82 74.31 C 198.70 73.38 205.20 74.34 212.03 75.06 Z" fill="#000000" />
<path d="M 220.55 81.86 C 222.08 84.11 221.52 87.24 221.34 89.81 C 220.68 95.10 220.50 100.47 216.59 104.56 C 209.89 111.57 201.44 113.44 193.13 117.26 L 192.65 118.06 L 192.91 118.97 C 195.87 119.77 198.88 120.11 201.94 120.16 C 202.46 120.53 202.98 120.90 203.50 121.27 C 202.72 122.47 201.95 123.45 202.00 124.97 C 201.86 132.61 201.58 140.74 205.45 147.60 C 209.74 154.09 217.14 154.34 221.10 160.97 C 222.41 164.13 223.96 167.67 221.05 170.44 C 219.13 169.34 217.12 168.39 215.03 167.65 C 215.79 166.67 217.79 165.49 217.12 164.07 C 216.19 159.81 211.64 158.29 208.10 156.77 C 202.36 154.18 197.12 154.76 192.16 150.74 C 186.86 146.55 185.30 138.33 184.38 131.99 C 184.35 127.70 183.35 122.11 185.75 118.36 C 193.33 116.21 200.73 113.26 207.84 109.90 C 211.83 108.07 215.43 105.40 217.70 101.58 C 220.65 95.19 220.70 88.76 220.55 81.86 Z" fill="#eca58a" />
<path d="M 185.75 118.36 C 183.35 122.11 184.35 127.70 184.38 131.99 C 185.30 138.33 186.86 146.55 192.16 150.74 C 197.12 154.76 202.36 154.18 208.10 156.77 C 211.64 158.29 216.19 159.81 217.12 164.07 C 217.79 165.49 215.79 166.67 215.03 167.65 C 212.15 166.78 209.47 165.47 206.68 164.37 C 202.83 163.23 198.85 162.75 194.83 162.92 C 195.50 162.43 196.17 161.92 196.82 161.41 C 190.65 158.80 184.83 158.15 180.25 152.75 C 174.78 145.59 173.79 135.71 174.05 126.98 C 173.88 124.22 175.44 122.55 176.88 120.43 C 179.87 119.87 182.83 119.20 185.75 118.36 Z" fill="#f1bca3" />
<path d="M 201.94 120.16 C 206.57 120.38 211.19 121.07 215.81 121.54 C 217.74 122.04 221.03 121.99 221.61 124.35 C 222.80 132.52 222.29 140.82 223.17 148.98 C 224.16 154.65 228.53 155.93 232.89 158.54 C 232.09 161.60 232.41 164.65 231.82 167.74 C 231.25 170.78 230.56 173.80 229.89 176.82 C 229.00 176.59 228.12 176.36 227.23 176.13 C 225.33 174.08 223.22 172.21 221.05 170.44 C 223.96 167.67 222.41 164.13 221.10 160.97 C 217.14 154.34 209.74 154.09 205.45 147.60 C 201.58 140.74 201.86 132.61 202.00 124.97 C 201.95 123.45 202.72 122.47 203.50 121.27 C 202.98 120.90 202.46 120.53 201.94 120.16 Z" fill="#e69175" />
<path d="M 176.88 120.43 C 175.44 122.55 173.88 124.22 174.05 126.98 C 173.79 135.71 174.78 145.59 180.25 152.75 C 184.83 158.15 190.65 158.80 196.82 161.41 C 196.17 161.92 195.50 162.43 194.83 162.92 C 190.94 163.87 187.22 164.50 183.86 166.82 C 181.61 168.50 178.95 169.21 176.55 170.56 C 174.94 171.98 173.55 173.64 172.05 175.16 C 168.62 175.45 166.31 177.72 164.36 180.34 C 162.95 183.16 165.24 186.13 166.30 188.69 C 168.16 192.40 168.40 196.14 167.30 200.14 C 165.99 205.60 162.18 209.40 161.95 215.00 C 161.82 219.05 164.96 222.69 169.00 223.05 C 170.99 223.00 172.98 222.00 174.83 221.33 C 178.33 222.71 180.63 226.11 179.93 229.92 C 179.47 232.63 176.66 233.63 174.65 235.03 C 172.02 234.60 169.41 234.75 166.77 234.95 C 164.33 234.18 163.02 236.04 161.06 237.16 C 158.30 239.29 154.94 239.65 152.02 241.46 C 149.57 239.40 147.55 237.16 146.79 233.95 C 147.38 233.85 147.98 233.75 148.57 233.65 C 152.98 237.75 160.75 233.33 163.18 228.97 C 163.08 225.86 159.57 223.45 158.47 220.64 C 158.11 219.14 158.10 217.53 158.09 216.00 C 157.64 209.07 163.16 203.15 163.28 195.99 C 163.19 193.59 162.08 191.21 160.68 189.29 C 159.20 188.32 156.09 188.43 155.19 190.25 C 153.70 192.31 153.96 194.60 153.68 197.02 C 153.47 200.15 152.73 203.11 152.04 206.16 C 152.38 201.35 152.01 197.06 149.88 192.68 C 151.06 190.23 149.24 187.15 147.73 185.26 C 144.58 181.72 140.33 178.55 135.64 177.48 C 133.52 176.78 131.46 176.90 130.29 174.69 C 129.24 173.08 130.58 170.85 131.29 169.32 C 137.21 158.36 138.66 145.27 137.90 133.00 C 137.66 131.93 137.35 130.88 136.96 129.84 C 149.75 125.07 163.75 122.78 176.88 120.43 Z" fill="#f1c9b0" />
<path d="M 136.96 129.84 C 137.35 130.88 137.66 131.93 137.90 133.00 C 138.66 145.27 137.21 158.36 131.29 169.32 C 130.58 170.85 129.24 173.08 130.29 174.69 C 131.46 176.90 133.52 176.78 135.64 177.48 C 140.33 178.55 144.58 181.72 147.73 185.26 C 149.24 187.15 151.06 190.23 149.88 192.68 C 149.31 192.11 148.74 191.56 148.16 191.00 C 149.58 193.10 150.37 195.37 151.15 197.77 C 149.61 196.74 148.10 195.71 146.37 195.02 C 147.15 192.19 145.80 190.78 143.50 189.38 C 140.50 186.95 138.14 184.43 134.19 183.56 C 127.86 181.95 121.93 183.60 117.24 188.06 C 117.41 181.91 117.17 175.75 116.27 169.66 C 117.16 170.61 118.00 171.61 118.78 172.65 C 121.42 171.47 121.69 169.11 122.62 166.66 C 123.96 162.53 124.70 158.32 124.98 153.99 C 125.60 148.99 126.15 144.04 125.76 138.98 C 125.82 137.39 124.81 136.85 123.82 135.83 C 128.04 133.48 132.45 131.56 136.96 129.84 Z" fill="#f1baa1" />
<path d="M 115.73 133.75 C 115.40 139.52 114.64 145.27 114.02 151.02 C 113.38 159.00 114.53 166.61 115.30 174.53 C 115.82 178.67 115.98 182.84 115.89 187.01 C 115.96 190.68 113.67 193.36 113.67 197.00 C 113.61 199.38 115.06 201.78 115.80 204.03 C 116.98 207.66 120.63 209.70 119.91 213.95 C 118.29 211.94 116.31 210.20 114.86 208.08 C 113.09 205.08 112.26 201.44 111.83 198.01 C 111.23 193.19 113.78 189.07 113.71 184.01 C 114.07 178.45 111.78 173.65 111.46 168.11 C 109.83 156.98 110.31 145.84 113.96 135.15 L 115.73 133.75 Z" fill="#fadfd1" />
<path d="M 123.82 135.83 C 124.81 136.85 125.82 137.39 125.76 138.98 C 126.15 144.04 125.60 148.99 124.98 153.99 C 124.70 158.32 123.96 162.53 122.62 166.66 C 121.69 169.11 121.42 171.47 118.78 172.65 C 118.00 171.61 117.16 170.61 116.27 169.66 C 116.18 168.76 116.11 167.86 116.05 166.96 C 114.87 158.63 115.37 150.75 116.48 142.46 C 117.75 139.51 121.16 137.43 123.82 135.83 Z" fill="#eba589" />
<path d="M 57.92 138.92 C 60.58 139.01 61.87 141.00 63.42 142.83 C 64.27 142.03 65.13 141.24 65.99 140.46 C 68.97 142.00 72.22 142.07 75.34 143.19 C 72.26 145.40 71.57 148.59 69.84 151.77 C 68.53 154.81 66.37 157.88 65.97 161.19 C 68.57 158.57 69.31 154.19 71.21 151.06 L 72.30 150.51 C 72.14 151.70 71.88 152.88 71.53 154.05 C 71.89 155.33 72.27 156.61 72.63 157.88 C 72.68 156.85 72.73 155.81 72.78 154.78 L 74.08 154.70 C 74.05 156.98 74.14 158.67 72.19 160.17 C 71.47 159.07 70.75 157.96 70.04 156.86 C 70.01 158.58 70.00 160.30 70.00 162.03 C 70.78 162.40 71.55 162.80 72.31 163.21 C 70.87 167.21 68.14 170.72 66.81 174.83 C 67.48 174.36 68.15 173.88 68.81 173.40 C 69.12 176.00 70.28 175.88 72.28 176.84 C 73.09 175.42 73.63 173.05 75.32 172.55 C 74.99 174.31 74.18 176.07 74.11 177.86 C 75.12 179.07 76.70 177.98 78.03 177.94 L 78.30 180.19 C 81.38 175.78 82.90 170.32 85.65 165.65 C 85.88 164.83 87.39 163.33 85.77 163.14 C 84.04 165.88 83.13 169.15 81.14 171.70 C 81.01 170.46 80.88 169.22 80.76 167.97 C 79.95 168.07 79.14 168.17 78.33 168.28 L 78.35 170.22 C 77.40 170.69 76.45 171.14 75.48 171.58 C 75.96 169.98 76.47 168.40 76.96 166.81 C 74.29 169.11 73.40 174.20 70.01 175.62 C 70.35 173.39 70.05 171.25 69.99 169.02 C 70.60 169.56 71.21 170.09 71.82 170.63 C 72.60 169.15 73.37 167.65 74.11 166.15 C 73.39 166.52 72.68 166.90 71.97 167.29 C 71.35 164.20 73.95 164.08 76.26 163.75 C 75.90 164.58 75.54 165.41 75.17 166.24 C 75.69 165.82 76.21 165.39 76.73 164.97 C 75.60 162.27 75.82 161.59 77.82 159.43 C 78.37 159.73 78.93 160.02 79.48 160.32 C 79.65 159.57 79.83 158.82 80.00 158.07 C 81.29 157.26 82.58 156.44 83.87 155.64 C 84.47 157.23 85.93 158.24 84.07 159.64 C 84.00 160.04 83.98 160.53 84.02 161.12 C 83.67 161.29 83.32 161.45 82.97 161.62 C 83.05 163.25 82.48 164.66 82.09 166.22 C 83.22 164.60 83.75 162.66 85.02 161.16 C 86.12 161.78 87.21 162.40 88.30 163.02 C 85.91 168.08 83.33 173.02 81.17 178.19 C 80.57 179.21 80.28 181.11 78.99 181.36 C 74.54 179.90 70.20 178.43 66.20 175.94 C 61.19 175.69 57.60 172.70 52.89 171.42 C 49.93 170.80 48.10 168.71 44.90 168.94 C 43.92 164.62 47.69 160.22 49.34 156.34 C 50.87 154.19 51.08 150.12 54.54 150.94 C 51.53 153.90 50.23 157.61 48.28 161.24 C 47.20 163.45 45.90 165.32 45.92 167.89 C 47.31 167.97 48.70 168.04 50.09 168.10 C 50.06 165.80 48.37 164.41 48.97 162.09 C 50.36 162.00 51.76 161.90 53.15 161.79 C 52.78 160.41 51.91 159.59 50.96 158.60 C 51.51 157.27 52.17 156.12 53.03 154.96 C 54.08 154.92 55.13 154.88 56.18 154.82 C 55.68 153.87 55.16 152.91 54.64 151.96 C 56.06 152.05 57.46 152.03 58.86 151.90 C 58.69 151.19 58.52 150.49 58.35 149.79 C 55.59 148.51 54.18 147.96 53.34 144.82 C 53.27 146.28 52.81 147.19 51.97 147.55 C 51.53 143.38 53.83 139.91 57.92 138.92 Z" fill="#c2c1c2" />
<path d="M 60.07 140.88 C 62.33 142.11 61.78 143.71 62.06 145.91 L 61.19 145.87 C 61.11 142.61 60.92 142.51 58.02 141.08 C 56.65 141.75 55.27 142.40 53.87 143.00 C 55.43 141.24 57.73 138.82 60.07 140.88 Z" fill="#e1e1e1" />
<path d="M 66.14 142.03 C 66.81 142.29 67.43 142.68 68.01 143.18 C 66.20 147.67 64.52 152.21 62.68 156.68 C 61.68 158.53 60.78 161.23 58.17 159.95 C 58.69 158.61 59.02 157.36 59.06 155.91 C 60.20 156.59 61.16 156.65 61.95 156.10 C 62.42 154.29 58.57 153.30 59.06 155.91 C 58.33 156.66 57.58 157.40 56.82 158.12 C 57.04 155.59 58.50 153.90 59.73 151.80 C 61.76 148.56 63.67 144.95 66.14 142.03 Z" fill="#f5f5f5" />
<path d="M 71.08 142.82 C 70.76 145.63 68.87 148.23 67.81 150.84 C 66.31 153.92 65.30 157.51 63.22 160.21 C 64.61 154.69 67.08 149.69 69.66 144.65 C 70.02 143.98 70.50 143.37 71.08 142.82 Z" fill="#efefef" />
<path d="M 54.92 144.12 C 56.38 144.22 57.84 144.33 59.30 144.43 C 59.36 145.66 59.42 146.88 59.48 148.11 C 57.09 147.98 54.68 146.91 54.92 144.12 Z" fill="#d5d5d5" />
<path d="M 74.14 145.32 L 74.77 145.19 L 74.85 145.87 L 74.22 146.00 L 74.14 145.32 Z" fill="#696969" />
<path d="M 78.13 144.75 C 80.11 145.80 79.98 146.66 80.17 148.70 C 81.89 149.21 83.02 149.19 83.14 151.34 C 82.48 150.89 81.82 150.43 81.17 149.97 C 80.15 151.79 78.92 153.44 77.69 155.11 C 77.19 156.43 78.93 158.05 79.40 159.25 C 78.37 159.22 77.34 159.19 76.31 159.17 C 75.38 160.69 75.22 164.16 72.68 163.29 C 73.53 161.36 75.07 159.86 75.70 157.78 C 76.49 155.84 75.54 153.76 74.92 151.91 C 75.59 150.53 76.15 149.58 77.51 148.79 C 77.31 150.27 77.08 151.75 76.89 153.24 C 79.50 151.28 79.15 148.72 78.93 145.80 C 77.27 146.36 75.88 147.79 74.43 148.77 C 75.01 146.75 76.54 145.88 78.13 144.75 Z" fill="#8c8c8c" />
<path d="M 65.02 145.76 C 65.12 147.97 63.88 150.05 62.87 151.96 L 61.31 152.08 C 62.41 149.82 63.27 147.64 65.02 145.76 Z" fill="#616161" />
<path d="M 81.67 151.28 C 81.93 152.50 82.34 153.66 82.88 154.76 C 81.55 155.87 80.67 158.55 78.64 157.20 C 79.52 156.21 80.99 155.35 81.37 154.05 C 81.06 152.83 81.16 151.91 81.67 151.28 Z" fill="#6d6d6d" />
<path d="M 61.95 156.10 C 61.16 156.65 60.20 156.59 59.06 155.91 C 58.57 153.30 62.42 154.29 61.95 156.10 Z" fill="#a9a9a9" />
<path d="M 88.65 155.34 C 88.94 156.11 89.05 156.93 88.98 157.81 C 87.66 157.44 86.34 157.07 85.02 156.73 C 84.68 155.77 88.19 154.64 88.65 155.34 Z" fill="#8c8c8c" />
<path d="M 54.04 156.17 C 55.49 156.49 55.60 158.57 54.82 159.57 C 53.24 160.09 52.09 156.48 54.04 156.17 Z" fill="#fcfcfc" />
<path d="M 60.14 157.32 C 61.16 157.14 61.41 157.68 60.87 158.94 C 59.82 159.13 59.58 158.59 60.14 157.32 Z" fill="#908f8f" />
<path d="M 87.34 158.64 C 89.03 160.24 86.62 161.63 85.12 161.02 C 84.71 160.21 86.29 157.17 87.34 158.64 Z" fill="#888888" />
<path d="M 232.89 158.54 C 241.24 162.54 248.14 168.99 251.01 177.97 C 254.70 186.93 256.10 196.40 256.82 206.00 C 256.73 217.84 252.18 229.83 245.67 239.62 C 243.65 242.81 240.78 244.55 237.87 246.83 C 233.93 249.92 230.26 253.32 227.13 257.25 C 225.72 255.24 225.03 253.58 224.69 251.13 C 222.94 239.59 224.47 227.73 229.04 217.00 C 231.05 212.91 232.50 209.01 235.77 205.75 C 238.39 203.09 240.13 199.55 240.80 195.90 C 240.79 190.37 235.42 184.54 229.63 186.50 C 223.88 188.12 221.53 193.41 215.92 194.86 C 212.09 195.66 207.91 194.49 203.99 195.02 C 196.69 196.10 189.49 196.02 182.40 198.43 C 181.42 197.66 180.40 196.94 179.37 196.22 C 179.23 193.92 179.81 191.78 180.29 189.56 C 178.49 190.04 177.71 192.58 177.05 194.13 C 176.52 196.69 177.94 198.22 179.96 199.44 C 178.61 200.86 177.26 202.01 176.83 204.03 C 176.28 207.50 176.97 211.14 176.41 214.59 C 175.56 218.09 171.76 219.84 168.44 219.49 C 166.42 218.08 164.97 216.69 165.23 214.02 C 164.73 208.44 169.69 204.99 171.11 199.95 C 171.83 195.88 171.30 191.99 170.64 187.96 C 170.58 185.35 172.75 182.58 173.82 180.24 L 173.01 179.16 C 181.99 179.12 190.91 175.56 199.93 175.13 C 200.64 176.12 201.34 177.10 202.05 178.08 C 194.92 177.27 188.54 179.00 183.57 184.33 C 182.68 184.39 181.79 184.61 180.92 184.98 C 181.81 186.75 182.23 189.70 184.90 188.83 L 187.62 188.12 C 187.77 189.01 187.93 189.90 188.08 190.78 C 188.77 191.18 189.45 191.58 190.13 191.98 C 197.98 190.02 205.11 193.60 211.37 187.82 L 212.29 189.84 C 215.23 191.48 217.01 188.67 218.89 186.89 C 221.14 184.16 224.09 182.66 227.07 180.88 C 226.12 180.04 225.20 179.21 224.12 178.55 C 226.32 179.09 228.47 179.10 227.23 176.13 C 228.12 176.36 229.00 176.59 229.89 176.82 C 230.56 173.80 231.25 170.78 231.82 167.74 C 232.41 164.65 232.09 161.60 232.89 158.54 Z" fill="#eba387" />
<path d="M 68.65 160.21 C 68.98 161.47 69.31 162.73 69.65 163.98 C 68.80 163.98 67.95 163.98 67.10 163.98 C 65.95 166.62 64.08 169.22 63.78 172.05 C 63.15 172.73 62.53 173.41 61.92 174.09 C 61.33 173.58 60.73 173.08 60.14 172.58 C 61.21 172.14 62.15 171.56 62.97 170.84 C 63.38 169.42 62.81 168.70 61.27 168.68 C 62.21 167.83 62.92 166.97 63.53 165.85 C 64.06 166.03 64.59 166.22 65.12 166.40 C 64.89 165.24 64.64 164.08 64.39 162.92 C 65.21 162.93 66.03 162.94 66.85 162.93 C 67.47 162.04 68.05 161.12 68.65 160.21 Z" fill="#e6e6e6" />
<path d="M 56.03 160.61 C 56.00 162.45 55.03 163.72 54.22 165.28 C 53.17 167.07 52.61 168.84 51.00 170.19 C 52.40 167.04 53.50 163.03 56.03 160.61 Z" fill="#f2f2f2" />
<path d="M 57.54 160.89 C 58.30 161.31 59.03 161.79 59.73 162.33 C 57.99 164.86 56.97 167.91 54.95 170.20 C 55.38 166.81 57.83 164.49 57.54 160.89 Z" fill="#f2f2f2" />
<path d="M 61.37 161.49 L 61.96 161.05 C 62.48 164.38 60.65 166.50 59.26 169.29 C 58.63 170.47 58.06 171.44 56.91 172.19 C 57.97 168.30 60.92 165.64 61.37 161.49 Z" fill="#f4f4f4" />
<path d="M 78.87 162.15 L 79.13 162.34 C 79.65 163.23 81.36 164.65 80.82 165.66 C 78.86 166.78 76.67 163.39 78.87 162.15 Z" fill="#e0e0e0" />
<path d="M 50.34 163.08 C 51.88 162.30 53.26 164.56 51.32 164.88 C 50.34 164.36 50.02 163.76 50.34 163.08 Z" fill="#fafafa" />
<path d="M 194.83 162.92 C 198.85 162.75 202.83 163.23 206.68 164.37 C 209.47 165.47 212.15 166.78 215.03 167.65 C 217.12 168.39 219.13 169.34 221.05 170.44 C 223.22 172.21 225.33 174.08 227.23 176.13 C 228.47 179.10 226.32 179.09 224.12 178.55 C 219.67 177.33 215.71 175.22 211.02 174.82 C 207.25 174.09 203.67 174.66 199.93 175.13 C 190.91 175.56 181.99 179.12 173.01 179.16 L 171.93 178.89 C 171.81 177.62 171.85 176.38 172.05 175.16 C 173.55 173.64 174.94 171.98 176.55 170.56 C 178.95 169.21 181.61 168.50 183.86 166.82 C 187.22 164.50 190.94 163.87 194.83 162.92 Z" fill="#000000" />
<path d="M 69.01 165.02 C 67.86 168.23 66.22 171.29 64.43 174.20 L 63.78 172.05 C 66.44 171.21 65.95 166.32 69.01 165.02 Z" fill="#f5f4f5" />
<path d="M 78.21 166.21 L 78.79 166.21 L 78.79 166.79 L 78.21 166.79 L 78.21 166.21 Z" fill="#ffffff" />
<path d="M 281.03 166.11 C 284.83 166.15 288.12 168.91 290.02 172.01 C 294.61 181.80 294.78 191.98 293.41 202.52 L 293.29 203.13 C 291.79 203.32 291.17 205.29 292.55 206.05 L 292.32 206.44 C 290.24 209.17 289.53 212.69 287.44 215.47 C 284.67 219.29 280.97 223.79 276.02 224.53 C 272.71 224.59 270.45 222.41 268.93 219.69 C 268.29 219.60 267.64 219.51 266.99 219.43 C 265.99 216.75 265.79 216.60 267.58 214.17 C 268.78 215.55 269.61 216.96 271.44 217.55 C 274.58 218.91 277.88 217.52 280.06 215.14 C 276.60 215.76 273.94 217.26 270.45 215.57 C 266.69 213.13 266.34 207.80 266.28 203.76 C 264.94 206.70 265.50 209.58 265.61 212.72 L 264.41 211.68 C 261.76 201.69 260.04 190.36 262.13 180.14 C 262.91 176.36 265.09 173.69 267.13 170.55 C 267.66 170.93 268.19 171.32 268.72 171.70 C 265.54 175.91 264.50 180.85 264.33 186.03 C 265.31 180.54 266.71 174.85 270.76 170.76 C 273.39 167.82 277.00 165.84 281.03 166.11 Z" fill="#f1c6ad" />
<path d="M 71.97 167.29 C 72.32 168.61 72.05 169.25 71.15 169.21 C 70.61 168.19 70.88 167.55 71.97 167.29 Z" fill="#4a4a4a" />
<path d="M 116.05 166.96 C 116.11 167.86 116.18 168.76 116.27 169.66 C 117.17 175.75 117.41 181.91 117.24 188.06 C 121.93 183.60 127.86 181.95 134.19 183.56 C 138.14 184.43 140.50 186.95 143.50 189.38 C 142.89 189.95 142.23 190.34 141.51 190.55 C 136.46 191.72 131.09 192.38 126.25 194.26 C 122.63 196.29 119.29 199.57 117.12 203.10 C 117.46 205.64 120.44 207.30 121.21 209.92 L 121.75 211.21 C 120.87 215.16 121.23 219.15 120.52 223.13 C 122.41 222.60 122.52 219.65 123.47 218.05 C 122.75 221.08 121.88 224.08 121.17 227.11 C 120.37 224.98 119.68 222.84 119.22 220.60 C 119.47 218.39 119.72 216.17 119.91 213.95 C 120.63 209.70 116.98 207.66 115.80 204.03 C 115.06 201.78 113.61 199.38 113.67 197.00 C 113.67 193.36 115.96 190.68 115.89 187.01 C 115.98 182.84 115.82 178.67 115.30 174.53 C 115.89 172.00 116.19 169.56 116.05 166.96 Z" fill="#0f0909" />
<path d="M 271.93 167.41 L 271.47 169.26 C 270.47 169.28 269.97 168.81 269.99 167.85 L 271.93 167.41 Z" fill="#6c5b51" />
<path d="M 79.92 169.39 C 80.15 171.00 78.75 173.15 77.62 174.19 L 76.98 174.24 C 76.78 172.84 77.77 171.45 78.35 170.22 C 78.86 169.91 79.38 169.64 79.92 169.39 Z" fill="#787777" />
<path d="M 281.19 170.56 C 284.94 170.30 290.27 172.17 290.55 176.55 C 287.33 173.26 282.96 169.93 278.19 172.26 C 274.31 173.59 270.65 177.74 273.17 181.85 C 274.41 182.19 276.02 182.23 277.07 183.00 C 277.36 184.87 274.24 185.14 272.97 185.17 C 272.29 183.93 271.68 182.67 271.23 181.33 C 270.71 175.53 275.49 170.72 281.19 170.56 Z" fill="#7d6052" />
<path d="M 80.16 172.16 L 80.80 172.04 L 80.84 172.85 L 80.20 172.97 L 80.16 172.16 Z" fill="#000000" />
<path d="M 250.26 171.47 C 254.88 171.40 259.53 171.22 264.13 171.58 C 262.83 174.48 261.43 177.25 260.59 180.33 C 258.22 180.39 255.89 180.35 253.54 180.70 C 252.78 178.72 252.02 176.74 251.33 174.73 C 250.97 173.64 250.61 172.56 250.26 171.47 Z" fill="#565658" />
<path d="M 278.19 172.26 C 282.96 169.93 287.33 173.26 290.55 176.55 L 290.64 176.91 L 289.55 178.57 C 287.99 178.16 286.43 177.94 284.87 177.91 C 284.99 180.51 286.25 182.43 287.11 184.82 C 285.04 187.65 281.75 188.83 279.55 191.56 C 277.30 189.37 275.31 187.21 272.23 186.20 C 271.55 189.20 272.19 191.93 272.97 194.85 L 269.87 193.24 C 269.33 192.79 268.80 192.35 268.26 191.90 C 270.71 189.55 267.29 187.02 268.16 184.27 C 268.58 182.56 269.86 182.16 271.23 181.33 C 271.68 182.67 272.29 183.93 272.97 185.17 C 274.24 185.14 277.36 184.87 277.07 183.00 C 276.02 182.23 274.41 182.19 273.17 181.85 C 270.65 177.74 274.31 173.59 278.19 172.26 Z" fill="#ecb396" />
<path d="M 76.27 174.46 L 76.98 174.24 L 77.24 174.92 L 76.27 174.46 Z" fill="#7a7a7a" />
<path d="M 79.94 173.75 C 79.58 175.12 79.17 176.54 78.62 177.85 L 78.03 177.94 C 77.27 176.64 78.23 173.56 79.94 173.75 Z" fill="#535353" />
<path d="M 172.05 175.16 C 171.85 176.38 171.81 177.62 171.93 178.89 L 173.01 179.16 L 173.82 180.24 C 172.75 182.58 170.58 185.35 170.64 187.96 C 171.30 191.99 171.83 195.88 171.11 199.95 C 169.69 204.99 164.73 208.44 165.23 214.02 C 164.97 216.69 166.42 218.08 168.44 219.49 C 171.76 219.84 175.56 218.09 176.41 214.59 C 176.97 211.14 176.28 207.50 176.83 204.03 C 177.26 202.01 178.61 200.86 179.96 199.44 C 180.79 199.96 181.63 200.47 182.47 200.97 C 180.83 203.29 178.92 204.89 179.06 207.98 C 178.53 211.91 180.06 216.22 178.84 219.97 L 176.74 218.89 C 179.46 222.67 183.33 226.02 184.23 230.97 C 184.85 234.37 181.73 237.14 178.88 238.33 L 178.38 237.77 C 177.31 236.35 176.31 235.67 174.65 235.03 C 176.66 233.63 179.47 232.63 179.93 229.92 C 180.63 226.11 178.33 222.71 174.83 221.33 C 172.98 222.00 170.99 223.00 169.00 223.05 C 164.96 222.69 161.82 219.05 161.95 215.00 C 162.18 209.40 165.99 205.60 167.30 200.14 C 168.40 196.14 168.16 192.40 166.30 188.69 C 165.24 186.13 162.95 183.16 164.36 180.34 C 166.31 177.72 168.62 175.45 172.05 175.16 Z" fill="#f1b9a1" />
<path d="M 199.93 175.13 C 203.67 174.66 207.25 174.09 211.02 174.82 C 215.71 175.22 219.67 177.33 224.12 178.55 C 225.20 179.21 226.12 180.04 227.07 180.88 C 224.09 182.66 221.14 184.16 218.89 186.89 C 217.01 188.67 215.23 191.48 212.29 189.84 L 211.37 187.82 C 212.25 186.02 212.79 185.09 212.04 183.14 C 207.09 181.57 201.33 180.38 196.17 181.23 C 191.03 182.38 189.74 187.61 184.90 188.83 C 182.23 189.70 181.81 186.75 180.92 184.98 C 181.79 184.61 182.68 184.39 183.57 184.33 C 185.29 184.47 186.22 183.40 187.66 182.67 C 194.27 179.18 201.90 178.87 209.02 180.89 C 211.86 181.71 214.52 182.96 217.42 183.60 C 212.63 180.70 207.55 178.99 202.05 178.08 C 201.34 177.10 200.64 176.12 199.93 175.13 Z" fill="#e69376" />
<path d="M 75.88 176.12 L 76.56 176.11 L 76.59 176.77 L 75.91 176.78 L 75.88 176.12 Z" fill="#737272" />
<path d="M 202.05 178.08 C 207.55 178.99 212.63 180.70 217.42 183.60 C 214.52 182.96 211.86 181.71 209.02 180.89 C 201.90 178.87 194.27 179.18 187.66 182.67 C 186.22 183.40 185.29 184.47 183.57 184.33 C 188.54 179.00 194.92 177.27 202.05 178.08 Z" fill="#614035" />
<path d="M 284.87 177.91 C 286.43 177.94 287.99 178.16 289.55 178.57 L 290.64 176.91 C 291.80 181.13 291.50 185.67 291.27 190.01 C 290.72 196.54 289.80 202.70 285.24 207.74 C 286.52 205.50 288.29 203.08 288.82 200.55 C 289.69 195.20 288.90 189.89 287.11 184.82 C 286.25 182.43 284.99 180.51 284.87 177.91 Z" fill="#35231e" />
<path d="M 260.59 180.33 C 259.75 183.81 259.99 187.52 259.92 191.16 C 259.63 189.47 259.25 187.79 258.90 186.11 C 257.69 186.12 256.49 186.12 255.28 186.13 C 254.81 184.29 254.20 182.49 253.54 180.70 C 255.89 180.35 258.22 180.39 260.59 180.33 Z" fill="#7b7c7f" />
<path d="M 196.17 181.23 C 201.33 180.38 207.09 181.57 212.04 183.14 C 212.79 185.09 212.25 186.02 211.37 187.82 C 205.11 193.60 197.98 190.02 190.13 191.98 C 189.45 191.58 188.77 191.18 188.08 190.78 C 187.93 189.90 187.77 189.01 187.62 188.12 L 184.90 188.83 C 189.74 187.61 191.03 182.38 196.17 181.23 Z" fill="#000000" />
<path d="M 196.18 181.91 C 196.47 185.32 196.65 188.29 200.02 190.07 C 198.37 190.32 196.72 190.58 195.06 190.82 C 192.37 189.64 193.11 186.35 192.57 183.94 C 193.77 183.26 194.97 182.59 196.18 181.91 Z" fill="#ebecec" />
<path d="M 192.57 183.94 C 193.11 186.35 192.37 189.64 195.06 190.82 C 192.11 191.26 190.01 192.20 188.09 189.16 C 189.10 186.84 190.67 185.49 192.57 183.94 Z" fill="#d2d3d5" />
<path d="M 204.06 186.76 C 206.32 185.43 205.97 185.71 207.75 187.27 C 208.27 186.05 208.63 184.22 209.70 183.37 C 210.83 183.78 211.26 184.64 211.00 185.93 C 209.97 187.37 208.57 188.05 207.12 188.99 C 206.59 188.67 206.05 188.35 205.52 188.03 C 204.06 189.05 200.77 190.68 199.93 188.26 C 201.23 188.20 202.18 187.85 202.78 187.20 L 200.05 186.81 C 198.93 182.91 204.61 183.63 204.06 186.76 Z" fill="#c0bfbd" />
<path d="M 240.80 195.90 C 240.13 199.55 238.39 203.09 235.77 205.75 C 232.50 209.01 231.05 212.91 229.04 217.00 C 224.47 227.73 222.94 239.59 224.69 251.13 C 225.03 253.58 225.72 255.24 227.13 257.25 C 226.00 258.95 225.08 260.76 224.21 262.60 L 222.46 261.50 C 220.66 256.30 219.75 250.73 219.45 245.25 C 219.55 239.49 220.65 233.72 221.24 228.00 C 222.13 219.55 225.36 211.34 230.69 204.71 C 232.59 202.14 235.50 199.28 235.80 195.97 C 235.16 193.28 233.17 190.40 230.00 190.95 C 226.81 191.12 224.60 194.29 221.98 195.93 C 216.51 199.23 210.44 201.14 204.01 201.22 C 197.58 202.53 191.40 201.41 184.95 201.53 C 184.12 200.48 183.29 199.43 182.40 198.43 C 189.49 196.02 196.69 196.10 203.99 195.02 C 207.91 194.49 212.09 195.66 215.92 194.86 C 221.53 193.41 223.88 188.12 229.63 186.50 C 235.42 184.54 240.79 190.37 240.80 195.90 Z" fill="#f0b69d" />
<path d="M 255.28 186.13 C 256.49 186.12 257.69 186.12 258.90 186.11 C 259.25 187.79 259.63 189.47 259.92 191.16 C 259.94 192.45 259.95 193.75 259.97 195.04 C 259.18 192.86 259.07 191.33 256.36 191.01 C 256.02 189.38 255.67 187.75 255.28 186.13 Z" fill="#919396" />
<path d="M 272.23 186.20 C 275.31 187.21 277.30 189.37 279.55 191.56 C 281.46 193.49 284.22 196.68 283.59 199.60 C 283.03 202.22 280.89 202.65 278.88 203.89 C 276.25 205.02 274.63 209.34 272.03 210.03 C 269.38 208.18 272.03 204.99 272.96 202.91 C 274.97 199.61 272.34 195.48 269.87 193.24 L 272.97 194.85 C 272.19 191.93 271.55 189.20 272.23 186.20 Z" fill="#331910" />
<path d="M 143.50 189.38 C 145.80 190.78 147.15 192.19 146.37 195.02 C 141.09 194.41 135.49 193.89 130.75 196.76 C 126.72 198.71 124.23 202.40 122.76 206.52 C 122.29 208.43 123.57 208.91 125.09 209.47 C 123.80 209.62 122.50 209.77 121.21 209.92 C 120.44 207.30 117.46 205.64 117.12 203.10 C 119.29 199.57 122.63 196.29 126.25 194.26 C 131.09 192.38 136.46 191.72 141.51 190.55 C 142.23 190.34 142.89 189.95 143.50 189.38 Z" fill="#eca589" />
<path d="M 160.68 189.29 C 162.08 191.21 163.19 193.59 163.28 195.99 C 163.16 203.15 157.64 209.07 158.09 216.00 C 158.10 217.53 158.11 219.14 158.47 220.64 C 159.57 223.45 163.08 225.86 163.18 228.97 C 160.75 233.33 152.98 237.75 148.57 233.65 C 147.98 233.75 147.38 233.85 146.79 233.95 C 144.54 224.08 150.35 215.39 152.04 206.16 C 152.73 203.11 153.47 200.15 153.68 197.02 C 153.96 194.60 153.70 192.31 155.19 190.25 C 156.09 188.43 159.20 188.32 160.68 189.29 Z" fill="#f2d9c8" />
<path d="M 180.29 189.56 C 179.81 191.78 179.23 193.92 179.37 196.22 C 180.40 196.94 181.42 197.66 182.40 198.43 C 183.29 199.43 184.12 200.48 184.95 201.53 C 184.06 201.49 183.28 201.37 182.47 200.97 C 181.63 200.47 180.79 199.96 179.96 199.44 C 177.94 198.22 176.52 196.69 177.05 194.13 C 177.71 192.58 178.49 190.04 180.29 189.56 Z" fill="#594943" />
<path d="M 230.00 190.95 C 233.17 190.40 235.16 193.28 235.80 195.97 C 235.50 199.28 232.59 202.14 230.69 204.71 C 225.36 211.34 222.13 219.55 221.24 228.00 C 220.65 233.72 219.55 239.49 219.45 245.25 C 219.75 250.73 220.66 256.30 222.46 261.50 L 224.21 262.60 C 222.53 265.89 220.87 269.63 218.24 272.27 C 217.64 272.98 217.00 273.20 216.31 272.93 C 216.28 266.62 215.42 260.65 211.58 255.45 C 207.83 249.85 201.55 247.26 195.00 246.90 C 190.97 246.69 187.11 245.37 183.71 243.23 C 185.20 242.06 187.59 240.91 188.11 238.97 C 188.56 235.44 188.25 231.82 188.50 228.26 C 192.95 233.01 196.73 238.40 201.13 243.16 C 200.19 240.23 198.27 237.95 196.45 235.49 C 193.70 231.93 190.61 228.20 186.82 225.72 L 186.14 225.27 C 185.75 225.80 185.36 226.34 184.98 226.88 C 183.73 224.15 181.01 221.99 178.84 219.97 C 180.06 216.22 178.53 211.91 179.06 207.98 C 178.92 204.89 180.83 203.29 182.47 200.97 C 183.28 201.37 184.06 201.49 184.95 201.53 C 191.40 201.41 197.58 202.53 204.01 201.22 C 210.44 201.14 216.51 199.23 221.98 195.93 C 224.60 194.29 226.81 191.12 230.00 190.95 Z" fill="#f1c7af" />
<path d="M 256.36 191.01 C 259.07 191.33 259.18 192.86 259.97 195.04 C 260.53 199.94 261.00 204.99 262.43 209.73 C 261.39 209.57 260.35 209.41 259.32 209.25 C 258.93 207.78 258.52 206.31 258.21 204.83 C 257.76 200.24 257.09 195.56 256.36 191.01 Z" fill="#a8aaad" />
<path d="M 134.74 195.93 C 134.76 197.53 134.81 199.13 134.91 200.72 C 131.02 201.71 127.30 202.38 123.97 204.79 C 125.71 200.38 130.46 197.50 134.74 195.93 Z" fill="#e9e9ea" />
<path d="M 143.11 199.02 C 141.94 201.18 139.22 199.22 140.64 197.55 C 141.77 196.09 142.76 198.02 143.11 199.02 Z" fill="#a8a8a9" />
<path d="M 147.11 197.15 C 148.90 196.08 150.08 198.72 147.96 199.18 C 146.84 198.92 146.56 198.24 147.11 197.15 Z" fill="#8a8b8d" />
<path d="M 150.94 197.88 C 150.99 200.41 151.12 203.00 150.84 205.52 C 149.91 211.70 146.66 216.80 145.69 223.00 C 145.54 224.09 144.98 224.94 144.47 225.89 C 145.09 230.27 145.20 234.31 147.27 238.35 C 144.79 238.03 143.29 237.60 142.28 235.11 C 142.11 231.93 144.02 229.46 143.97 226.39 C 143.29 227.24 142.70 228.14 142.20 229.09 C 140.22 228.37 138.49 227.44 136.39 228.46 C 132.34 231.39 129.10 235.59 127.50 240.35 C 126.04 246.02 127.08 251.98 130.00 257.01 C 130.78 258.67 131.72 258.68 133.38 259.02 C 134.75 262.92 137.10 266.17 139.71 269.33 C 141.23 271.42 143.14 273.14 142.96 275.93 C 141.52 275.76 140.33 275.85 139.21 274.79 C 135.51 271.87 131.97 268.03 130.35 263.53 C 126.62 254.78 122.10 245.38 120.53 235.99 C 119.91 233.13 120.96 230.12 121.17 227.11 C 121.88 224.08 122.75 221.08 123.47 218.05 C 122.52 219.65 122.41 222.60 120.52 223.13 C 121.23 219.15 120.87 215.16 121.75 211.21 L 121.21 209.92 C 122.50 209.77 123.80 209.62 125.09 209.47 C 125.19 210.19 125.31 210.91 125.42 211.63 C 128.85 213.19 132.54 213.65 136.08 212.19 C 139.84 210.62 143.25 208.02 146.24 205.30 C 147.44 203.78 148.08 201.76 149.03 200.07 C 149.66 199.33 150.30 198.60 150.94 197.88 Z" fill="#f1c7af" />
<path d="M 149.03 200.07 C 148.08 201.76 147.44 203.78 146.24 205.30 C 141.21 207.41 137.83 210.91 132.02 211.17 C 129.95 211.63 127.20 210.51 125.42 211.63 C 125.31 210.91 125.19 210.19 125.09 209.47 C 131.14 211.12 137.20 208.29 142.40 205.42 C 138.72 206.53 134.84 208.79 131.01 208.88 C 128.19 208.84 125.65 209.40 123.60 206.98 C 124.57 206.10 125.44 205.19 126.67 204.68 C 134.09 201.54 141.41 201.29 149.03 200.07 Z" fill="#efb59b" />
<path d="M 293.29 203.13 C 293.33 204.27 293.09 205.24 292.55 206.05 C 291.17 205.29 291.79 203.32 293.29 203.13 Z" fill="#907e73" />
<path d="M 219.02 204.05 C 220.44 204.04 221.73 204.47 221.88 206.06 C 222.78 211.81 218.28 214.62 217.42 220.63 C 216.06 226.18 218.40 233.41 214.92 237.97 C 211.61 241.74 204.25 242.34 201.47 237.60 C 198.18 232.10 195.39 226.85 190.18 222.85 C 186.83 220.28 183.82 217.85 182.50 213.65 C 181.46 210.32 183.52 206.66 187.09 206.29 C 194.79 205.64 202.17 207.39 209.89 205.79 C 213.03 205.08 215.68 203.78 219.02 204.05 Z" fill="#f2dac8" />
<path d="M 146.24 205.30 C 143.25 208.02 139.84 210.62 136.08 212.19 C 132.54 213.65 128.85 213.19 125.42 211.63 C 127.20 210.51 129.95 211.63 132.02 211.17 C 137.83 210.91 141.21 207.41 146.24 205.30 Z" fill="#59473f" />
<path d="M 258.21 204.83 C 258.52 206.31 258.93 207.78 259.32 209.25 C 260.35 209.41 261.39 209.57 262.43 209.73 C 262.76 210.80 263.08 211.86 263.40 212.93 L 262.99 214.56 C 261.14 214.61 259.28 214.63 257.43 214.75 C 258.17 211.41 258.03 208.23 258.21 204.83 Z" fill="#7c7d80" />
<path d="M 263.40 212.93 C 264.03 214.95 264.69 216.95 265.36 218.95 L 264.84 220.74 C 262.30 220.92 259.76 220.92 257.22 220.73 L 256.51 218.92 C 256.82 217.53 257.13 216.14 257.43 214.75 C 259.28 214.63 261.14 214.61 262.99 214.56 L 263.40 212.93 Z" fill="#636365" />
<path d="M 151.61 218.98 C 151.86 221.51 151.85 224.18 152.53 226.64 C 153.15 228.87 154.53 230.45 153.88 232.86 C 152.18 232.77 150.73 232.98 149.45 231.63 C 147.13 228.91 147.61 224.81 148.59 221.64 C 149.26 219.98 149.84 219.35 151.61 218.98 Z" fill="#f9efe8" />
<path d="M 176.74 218.89 L 178.84 219.97 C 181.01 221.99 183.73 224.15 184.98 226.88 C 186.16 229.36 187.14 231.95 185.73 234.58 C 184.60 237.19 182.36 238.01 179.99 239.20 L 178.88 238.33 C 181.73 237.14 184.85 234.37 184.23 230.97 C 183.33 226.02 179.46 222.67 176.74 218.89 Z" fill="#3d332e" />
<path d="M 256.51 218.92 L 257.22 220.73 C 259.76 220.92 262.30 220.92 264.84 220.74 L 265.36 218.95 C 266.24 221.44 267.33 223.61 267.41 226.32 C 263.28 226.51 259.18 226.62 255.05 226.26 C 255.11 223.71 255.78 221.34 256.51 218.92 Z" fill="#474749" />
<path d="M 285.91 219.79 C 288.25 226.60 290.36 233.48 293.02 240.18 C 285.05 246.34 277.96 253.37 271.02 260.61 C 272.21 256.43 273.44 252.39 273.49 248.00 C 274.05 238.80 271.30 230.60 267.88 222.22 C 268.11 221.58 268.34 220.94 268.58 220.30 C 269.89 223.36 272.56 225.63 276.01 225.49 C 280.31 225.46 283.05 222.56 285.91 219.79 Z" fill="#f1c9b0" />
<path d="M 186.14 225.27 L 186.82 225.72 C 187.37 226.57 187.93 227.42 188.50 228.26 C 188.25 231.82 188.56 235.44 188.11 238.97 C 187.59 240.91 185.20 242.06 183.71 243.23 C 177.92 239.06 172.22 241.25 166.04 243.00 C 163.24 243.77 161.77 246.11 159.00 245.95 C 156.61 245.72 154.28 244.53 152.01 243.81 C 152.97 242.47 152.28 242.54 154.26 242.26 L 152.02 241.46 C 154.94 239.65 158.30 239.29 161.06 237.16 C 163.02 236.04 164.33 234.18 166.77 234.95 C 164.33 236.76 161.87 238.22 161.52 241.54 C 164.60 239.95 167.39 238.47 170.99 238.70 C 173.69 238.66 176.29 240.00 178.38 237.77 L 178.88 238.33 L 179.99 239.20 C 182.36 238.01 184.60 237.19 185.73 234.58 C 187.14 231.95 186.16 229.36 184.98 226.88 C 185.36 226.34 185.75 225.80 186.14 225.27 Z" fill="#edac91" />
<path d="M 186.82 225.72 C 190.61 228.20 193.70 231.93 196.45 235.49 C 198.27 237.95 200.19 240.23 201.13 243.16 C 196.73 238.40 192.95 233.01 188.50 228.26 C 187.93 227.42 187.37 226.57 186.82 225.72 Z" fill="#6c5a50" />
<path d="M 344.69 231.30 C 346.99 233.06 348.10 235.90 350.43 237.53 L 350.73 238.04 L 350.15 238.33 L 350.44 238.89 L 351.04 238.59 L 351.79 239.97 C 350.32 240.94 350.51 241.51 352.34 241.68 C 353.03 243.69 353.30 245.59 354.79 247.21 C 357.04 249.91 359.01 252.72 360.73 255.80 C 359.17 256.57 360.64 259.20 361.63 259.85 L 362.40 259.79 L 362.60 260.31 C 362.02 261.02 361.90 261.90 362.23 262.95 C 363.15 266.88 363.85 270.92 364.00 274.96 C 362.74 276.18 361.72 278.27 359.66 277.41 C 355.21 275.85 350.64 275.92 346.00 276.25 C 342.61 276.60 339.37 278.57 335.98 279.13 C 334.05 279.33 332.83 277.87 332.82 276.02 C 332.52 270.45 335.21 265.30 337.22 260.29 C 338.83 256.29 336.56 250.80 339.27 247.25 C 341.93 246.50 344.63 247.35 347.29 246.11 L 347.79 245.94 C 346.84 245.48 345.90 245.02 344.96 244.55 L 344.29 243.35 C 342.33 243.03 340.31 242.98 338.36 242.58 C 336.35 241.38 335.05 238.37 332.38 239.40 C 329.51 240.07 326.41 239.82 323.63 240.66 C 320.61 242.38 318.18 245.29 315.81 247.80 C 312.90 250.96 311.26 255.18 308.22 258.17 C 304.67 261.43 300.58 261.68 296.44 263.58 C 292.71 265.37 290.59 268.83 286.04 267.96 C 286.00 266.40 285.71 265.04 286.59 263.64 C 290.31 257.36 296.25 252.95 299.27 246.34 C 301.10 242.53 302.92 239.00 306.37 236.37 C 309.77 233.80 312.76 231.22 316.89 229.88 C 318.66 229.13 320.37 228.98 321.37 227.12 C 329.50 225.18 338.19 225.42 344.69 231.30 Z" fill="#a9abb0" />
<path d="M 321.37 227.12 C 320.37 228.98 318.66 229.13 316.89 229.88 C 312.76 231.22 309.77 233.80 306.37 236.37 C 302.92 239.00 301.10 242.53 299.27 246.34 C 296.25 252.95 290.31 257.36 286.59 263.64 C 285.71 265.04 286.00 266.40 286.04 267.96 C 290.59 268.83 292.71 265.37 296.44 263.58 C 300.58 261.68 304.67 261.43 308.22 258.17 C 311.26 255.18 312.90 250.96 315.81 247.80 C 318.18 245.29 320.61 242.38 323.63 240.66 C 326.41 239.82 329.51 240.07 332.38 239.40 C 335.05 238.37 336.35 241.38 338.36 242.58 C 340.31 242.98 342.33 243.03 344.29 243.35 L 344.96 244.55 C 338.92 243.20 332.13 244.79 326.83 247.86 C 316.75 253.05 307.79 259.83 299.56 267.58 C 282.50 282.45 265.99 298.07 248.98 312.99 C 234.16 325.11 221.53 340.08 216.75 359.02 C 215.84 361.38 215.30 363.78 214.61 366.21 C 210.29 366.80 208.64 370.54 203.99 369.83 C 199.05 369.60 199.80 363.02 194.92 362.13 C 195.97 361.73 197.01 361.31 198.05 360.88 C 198.36 358.55 198.14 356.49 199.39 354.41 C 201.82 350.01 204.54 345.65 207.81 341.83 C 209.85 339.39 212.86 338.40 215.05 336.07 C 223.28 328.00 229.99 317.85 236.19 308.17 C 245.26 294.49 255.18 281.33 265.86 268.88 C 275.82 257.32 286.82 246.09 299.35 237.29 C 305.89 232.81 313.50 228.53 321.37 227.12 Z" fill="#b5b7bd" />
<path d="M 136.39 228.46 C 138.49 227.44 140.22 228.37 142.20 229.09 C 140.88 232.21 140.22 234.75 142.10 237.84 C 144.03 238.70 145.02 239.24 147.19 238.54 L 149.82 240.21 C 147.96 241.36 148.53 241.39 146.05 240.90 C 142.50 240.07 139.16 241.03 136.76 243.78 C 133.48 247.99 132.04 253.81 133.38 259.02 C 131.72 258.68 130.78 258.67 130.00 257.01 C 127.08 251.98 126.04 246.02 127.50 240.35 C 129.10 235.59 132.34 231.39 136.39 228.46 Z" fill="#eeaf94" />
<path d="M 172.30 231.11 C 173.21 230.60 175.83 230.23 175.86 231.79 C 175.09 233.51 172.31 233.07 172.30 231.11 Z" fill="#fbefe8" />
<path d="M 174.65 235.03 C 176.31 235.67 177.31 236.35 178.38 237.77 C 176.29 240.00 173.69 238.66 170.99 238.70 C 167.39 238.47 164.60 239.95 161.52 241.54 C 161.87 238.22 164.33 236.76 166.77 234.95 C 169.41 234.75 172.02 234.60 174.65 235.03 Z" fill="#5b453b" />
<path d="M 138.88 236.00 C 138.91 236.84 138.27 239.93 137.18 239.70 C 136.27 238.37 137.08 235.95 138.88 236.00 Z" fill="#a47a69" />
<path d="M 168.06 236.08 C 171.39 236.04 174.22 235.21 176.70 237.99 C 172.46 237.45 168.88 237.39 164.65 238.15 C 165.63 237.13 166.67 236.42 168.06 236.08 Z" fill="#e2a58d" />
<path d="M 350.15 238.33 L 350.73 238.04 L 351.04 238.59 L 350.44 238.89 L 350.15 238.33 Z" fill="#414244" />
<path d="M 351.79 239.97 L 352.34 241.68 C 350.51 241.51 350.32 240.94 351.79 239.97 Z" fill="#757679" />
<path d="M 344.96 244.55 C 345.90 245.02 346.84 245.48 347.79 245.94 L 347.29 246.11 C 342.27 243.84 337.32 244.60 332.28 246.32 C 318.94 252.24 308.30 261.10 297.76 270.99 C 279.86 286.61 262.74 303.24 244.46 318.41 C 233.79 328.33 224.71 339.08 219.36 352.81 C 218.63 354.64 218.07 356.52 217.52 358.42 L 216.75 359.02 C 221.53 340.08 234.16 325.11 248.98 312.99 C 265.99 298.07 282.50 282.45 299.56 267.58 C 307.79 259.83 316.75 253.05 326.83 247.86 C 332.13 244.79 338.92 243.20 344.96 244.55 Z" fill="#5c5c5e" />
<path d="M 347.29 246.11 C 344.63 247.35 341.93 246.50 339.27 247.25 C 336.56 250.80 338.83 256.29 337.22 260.29 C 335.21 265.30 332.52 270.45 332.82 276.02 C 332.83 277.87 334.05 279.33 335.98 279.13 C 339.37 278.57 342.61 276.60 346.00 276.25 C 350.64 275.92 355.21 275.85 359.66 277.41 C 361.72 278.27 362.74 276.18 364.00 274.96 C 364.25 280.41 363.39 286.22 364.60 291.54 C 363.67 294.70 363.98 297.77 363.98 301.00 C 363.92 313.33 364.21 325.66 364.48 337.98 C 364.69 371.36 365.09 404.73 364.56 438.11 C 364.45 453.02 363.93 467.90 363.87 482.81 C 300.11 482.81 236.48 482.78 172.72 482.85 C 173.43 481.79 174.10 480.70 174.79 479.62 C 176.18 480.98 176.85 482.00 178.96 481.82 C 185.77 481.68 192.85 482.29 199.59 481.56 C 203.99 476.61 207.56 470.89 211.79 465.78 C 229.81 442.37 248.09 418.78 267.75 396.74 C 274.47 388.88 281.49 381.06 290.03 375.09 C 294.29 372.24 299.74 369.98 303.29 366.28 C 305.47 363.89 307.25 360.18 307.69 356.98 C 307.52 353.74 304.14 352.90 302.30 350.71 C 301.31 348.34 303.20 346.26 304.27 344.30 C 308.82 337.22 313.40 330.11 318.42 323.36 C 320.52 320.32 323.80 319.35 326.84 316.86 C 331.23 313.33 335.74 310.96 341.14 309.35 C 344.90 308.25 348.37 306.68 351.76 304.76 C 351.55 304.15 351.34 303.55 351.12 302.95 C 355.12 301.11 360.89 299.36 363.11 295.31 C 359.67 299.42 353.10 300.80 348.20 302.47 C 331.94 307.79 315.54 311.89 299.03 316.25 C 281.11 321.04 262.21 327.43 246.60 337.64 C 240.67 341.49 235.48 346.11 231.89 352.28 C 234.30 350.81 235.51 348.45 237.62 346.65 C 239.69 344.86 241.76 343.07 243.88 341.33 L 243.62 342.64 C 240.99 345.33 238.09 347.74 235.55 350.53 C 229.45 356.66 224.28 363.69 218.93 370.47 C 218.15 369.60 217.06 368.79 216.55 367.71 C 216.81 364.61 217.44 361.55 217.52 358.42 C 218.07 356.52 218.63 354.64 219.36 352.81 C 220.50 352.88 221.60 352.82 222.67 352.62 C 227.34 348.73 231.11 343.68 235.98 339.98 C 243.04 333.96 251.37 329.34 259.97 325.93 C 271.29 320.33 284.17 316.84 296.35 313.37 C 308.70 309.76 321.32 307.20 333.64 303.48 C 339.71 301.86 345.67 300.07 351.35 297.35 C 353.94 296.10 356.18 293.71 356.93 290.90 C 357.23 285.03 352.10 279.75 346.08 281.12 C 341.63 282.74 337.03 287.49 331.99 288.00 C 329.97 288.32 328.30 287.52 327.44 285.67 C 326.34 282.57 325.66 279.38 326.22 276.09 C 326.93 272.28 326.14 268.14 325.68 264.26 C 323.08 261.41 319.25 261.54 315.88 262.81 C 310.21 265.11 304.70 267.95 299.74 271.54 C 299.08 271.36 298.42 271.18 297.76 270.99 C 308.30 261.10 318.94 252.24 332.28 246.32 C 337.32 244.60 342.27 243.84 347.29 246.11 Z" fill="#b7b9bf" />
<path d="M 174.84 253.33 C 182.49 255.84 188.78 260.48 196.50 262.59 C 198.81 263.37 201.60 263.95 203.56 265.46 C 203.87 266.14 203.75 266.70 203.22 267.14 C 201.02 269.52 198.55 271.64 196.32 273.99 C 196.15 273.06 195.97 272.14 195.78 271.22 L 193.83 270.51 C 196.28 269.51 198.89 268.38 201.00 266.77 C 201.06 265.44 200.40 264.85 199.03 265.01 C 192.00 265.27 185.10 263.92 178.01 262.95 C 174.29 262.75 170.72 263.66 166.99 263.22 C 163.67 263.14 160.54 262.07 157.25 261.82 C 156.78 262.80 156.22 263.69 155.56 264.50 C 153.94 265.22 151.67 264.76 150.07 265.72 C 152.35 266.02 154.64 265.94 156.93 266.11 C 159.21 267.05 160.20 270.46 161.57 272.37 C 159.17 275.31 156.63 278.14 154.25 281.10 C 150.12 275.38 146.98 269.14 144.62 262.50 C 143.81 259.41 143.13 256.19 146.39 254.33 C 152.02 252.91 158.79 256.01 164.00 258.03 C 167.50 258.46 170.54 252.37 174.84 253.33 Z" fill="#f5b9be" />
<path d="M 360.73 255.80 C 361.53 257.04 362.04 258.36 362.40 259.79 L 361.63 259.85 C 360.64 259.20 359.17 256.57 360.73 255.80 Z" fill="#6f7072" />
<path d="M 362.60 260.31 C 363.37 263.16 364.56 266.04 364.97 268.96 C 364.80 273.39 365.78 277.62 365.14 282.02 C 364.78 285.16 365.38 288.50 364.60 291.54 C 363.39 286.22 364.25 280.41 364.00 274.96 C 363.85 270.92 363.15 266.88 362.23 262.95 C 361.90 261.90 362.02 261.02 362.60 260.31 Z" fill="#4a4a4b" />
<path d="M 157.25 261.82 C 160.54 262.07 163.67 263.14 166.99 263.22 C 170.72 263.66 174.29 262.75 178.01 262.95 C 185.10 263.92 192.00 265.27 199.03 265.01 C 200.40 264.85 201.06 265.44 201.00 266.77 C 198.89 268.38 196.28 269.51 193.83 270.51 C 186.00 272.94 177.22 278.10 169.00 276.94 C 166.98 276.46 165.08 275.37 163.15 274.58 C 160.84 277.50 158.87 280.09 158.34 283.91 C 158.30 282.50 158.27 281.10 158.22 279.69 C 160.16 277.36 161.90 274.90 163.55 272.35 C 165.92 274.36 168.82 275.24 171.84 275.71 C 173.37 275.89 174.33 275.28 175.42 274.27 C 175.94 274.53 176.45 274.78 176.97 275.04 C 178.70 274.31 180.40 273.57 182.21 273.04 C 184.16 272.33 186.79 272.51 187.29 270.04 C 187.80 270.35 188.31 270.66 188.82 270.97 C 190.60 270.28 192.39 269.61 194.16 268.92 C 193.78 267.81 193.38 266.70 192.97 265.60 C 192.12 265.76 191.27 265.93 190.42 266.09 C 189.57 265.76 188.72 265.44 187.86 265.14 C 186.77 265.06 185.67 265.01 184.58 264.97 C 184.67 268.23 187.04 266.60 189.27 267.12 C 186.81 269.41 183.44 269.11 180.80 271.23 C 177.21 270.79 173.51 272.27 170.00 273.03 C 168.11 272.30 166.25 271.75 164.25 271.40 C 164.69 270.81 165.14 270.23 165.59 269.66 C 169.07 270.89 171.55 271.93 174.81 269.43 C 174.40 267.90 174.04 266.38 173.74 264.86 C 171.51 264.96 169.28 265.02 167.04 265.05 L 167.01 266.79 L 166.38 266.85 C 166.19 265.97 165.99 265.09 165.80 264.21 C 164.22 264.10 162.65 264.01 161.07 263.97 C 161.70 266.07 162.51 267.85 163.81 269.63 C 163.05 270.54 162.31 271.46 161.57 272.37 C 160.20 270.46 159.21 267.05 156.93 266.11 C 154.64 265.94 152.35 266.02 150.07 265.72 C 151.67 264.76 153.94 265.22 155.56 264.50 C 156.22 263.69 156.78 262.80 157.25 261.82 Z" fill="#b1806d" />
<path d="M 325.68 264.26 C 326.14 268.14 326.93 272.28 326.22 276.09 C 325.66 279.38 326.34 282.57 327.44 285.67 C 328.30 287.52 329.97 288.32 331.99 288.00 C 337.03 287.49 341.63 282.74 346.08 281.12 C 352.10 279.75 357.23 285.03 356.93 290.90 C 356.18 293.71 353.94 296.10 351.35 297.35 C 345.67 300.07 339.71 301.86 333.64 303.48 C 321.32 307.20 308.70 309.76 296.35 313.37 C 284.17 316.84 271.29 320.33 259.97 325.93 C 251.37 329.34 243.04 333.96 235.98 339.98 C 231.11 343.68 227.34 348.73 222.67 352.62 C 221.60 352.82 220.50 352.88 219.36 352.81 C 224.71 339.08 233.79 328.33 244.46 318.41 C 262.74 303.24 279.86 286.61 297.76 270.99 C 298.42 271.18 299.08 271.36 299.74 271.54 C 304.70 267.95 310.21 265.11 315.88 262.81 C 319.25 261.54 323.08 261.41 325.68 264.26 Z" fill="#c4c4c4" />
<path d="M 161.07 263.97 C 162.65 264.01 164.22 264.10 165.80 264.21 C 165.99 265.09 166.19 265.97 166.38 266.85 C 165.50 267.75 164.64 268.68 163.81 269.63 C 162.51 267.85 161.70 266.07 161.07 263.97 Z" fill="#f9e2d6" />
<path d="M 174.53 263.95 C 175.63 264.01 176.72 264.10 177.82 264.20 C 179.98 264.62 182.13 265.01 184.34 265.12 C 184.20 266.79 184.22 267.78 182.56 268.59 C 180.18 269.36 177.44 270.01 174.94 269.51 C 174.92 267.64 174.77 265.80 174.53 263.95 Z" fill="#f9e3d7" />
<path d="M 167.04 265.05 C 169.28 265.02 171.51 264.96 173.74 264.86 C 174.04 266.38 174.40 267.90 174.81 269.43 C 171.55 271.93 169.07 270.89 165.59 269.66 C 166.06 269.07 166.53 268.48 166.98 267.89 L 167.01 266.79 L 167.04 265.05 Z" fill="#fbeae1" />
<path d="M 184.58 264.97 C 185.67 265.01 186.77 265.06 187.86 265.14 C 188.72 265.44 189.57 265.76 190.42 266.09 C 191.27 265.93 192.12 265.76 192.97 265.60 C 193.38 266.70 193.78 267.81 194.16 268.92 C 192.39 269.61 190.60 270.28 188.82 270.97 C 188.31 270.66 187.80 270.35 187.29 270.04 C 186.79 272.51 184.16 272.33 182.21 273.04 C 181.74 272.44 181.27 271.84 180.80 271.23 C 183.44 269.11 186.81 269.41 189.27 267.12 C 187.04 266.60 184.67 268.23 184.58 264.97 Z" fill="#f9e1d4" />
<path d="M 166.38 266.85 L 167.01 266.79 L 166.98 267.89 C 166.53 268.48 166.06 269.07 165.59 269.66 C 165.14 270.23 164.69 270.81 164.25 271.40 L 163.55 272.35 C 161.90 274.90 160.16 277.36 158.22 279.69 C 157.33 280.73 156.43 281.76 155.54 282.79 C 155.09 282.24 154.67 281.68 154.25 281.10 C 156.63 278.14 159.17 275.31 161.57 272.37 C 162.31 271.46 163.05 270.54 163.81 269.63 C 164.64 268.68 165.50 267.75 166.38 266.85 Z" fill="#eae14c" />
<path d="M 180.80 271.23 C 181.27 271.84 181.74 272.44 182.21 273.04 C 180.40 273.57 178.70 274.31 176.97 275.04 C 176.45 274.78 175.94 274.53 175.42 274.27 C 174.33 275.28 173.37 275.89 171.84 275.71 C 168.82 275.24 165.92 274.36 163.55 272.35 L 164.25 271.40 C 166.25 271.75 168.11 272.30 170.00 273.03 C 173.51 272.27 177.21 270.79 180.80 271.23 Z" fill="#fef7f2" />
<path d="M 193.83 270.51 L 195.78 271.22 C 195.97 272.14 196.15 273.06 196.32 273.99 C 191.69 278.44 188.17 284.09 183.41 288.36 C 179.03 292.15 173.63 292.51 168.12 291.73 C 162.81 290.26 159.09 286.81 155.54 282.79 C 156.43 281.76 157.33 280.73 158.22 279.69 C 158.27 281.10 158.30 282.50 158.34 283.91 C 158.87 280.09 160.84 277.50 163.15 274.58 C 165.08 275.37 166.98 276.46 169.00 276.94 C 177.22 278.10 186.00 272.94 193.83 270.51 Z" fill="#f7bac6" />
<path d="M 146.16 279.46 C 144.36 280.13 142.67 280.62 141.27 282.01 C 139.15 280.87 137.15 279.61 135.40 277.95 C 139.16 276.75 142.75 277.75 146.16 279.46 Z" fill="#efb496" />
<path d="M 124.96 277.94 C 128.53 278.48 131.83 278.65 135.40 277.95 C 137.15 279.61 139.15 280.87 141.27 282.01 C 141.55 282.67 141.83 283.34 142.10 284.01 C 144.70 285.07 146.51 284.37 148.96 283.30 C 149.33 284.49 150.27 286.08 149.11 287.13 C 146.55 289.58 142.48 290.81 138.99 290.69 C 136.11 290.69 133.70 287.90 130.98 287.70 C 129.28 287.81 128.59 289.00 127.45 290.05 C 125.02 289.11 122.63 288.50 120.05 288.17 C 126.27 290.19 132.07 292.96 136.33 298.08 C 134.84 298.93 133.34 299.78 131.91 300.73 C 133.56 300.03 135.16 299.24 136.76 298.43 C 140.10 301.74 143.33 305.07 146.08 308.90 C 142.95 308.57 141.00 308.26 139.06 311.09 C 137.98 315.16 140.05 318.81 143.10 321.38 C 145.73 319.76 147.69 317.36 150.29 315.69 C 152.54 320.61 146.92 326.49 141.97 325.62 C 137.32 324.25 133.55 321.17 130.00 317.99 C 126.05 314.07 123.69 309.31 119.45 305.60 C 114.49 301.16 108.03 297.36 101.78 295.06 C 105.75 297.85 109.91 300.38 113.87 303.19 C 116.63 304.88 118.55 307.44 121.21 309.26 C 119.34 310.31 117.50 311.32 115.96 312.83 C 117.69 311.81 119.41 310.76 121.18 309.80 C 124.17 313.25 126.75 317.00 129.87 320.34 C 128.59 320.56 127.30 320.78 126.01 321.00 C 124.85 324.39 125.81 328.59 127.17 331.81 C 128.76 334.08 131.20 331.81 132.16 330.18 C 133.38 327.96 134.66 327.21 136.91 326.16 C 139.47 329.62 136.43 335.33 132.92 336.86 C 130.68 336.99 127.13 337.40 125.49 335.50 C 120.72 330.57 115.42 326.27 110.95 321.03 C 106.84 316.07 99.78 314.87 94.19 311.78 C 90.44 309.63 86.34 308.04 81.99 309.26 C 78.84 309.94 77.51 312.24 75.03 314.05 C 72.46 316.02 70.23 318.13 68.11 320.58 C 70.38 318.25 72.84 316.13 75.25 313.94 C 76.16 314.21 76.84 314.53 77.48 315.24 C 77.74 310.56 81.29 309.54 85.31 308.97 C 84.23 310.79 83.07 312.37 82.39 314.38 C 83.42 312.54 84.54 310.88 85.90 309.28 C 88.23 309.76 90.45 310.24 92.45 311.58 C 96.98 314.52 102.55 315.91 107.07 318.87 C 110.42 321.56 112.93 325.24 116.05 328.22 C 111.24 331.24 113.55 338.56 118.82 339.12 C 119.76 337.30 120.34 335.52 122.07 334.26 C 125.38 335.56 122.92 340.50 120.50 341.50 C 117.89 342.29 114.82 342.05 112.16 341.60 C 104.61 339.63 98.28 334.66 94.06 328.15 C 94.87 329.88 95.88 331.49 96.89 333.10 C 90.75 333.08 86.17 330.17 81.18 327.10 C 81.96 327.76 82.76 328.40 83.59 329.00 C 80.08 332.07 76.31 334.93 72.30 337.30 C 69.63 338.97 65.59 336.94 63.09 338.64 C 64.88 339.13 66.77 339.73 68.64 339.63 C 70.13 339.57 71.62 339.48 73.10 339.37 C 73.52 340.58 73.94 341.80 74.36 343.01 C 73.61 344.02 72.86 345.04 72.06 346.02 C 68.88 345.96 65.90 346.31 62.82 345.32 C 61.11 344.78 59.54 344.99 57.87 345.49 C 62.33 346.29 66.38 347.54 71.00 347.14 C 72.14 347.60 73.19 348.23 74.21 348.91 C 72.63 351.07 71.04 353.16 70.10 355.71 C 69.31 356.04 68.54 356.41 67.78 356.81 C 68.71 356.74 69.63 356.66 70.56 356.56 C 71.44 357.30 72.34 358.00 73.27 358.68 C 73.01 361.91 72.30 364.24 70.83 367.09 C 72.59 368.59 74.36 369.54 74.87 371.98 C 75.36 374.16 77.13 374.83 78.52 376.39 C 79.50 380.14 78.95 383.59 78.35 387.33 C 78.08 388.47 79.03 389.75 79.44 390.81 C 77.63 396.55 73.98 402.42 68.92 405.83 C 64.71 408.49 60.94 407.26 56.34 407.40 C 52.46 402.19 50.76 396.28 49.56 389.98 C 48.40 381.82 48.15 373.65 49.58 365.51 C 50.77 360.38 52.07 355.24 52.89 350.03 C 53.25 345.94 52.81 342.12 54.30 338.17 C 55.58 335.09 57.54 332.19 60.08 330.01 C 60.15 327.32 60.74 324.61 62.27 322.36 C 64.47 319.79 67.23 318.02 68.91 314.98 C 73.62 307.46 79.52 300.98 85.46 294.44 C 88.24 291.85 93.66 292.19 97.09 293.10 C 101.93 288.69 107.36 285.43 114.18 286.32 C 116.11 284.18 117.78 281.90 120.07 280.11 C 121.55 278.97 122.93 277.60 124.96 277.94 Z" fill="#f1c7af" />
<path d="M 168.75 279.06 C 169.08 281.47 169.08 283.85 168.88 286.27 C 165.88 284.15 167.23 281.59 168.75 279.06 Z" fill="#fce6ea" />
<path d="M 144.99 280.94 C 147.41 280.28 148.37 279.97 150.64 281.42 C 147.85 282.45 144.57 285.35 142.06 282.31 C 143.00 281.75 143.98 281.29 144.99 280.94 Z" fill="#f7dccc" />
<path d="M 173.84 280.81 C 174.04 283.28 174.07 285.71 173.90 288.19 C 171.92 286.48 171.62 282.47 173.84 280.81 Z" fill="#fcebee" />
<path d="M 151.98 282.48 C 153.28 284.79 154.43 286.78 153.31 289.48 C 150.69 294.10 145.30 296.74 140.10 294.76 C 136.37 293.97 134.68 290.87 131.12 292.03 C 129.90 291.37 128.68 290.69 127.45 290.05 C 128.59 289.00 129.28 287.81 130.98 287.70 C 133.70 287.90 136.11 290.69 138.99 290.69 C 142.48 290.81 146.55 289.58 149.11 287.13 C 150.27 286.08 149.33 284.49 148.96 283.30 C 149.95 282.99 150.96 282.72 151.98 282.48 Z" fill="#ebb193" />
<path d="M 136.80 295.95 C 140.50 295.88 143.28 297.82 147.03 296.54 C 150.02 300.16 148.69 303.21 146.79 306.91 C 143.47 303.28 140.10 299.60 136.80 295.95 Z" fill="#eebca1" />
<path d="M 133.82 297.02 C 134.11 298.32 131.04 298.98 130.08 298.84 C 130.13 297.37 132.66 296.22 133.82 297.02 Z" fill="#b59280" />
<path d="M 150.25 299.83 C 155.60 306.11 160.82 314.18 167.48 319.51 C 172.29 323.65 177.90 326.73 184.27 327.54 L 184.28 328.25 C 182.99 333.59 180.88 338.38 180.53 343.97 C 180.01 347.64 180.61 351.16 181.04 354.79 C 178.55 357.71 175.92 360.49 173.21 363.21 C 159.24 378.09 146.41 392.76 137.15 411.15 C 131.49 421.75 127.27 432.94 123.08 444.17 C 122.84 440.34 124.06 436.80 124.17 433.01 C 124.37 428.64 125.25 424.39 125.06 420.00 C 125.05 413.88 125.15 406.19 121.89 400.79 C 124.18 398.28 126.43 395.98 127.93 392.89 C 132.39 383.89 136.30 374.67 140.78 365.68 C 144.47 357.97 142.26 351.16 142.49 343.00 C 142.17 337.54 143.99 332.79 144.49 327.43 C 148.02 325.98 150.93 323.87 152.08 320.05 C 153.04 316.09 149.65 311.59 147.35 308.61 C 148.96 305.71 150.51 303.32 150.25 299.83 Z" fill="#ffffff" />
<path d="M 351.12 302.95 C 351.34 303.55 351.55 304.15 351.76 304.76 C 348.37 306.68 344.90 308.25 341.14 309.35 C 335.74 310.96 331.23 313.33 326.84 316.86 C 323.80 319.35 320.52 320.32 318.42 323.36 C 313.40 330.11 308.82 337.22 304.27 344.30 C 303.20 346.26 301.31 348.34 302.30 350.71 C 304.14 352.90 307.52 353.74 307.69 356.98 C 307.25 360.18 305.47 363.89 303.29 366.28 C 299.74 369.98 294.29 372.24 290.03 375.09 C 281.49 381.06 274.47 388.88 267.75 396.74 C 248.09 418.78 229.81 442.37 211.79 465.78 C 207.56 470.89 203.99 476.61 199.59 481.56 C 192.85 482.29 185.77 481.68 178.96 481.82 C 176.85 482.00 176.18 480.98 174.79 479.62 C 186.45 461.91 198.78 444.60 211.97 427.99 C 216.62 422.33 221.21 416.57 226.27 411.27 C 240.74 395.38 258.13 382.13 277.19 372.20 C 282.82 369.18 288.97 367.73 294.46 364.42 C 296.95 362.84 299.37 361.16 299.73 357.99 C 299.44 354.47 296.66 353.09 293.87 351.62 C 294.63 350.16 295.48 348.77 296.39 347.40 C 303.48 336.62 310.40 325.55 318.48 315.49 C 319.70 314.17 321.04 312.17 322.79 311.58 C 332.26 308.89 341.87 306.35 351.12 302.95 Z" fill="#a5a7ac" />
<path d="M 236.05 305.21 C 230.13 315.46 223.09 325.33 215.04 334.04 C 212.63 336.85 209.04 337.90 206.71 340.71 C 203.33 344.72 200.48 349.37 197.87 353.91 C 196.64 355.81 196.95 357.70 196.81 359.84 C 193.66 361.45 190.75 359.81 188.55 357.46 C 191.34 352.35 194.66 347.52 197.32 342.34 C 199.41 338.50 199.18 333.83 196.83 330.19 C 195.46 328.63 194.09 329.08 192.26 329.24 C 192.63 332.39 193.75 336.38 192.36 339.35 C 190.30 342.62 187.88 345.85 184.94 348.38 C 184.14 344.95 183.95 341.50 183.57 338.00 C 183.12 334.66 184.68 331.63 184.28 328.25 L 184.27 327.54 C 189.17 328.62 193.70 327.64 198.48 326.53 C 212.15 322.74 224.98 313.87 236.05 305.21 Z" fill="#f0c8b0" />
<path d="M 117.90 308.10 C 118.40 309.32 115.87 310.01 115.00 309.90 C 114.96 308.56 116.71 307.34 117.90 308.10 Z" fill="#ac8672" />
<path d="M 142.02 309.83 C 145.72 308.49 148.26 311.83 149.77 314.72 C 147.37 316.40 145.52 318.67 143.08 320.27 C 141.86 318.67 140.26 317.05 139.97 315.00 C 139.50 312.88 139.70 310.65 142.02 309.83 Z" fill="#f9e3d7" />
<path d="M 318.75 312.82 C 317.38 314.62 315.96 316.38 314.54 318.15 C 313.00 318.24 311.51 318.24 310.06 318.88 C 303.12 321.87 295.78 323.62 288.82 326.59 C 282.34 328.73 275.93 331.00 269.58 333.51 C 257.59 339.24 246.45 344.28 237.09 354.10 C 235.88 355.55 234.54 355.58 232.79 355.86 C 236.25 351.98 239.44 347.91 243.24 344.33 C 245.51 342.30 246.37 339.63 248.99 338.04 C 258.03 331.85 268.70 327.69 278.93 323.94 C 291.98 319.53 305.34 315.91 318.75 312.82 Z" fill="#a0a1a5" />
<path d="M 314.54 318.15 C 306.30 329.14 299.10 340.63 291.65 352.12 C 294.37 353.48 299.75 355.74 297.73 359.63 C 296.15 361.63 294.12 363.14 291.85 364.29 C 291.67 362.56 291.77 360.85 291.75 359.12 C 290.86 355.68 288.56 352.81 289.01 349.00 C 290.54 339.87 297.70 334.46 300.02 326.12 C 297.76 325.88 296.06 326.00 293.98 326.95 C 286.85 329.91 279.37 331.96 272.66 335.66 C 265.99 339.02 259.53 341.81 253.79 346.79 C 250.78 349.62 247.42 351.55 244.83 354.80 C 242.32 357.98 239.61 360.89 236.79 363.79 C 230.01 372.08 223.42 380.49 217.19 389.20 C 210.14 399.87 202.85 410.33 196.35 421.34 C 193.46 426.75 189.96 431.77 187.27 437.30 C 182.13 446.40 177.04 456.42 174.52 466.63 C 174.01 468.41 174.01 470.19 174.10 472.03 C 176.07 471.91 176.56 470.97 177.38 469.36 C 180.38 461.83 184.68 454.76 188.82 447.80 C 194.51 439.76 200.27 431.20 207.21 424.21 C 209.59 421.23 211.89 418.30 214.75 415.74 C 220.74 410.10 226.10 403.61 232.68 398.66 C 243.09 388.70 255.55 380.42 267.67 372.67 C 271.64 369.99 276.03 368.35 280.38 366.41 C 282.06 365.53 282.97 366.80 284.48 367.41 C 280.24 368.98 276.21 371.17 272.19 373.25 C 253.44 383.68 236.51 397.27 222.33 413.38 C 204.39 433.89 188.33 456.62 173.25 479.31 C 172.49 480.40 172.04 481.60 171.64 482.86 C 152.86 482.71 134.07 482.89 115.29 482.77 C 117.00 474.50 119.02 466.31 120.44 457.98 C 125.92 439.06 133.10 420.17 143.19 403.20 C 149.63 392.53 157.30 382.83 165.66 373.62 C 170.81 367.43 176.90 362.20 181.87 355.87 C 184.65 359.22 188.84 362.39 190.55 366.42 C 191.89 371.55 190.37 375.80 188.44 380.47 C 183.08 393.77 177.57 407.06 172.48 420.48 C 167.11 434.91 161.69 448.47 158.76 463.52 C 158.58 466.55 159.00 468.97 157.39 471.73 C 158.64 468.66 160.92 466.41 162.47 463.52 C 171.16 449.12 179.16 434.32 187.98 420.00 C 201.59 397.78 215.54 375.38 232.79 355.86 C 234.54 355.58 235.88 355.55 237.09 354.10 C 246.45 344.28 257.59 339.24 269.58 333.51 C 275.93 331.00 282.34 328.73 288.82 326.59 C 295.78 323.62 303.12 321.87 310.06 318.88 C 311.51 318.24 313.00 318.24 314.54 318.15 Z" fill="#b7b9bf" />
<path d="M 130.21 321.19 C 132.10 322.54 133.71 324.25 135.56 325.66 C 132.81 326.81 132.00 329.02 130.21 331.10 C 130.17 328.98 130.13 327.03 128.94 325.18 C 128.04 324.68 127.13 324.18 126.21 323.70 L 126.17 322.78 C 127.30 321.59 128.65 321.05 130.21 321.19 Z" fill="#f9e3d7" />
<path d="M 126.21 323.70 C 127.13 324.18 128.04 324.68 128.94 325.18 C 130.13 327.03 130.17 328.98 130.21 331.10 L 128.87 332.29 C 126.74 329.79 126.79 326.82 126.21 323.70 Z" fill="#fdf4ef" />
<path d="M 138.52 325.43 C 140.03 325.90 141.55 326.33 143.09 326.72 C 143.01 327.84 142.90 328.96 142.76 330.07 C 142.31 329.40 141.86 328.73 141.39 328.07 C 139.77 333.84 138.75 339.99 139.04 346.00 C 139.05 349.40 139.69 352.62 137.56 355.55 C 135.35 358.60 133.48 361.57 132.44 365.24 C 130.55 361.47 127.61 358.79 124.57 355.97 C 126.43 354.14 128.88 352.51 130.25 350.27 C 131.50 347.51 132.20 344.16 131.84 341.14 C 131.25 340.00 129.83 339.27 128.82 338.53 C 136.14 340.32 141.32 331.62 138.52 325.43 Z" fill="#e7a689" />
<path d="M 300.02 326.12 C 297.70 334.46 290.54 339.87 289.01 349.00 C 288.56 352.81 290.86 355.68 291.75 359.12 C 291.77 360.85 291.67 362.56 291.85 364.29 C 289.47 365.50 287.00 366.51 284.48 367.41 C 282.97 366.80 282.06 365.53 280.38 366.41 C 276.03 368.35 271.64 369.99 267.67 372.67 C 255.55 380.42 243.09 388.70 232.68 398.66 C 226.10 403.61 220.74 410.10 214.75 415.74 C 211.89 418.30 209.59 421.23 207.21 424.21 C 200.27 431.20 194.51 439.76 188.82 447.80 C 184.68 454.76 180.38 461.83 177.38 469.36 C 176.56 470.97 176.07 471.91 174.10 472.03 C 174.01 470.19 174.01 468.41 174.52 466.63 C 177.04 456.42 182.13 446.40 187.27 437.30 C 189.96 431.77 193.46 426.75 196.35 421.34 C 202.85 410.33 210.14 399.87 217.19 389.20 C 223.42 380.49 230.01 372.08 236.79 363.79 C 239.61 360.89 242.32 357.98 244.83 354.80 C 247.42 351.55 250.78 349.62 253.79 346.79 C 259.53 341.81 265.99 339.02 272.66 335.66 C 279.37 331.96 286.85 329.91 293.98 326.95 C 296.06 326.00 297.76 325.88 300.02 326.12 Z" fill="#c3c3c4" />
<path d="M 141.39 328.07 C 141.86 328.73 142.31 329.40 142.76 330.07 C 141.75 334.71 140.66 339.21 140.99 344.00 C 140.75 350.56 142.14 355.68 140.70 361.82 C 138.50 367.83 135.16 373.68 132.56 379.56 C 131.42 376.26 132.64 372.04 130.92 369.10 C 129.50 368.61 129.27 371.19 128.76 372.03 C 126.22 368.37 122.73 366.22 120.61 362.37 C 119.23 360.01 118.70 357.48 118.05 354.86 C 119.41 355.30 120.79 355.64 122.17 355.97 C 124.37 358.42 126.96 360.47 129.12 362.94 C 131.07 365.18 132.27 367.87 134.09 370.27 C 133.80 368.43 133.28 366.89 132.44 365.24 C 133.48 361.57 135.35 358.60 137.56 355.55 C 139.69 352.62 139.05 349.40 139.04 346.00 C 138.75 339.99 139.77 333.84 141.39 328.07 Z" fill="#ecb79a" />
<path d="M 192.26 329.24 C 194.09 329.08 195.46 328.63 196.83 330.19 C 199.18 333.83 199.41 338.50 197.32 342.34 C 194.66 347.52 191.34 352.35 188.55 357.46 C 186.83 354.65 185.64 351.60 184.94 348.38 C 187.88 345.85 190.30 342.62 192.36 339.35 C 193.75 336.38 192.63 332.39 192.26 329.24 Z" fill="#e0baa5" />
<path d="M 83.59 329.00 C 84.91 329.89 86.21 330.78 87.34 331.91 C 82.29 337.72 75.83 338.60 68.64 339.63 C 66.77 339.73 64.88 339.13 63.09 338.64 C 65.59 336.94 69.63 338.97 72.30 337.30 C 76.31 334.93 80.08 332.07 83.59 329.00 Z" fill="#e4a98d" />
<path d="M 116.90 328.98 C 118.34 330.38 119.76 331.69 121.02 333.25 C 120.13 334.78 119.19 336.83 117.96 338.04 C 115.85 337.50 114.59 335.00 114.14 333.06 C 114.23 331.09 115.41 330.06 116.90 328.98 Z" fill="#fdf5f1" />
<path d="M 88.84 332.28 C 91.90 333.66 94.60 334.43 97.96 334.62 C 103.67 340.94 111.36 344.83 120.04 343.17 C 122.63 342.56 123.95 340.83 125.02 338.53 C 125.69 340.42 126.81 341.82 125.95 343.89 C 124.14 345.72 121.49 346.81 119.34 348.22 L 118.59 346.86 L 118.47 346.69 L 118.38 346.58 C 118.53 347.69 118.71 348.80 118.94 349.90 C 116.03 349.41 113.30 348.90 110.33 349.36 C 106.64 349.95 103.39 351.94 99.72 352.98 C 100.66 349.95 101.97 347.08 102.80 344.01 C 100.88 346.73 99.50 349.98 98.22 353.04 C 98.71 348.98 94.92 348.62 91.99 347.71 C 93.77 344.36 94.52 340.86 94.72 337.09 C 93.44 340.59 92.72 343.90 90.46 346.94 C 89.65 345.83 88.85 344.72 88.02 343.63 C 88.99 340.72 90.09 338.11 89.84 334.99 C 89.32 336.26 88.85 337.54 88.37 338.82 C 87.45 337.56 86.74 336.21 86.24 334.75 C 87.11 333.93 87.97 333.10 88.84 332.28 Z" fill="#d6896d" />
<path d="M 86.24 334.75 C 86.74 336.21 87.45 337.56 88.37 338.82 C 85.32 347.36 78.83 353.31 70.10 355.71 C 71.04 353.16 72.63 351.07 74.21 348.91 C 73.19 348.23 72.14 347.60 71.00 347.14 L 72.06 346.02 C 72.86 345.04 73.61 344.02 74.36 343.01 C 73.94 341.80 73.52 340.58 73.10 339.37 C 77.86 339.24 82.51 337.75 86.24 334.75 Z" fill="#e6ac90" />
<path d="M 89.84 334.99 C 90.09 338.11 88.99 340.72 88.02 343.63 C 84.62 350.63 78.27 355.38 70.56 356.56 C 69.63 356.66 68.71 356.74 67.78 356.81 C 68.54 356.41 69.31 356.04 70.10 355.71 C 78.83 353.31 85.32 347.36 88.37 338.82 C 88.85 337.54 89.32 336.26 89.84 334.99 Z" fill="#45312a" />
<path d="M 94.72 337.09 C 94.52 340.86 93.77 344.36 91.99 347.71 C 90.37 349.70 87.65 351.48 86.93 353.99 C 85.27 359.11 82.45 365.25 77.85 368.31 L 78.64 367.08 C 81.50 362.78 83.92 358.29 85.34 353.30 C 86.14 350.40 88.50 349.07 90.46 346.94 C 92.72 343.90 93.44 340.59 94.72 337.09 Z" fill="#3e2a24" />
<path d="M 125.07 337.41 C 126.32 337.79 127.57 338.18 128.82 338.53 C 129.83 339.27 131.25 340.00 131.84 341.14 C 132.20 344.16 131.50 347.51 130.25 350.27 C 128.88 352.51 126.43 354.14 124.57 355.97 C 122.24 353.76 120.71 351.10 119.34 348.22 C 121.49 346.81 124.14 345.72 125.95 343.89 C 126.81 341.82 125.69 340.42 125.02 338.53 L 125.07 337.41 Z" fill="#e19c7f" />
<path d="M 182.24 338.93 L 183.05 339.18 C 183.73 344.99 183.59 350.53 186.12 355.98 L 185.06 357.32 C 183.59 355.80 182.36 354.17 182.09 352.00 C 181.81 347.66 181.99 343.27 182.24 338.93 Z" fill="#aeb0b5" />
<path d="M 88.02 343.63 C 88.85 344.72 89.65 345.83 90.46 346.94 C 88.50 349.07 86.14 350.40 85.34 353.30 C 83.92 358.29 81.50 362.78 78.64 367.08 C 77.96 365.26 77.18 365.03 75.53 364.30 C 75.40 362.63 75.27 360.97 74.98 359.32 L 73.27 358.68 C 72.34 358.00 71.44 357.30 70.56 356.56 C 78.27 355.38 84.62 350.63 88.02 343.63 Z" fill="#e19e81" />
<path d="M 102.80 344.01 C 101.97 347.08 100.66 349.95 99.72 352.98 C 99.08 354.98 98.49 357.00 97.98 359.04 C 96.94 363.65 96.08 368.39 96.03 373.12 C 95.45 380.73 97.38 387.74 98.83 395.09 C 97.41 392.43 96.54 389.57 95.81 386.65 C 94.31 380.72 94.09 374.31 94.64 368.23 C 95.17 363.05 96.40 357.93 98.22 353.04 C 99.50 349.98 100.88 346.73 102.80 344.01 Z" fill="#4e3931" />
<path d="M 62.82 345.32 C 65.90 346.31 68.88 345.96 72.06 346.02 L 71.00 347.14 C 66.38 347.54 62.33 346.29 57.87 345.49 C 59.54 344.99 61.11 344.78 62.82 345.32 Z" fill="#a08474" />
<path d="M 118.38 346.58 L 118.47 346.69 L 118.59 346.86 L 119.34 348.22 C 120.71 351.10 122.24 353.76 124.57 355.97 C 127.61 358.79 130.55 361.47 132.44 365.24 C 133.28 366.89 133.80 368.43 134.09 370.27 C 132.27 367.87 131.07 365.18 129.12 362.94 C 126.96 360.47 124.37 358.42 122.17 355.97 C 120.89 354.06 119.78 352.05 118.94 349.90 C 118.71 348.80 118.53 347.69 118.38 346.58 Z" fill="#362621" />
<path d="M 91.99 347.71 C 94.92 348.62 98.71 348.98 98.22 353.04 C 96.40 357.93 95.17 363.05 94.64 368.23 C 93.11 367.05 92.18 366.00 91.34 364.25 C 91.11 367.20 90.75 370.10 90.72 373.07 C 90.43 370.71 90.45 368.35 90.50 365.98 C 89.25 366.24 88.69 367.45 88.83 369.63 L 88.15 370.35 C 88.97 366.12 89.88 361.03 88.42 356.86 C 87.87 361.36 87.18 365.84 86.40 370.30 C 85.49 369.26 84.58 368.21 83.68 367.16 C 82.02 367.84 80.92 369.04 79.72 370.32 C 78.82 369.90 77.95 369.61 76.99 369.38 C 77.27 369.03 77.56 368.67 77.85 368.31 C 82.45 365.25 85.27 359.11 86.93 353.99 C 87.65 351.48 90.37 349.70 91.99 347.71 Z" fill="#e09c7e" />
<path d="M 110.33 349.36 C 113.30 348.90 116.03 349.41 118.94 349.90 C 119.78 352.05 120.89 354.06 122.17 355.97 C 120.79 355.64 119.41 355.30 118.05 354.86 L 116.83 354.09 C 109.74 352.62 103.71 355.11 97.98 359.04 C 98.49 357.00 99.08 354.98 99.72 352.98 C 103.39 351.94 106.64 349.95 110.33 349.36 Z" fill="#e19c7f" />
<path d="M 69.10 350.03 L 69.12 351.00 C 65.66 350.98 62.37 351.12 58.93 350.70 C 61.86 349.25 65.92 349.98 69.10 350.03 Z" fill="#a68979" />
<path d="M 205.92 352.94 C 209.17 355.60 210.08 359.77 208.63 363.62 C 207.84 365.34 206.72 365.04 205.08 364.99 C 201.64 362.60 200.70 358.06 202.10 354.27 C 203.12 352.48 204.18 353.03 205.92 352.94 Z" fill="#48494b" />
<path d="M 116.83 354.09 C 116.97 355.31 117.14 356.53 117.32 357.74 C 112.98 358.13 109.15 357.84 105.38 360.39 C 101.00 363.43 97.53 367.98 96.03 373.12 C 96.08 368.39 96.94 363.65 97.98 359.04 C 103.71 355.11 109.74 352.62 116.83 354.09 Z" fill="#e4a98d" />
<path d="M 116.83 354.09 L 118.05 354.86 C 118.70 357.48 119.23 360.01 120.61 362.37 C 122.73 366.22 126.22 368.37 128.76 372.03 C 129.53 373.66 129.80 375.21 129.87 377.01 C 129.21 375.88 128.59 374.74 127.98 373.59 C 126.87 371.21 125.07 369.56 123.20 367.80 C 120.32 365.14 118.75 361.31 117.32 357.74 C 117.14 356.53 116.97 355.31 116.83 354.09 Z" fill="#b18975" />
<path d="M 206.14 354.78 C 203.91 356.39 204.34 358.09 204.49 360.50 C 205.13 362.36 206.48 361.85 208.06 362.30 C 207.62 362.93 207.18 363.55 206.75 364.17 C 203.23 363.14 202.25 359.26 202.91 356.02 C 203.37 354.19 204.46 353.20 206.14 354.78 Z" fill="#afb1b7" />
<path d="M 186.12 355.98 C 188.10 359.80 190.53 361.75 194.92 362.13 C 199.80 363.02 199.05 369.60 203.99 369.83 C 208.64 370.54 210.29 366.80 214.61 366.21 C 215.30 363.78 215.84 361.38 216.75 359.02 L 217.52 358.42 C 217.44 361.55 216.81 364.61 216.55 367.71 C 217.06 368.79 218.15 369.60 218.93 370.47 C 216.72 373.42 214.57 376.41 212.38 379.36 C 205.20 378.66 197.90 379.13 190.69 379.01 C 192.25 374.78 193.23 370.49 192.00 366.02 C 190.78 362.66 187.50 359.85 185.06 357.32 L 186.12 355.98 Z" fill="#a4a6ab" />
<path d="M 88.42 356.86 C 89.88 361.03 88.97 366.12 88.15 370.35 C 87.40 372.99 86.55 375.55 85.17 377.94 C 85.42 375.36 85.89 372.83 86.40 370.30 C 87.18 365.84 87.87 361.36 88.42 356.86 Z" fill="#4d3930" />
<path d="M 206.62 356.99 C 207.54 357.76 208.34 359.61 207.64 360.72 C 206.94 361.12 206.27 360.93 205.62 360.13 C 205.43 358.16 205.77 357.11 206.62 356.99 Z" fill="#aeb0b6" />
<path d="M 117.32 357.74 C 118.75 361.31 120.32 365.14 123.20 367.80 C 125.07 369.56 126.87 371.21 127.98 373.59 C 122.90 381.74 118.64 389.85 111.13 396.15 C 107.00 399.68 102.41 402.39 96.75 401.42 C 95.71 398.76 94.94 396.08 94.57 393.24 C 94.84 391.01 95.34 388.84 95.81 386.65 C 96.54 389.57 97.41 392.43 98.83 395.09 C 97.38 387.74 95.45 380.73 96.03 373.12 C 97.53 367.98 101.00 363.43 105.38 360.39 C 109.15 357.84 112.98 358.13 117.32 357.74 Z" fill="#edbda2" />
<path d="M 73.27 358.68 L 74.98 359.32 C 75.27 360.97 75.40 362.63 75.53 364.30 C 77.18 365.03 77.96 365.26 78.64 367.08 L 77.85 368.31 C 77.56 368.67 77.27 369.03 76.99 369.38 C 77.95 369.61 78.82 369.90 79.72 370.32 C 80.92 369.04 82.02 367.84 83.68 367.16 C 84.58 368.21 85.49 369.26 86.40 370.30 C 85.89 372.83 85.42 375.36 85.17 377.94 C 86.55 375.55 87.40 372.99 88.15 370.35 L 88.83 369.63 C 88.96 372.30 89.31 374.81 90.90 377.03 C 90.92 375.71 90.86 374.39 90.72 373.07 C 90.75 370.10 91.11 367.20 91.34 364.25 C 92.18 366.00 93.11 367.05 94.64 368.23 C 94.09 374.31 94.31 380.72 95.81 386.65 C 95.34 388.84 94.84 391.01 94.57 393.24 C 94.02 390.43 94.63 387.29 93.39 384.77 C 92.87 388.12 92.78 391.49 93.37 394.84 C 93.24 396.71 93.67 399.65 91.75 400.74 C 90.11 401.20 88.30 401.13 86.60 401.23 C 86.52 403.22 87.32 405.03 85.40 406.35 C 82.41 407.84 78.14 406.30 75.02 407.97 C 70.45 409.87 68.93 414.18 63.77 414.64 C 60.89 412.63 58.54 410.12 56.34 407.40 C 60.94 407.26 64.71 408.49 68.92 405.83 C 73.98 402.42 77.63 396.55 79.44 390.81 C 79.03 389.75 78.08 388.47 78.35 387.33 C 78.95 383.59 79.50 380.14 78.52 376.39 C 77.13 374.83 75.36 374.16 74.87 371.98 C 74.36 369.54 72.59 368.59 70.83 367.09 C 72.30 364.24 73.01 361.91 73.27 358.68 Z" fill="#ecb79a" />
<path d="M 90.50 365.98 C 90.45 368.35 90.43 370.71 90.72 373.07 C 90.86 374.39 90.92 375.71 90.90 377.03 C 89.31 374.81 88.96 372.30 88.83 369.63 C 88.69 367.45 89.25 366.24 90.50 365.98 Z" fill="#241e1c" />
<path d="M 130.92 369.10 C 132.64 372.04 131.42 376.26 132.56 379.56 C 130.30 384.55 128.19 389.72 125.41 394.45 C 122.46 398.40 118.54 401.65 115.23 405.32 C 114.91 407.25 114.49 409.13 113.73 410.94 C 110.98 409.35 108.83 411.08 106.57 412.59 C 103.85 414.64 102.26 418.01 98.92 418.94 C 94.28 420.36 90.02 419.81 85.87 422.87 C 83.30 424.48 80.34 428.09 77.10 427.67 C 71.74 426.91 68.46 422.87 64.76 419.52 L 63.35 419.87 C 61.66 417.77 60.42 415.56 59.36 413.07 C 65.45 417.72 71.73 419.15 79.30 418.63 C 73.77 417.96 68.64 417.73 63.77 414.64 C 68.93 414.18 70.45 409.87 75.02 407.97 C 78.14 406.30 82.41 407.84 85.40 406.35 C 87.32 405.03 86.52 403.22 86.60 401.23 C 88.30 401.13 90.11 401.20 91.75 400.74 C 93.67 399.65 93.24 396.71 93.37 394.84 C 94.06 398.06 95.19 401.75 97.64 404.09 C 97.36 403.20 97.06 402.31 96.75 401.42 C 102.41 402.39 107.00 399.68 111.13 396.15 C 118.64 389.85 122.90 381.74 127.98 373.59 C 128.59 374.74 129.21 375.88 129.87 377.01 C 129.80 375.21 129.53 373.66 128.76 372.03 C 129.27 371.19 129.50 368.61 130.92 369.10 Z" fill="#e7a689" />
<path d="M 190.69 379.01 C 197.90 379.13 205.20 378.66 212.38 379.36 C 211.99 379.89 211.61 380.42 211.24 380.96 C 204.12 380.94 197.03 381.10 189.92 380.83 C 190.18 380.22 190.43 379.62 190.69 379.01 Z" fill="#6a6b6f" />
<path d="M 189.92 380.83 C 197.03 381.10 204.12 380.94 211.24 380.96 C 199.36 398.42 188.21 416.36 177.57 434.59 C 172.62 443.29 167.35 451.88 162.96 460.87 C 161.69 463.22 160.76 466.00 159.04 468.03 C 158.48 463.44 160.99 458.60 162.23 454.19 C 170.11 429.09 179.95 405.14 189.92 380.83 Z" fill="#a4a6ab" />
<path d="M 93.39 384.77 C 94.63 387.29 94.02 390.43 94.57 393.24 C 94.94 396.08 95.71 398.76 96.75 401.42 C 97.06 402.31 97.36 403.20 97.64 404.09 C 95.19 401.75 94.06 398.06 93.37 394.84 C 92.78 391.49 92.87 388.12 93.39 384.77 Z" fill="#694d42" />
<path d="M 47.81 388.77 C 48.90 393.93 49.88 398.93 52.31 403.68 C 53.82 406.85 56.36 409.15 57.56 412.50 C 60.41 419.69 65.57 425.86 72.28 429.74 C 75.83 431.70 79.89 432.96 83.95 432.04 C 85.80 431.14 86.80 428.75 88.48 427.51 C 93.94 423.32 100.68 422.95 106.46 420.47 C 112.72 417.41 115.70 411.56 117.08 404.98 C 118.03 405.27 118.39 406.28 118.16 408.01 C 117.34 414.59 112.42 420.41 107.69 424.74 C 100.36 431.31 92.14 435.99 83.40 440.42 C 81.10 441.57 78.83 442.49 76.97 444.35 C 75.49 445.33 73.97 445.34 72.29 445.59 C 70.44 446.08 68.70 447.01 66.93 447.72 C 65.48 446.32 63.20 447.13 62.09 448.52 L 62.14 449.27 L 61.64 449.48 C 60.81 448.98 59.99 448.90 59.19 449.23 C 51.50 451.64 42.00 456.41 33.88 454.92 C 34.79 453.56 35.88 452.17 36.48 450.63 C 37.16 447.01 36.30 442.92 37.22 439.29 C 38.27 435.62 39.75 432.18 42.74 429.67 C 45.79 436.03 49.98 442.92 56.01 446.83 C 54.09 443.19 51.33 440.46 48.94 437.02 C 44.35 430.50 41.07 423.13 41.93 414.97 C 42.68 409.37 44.02 403.70 47.05 398.87 C 47.20 396.93 47.05 394.97 46.93 393.04 L 46.01 392.34 L 44.93 391.57 C 45.87 390.61 46.82 389.68 47.81 388.77 Z" fill="#9f9fa1" />
<path d="M 44.93 391.57 L 46.01 392.34 C 45.67 394.66 46.12 397.69 44.67 399.62 C 43.14 402.46 40.63 404.25 38.78 406.82 C 35.26 411.37 33.43 417.26 33.77 423.00 C 33.96 429.08 34.19 435.01 32.80 440.99 C 32.14 445.07 29.93 449.93 30.98 453.96 C 33.11 457.24 36.83 456.39 40.18 456.18 C 47.52 454.89 54.68 452.12 61.64 449.48 L 62.14 449.27 C 63.83 448.97 65.38 448.44 66.93 447.72 C 68.70 447.01 70.44 446.08 72.29 445.59 C 73.97 445.34 75.49 445.33 76.97 444.35 C 89.73 438.92 102.87 431.69 112.35 421.39 C 116.36 416.65 120.12 411.18 118.16 404.65 C 119.07 403.69 119.98 402.74 120.91 401.80 C 124.15 409.28 123.98 418.51 123.21 426.49 C 121.17 424.70 121.82 422.60 121.57 420.18 C 119.77 421.87 118.08 423.61 116.78 425.72 C 113.81 430.75 109.06 434.83 104.86 438.85 C 85.23 453.94 60.84 460.44 36.92 464.99 C 31.91 465.54 27.12 466.62 23.77 461.92 C 23.57 452.78 23.95 443.64 23.89 434.50 C 25.14 418.51 33.75 402.86 44.93 391.57 Z" fill="#c1c2c5" />
<path d="M 46.01 392.34 L 46.93 393.04 C 47.05 394.97 47.20 396.93 47.05 398.87 C 44.02 403.70 42.68 409.37 41.93 414.97 C 41.07 423.13 44.35 430.50 48.94 437.02 C 51.33 440.46 54.09 443.19 56.01 446.83 C 49.98 442.92 45.79 436.03 42.74 429.67 C 41.25 425.99 40.09 421.99 39.96 418.00 C 39.81 413.73 41.41 409.50 42.09 405.18 C 38.53 408.14 36.37 413.09 35.25 417.49 C 34.40 424.45 35.94 432.27 34.37 439.21 C 33.67 444.27 31.46 448.51 32.04 453.73 C 32.65 454.13 33.26 454.53 33.88 454.92 C 42.00 456.41 51.50 451.64 59.19 449.23 C 59.99 448.90 60.81 448.98 61.64 449.48 C 54.68 452.12 47.52 454.89 40.18 456.18 C 36.83 456.39 33.11 457.24 30.98 453.96 C 29.93 449.93 32.14 445.07 32.80 440.99 C 34.19 435.01 33.96 429.08 33.77 423.00 C 33.43 417.26 35.26 411.37 38.78 406.82 C 40.63 404.25 43.14 402.46 44.67 399.62 C 46.12 397.69 45.67 394.66 46.01 392.34 Z" fill="#2c2c2d" />
<path d="M 42.09 405.18 C 41.41 409.50 39.81 413.73 39.96 418.00 C 40.09 421.99 41.25 425.99 42.74 429.67 C 39.75 432.18 38.27 435.62 37.22 439.29 C 36.30 442.92 37.16 447.01 36.48 450.63 C 35.88 452.17 34.79 453.56 33.88 454.92 C 33.26 454.53 32.65 454.13 32.04 453.73 C 31.46 448.51 33.67 444.27 34.37 439.21 C 35.94 432.27 34.40 424.45 35.25 417.49 C 36.37 413.09 38.53 408.14 42.09 405.18 Z" fill="#919192" />
<path d="M 113.73 410.94 C 112.36 413.46 110.91 415.78 108.54 417.48 C 103.98 420.96 97.88 421.04 92.49 423.56 C 88.68 424.98 86.03 427.56 83.65 430.77 C 82.08 430.86 80.32 431.07 78.78 430.73 C 72.60 429.03 67.11 425.04 63.35 419.87 L 64.76 419.52 C 68.46 422.87 71.74 426.91 77.10 427.67 C 80.34 428.09 83.30 424.48 85.87 422.87 C 90.02 419.81 94.28 420.36 98.92 418.94 C 102.26 418.01 103.85 414.64 106.57 412.59 C 108.83 411.08 110.98 409.35 113.73 410.94 Z" fill="#ecb79a" />
<path d="M 87.07 416.12 C 84.93 417.85 82.51 418.11 79.83 418.21 C 80.36 416.27 85.30 416.57 87.07 416.12 Z" fill="#b4816c" />
<path d="M 121.57 420.18 C 121.82 422.60 121.17 424.70 123.21 426.49 C 122.17 445.36 117.84 464.32 113.81 482.75 C 83.89 482.69 53.96 482.72 24.04 482.74 C 23.42 475.85 23.74 468.83 23.77 461.92 C 27.12 466.62 31.91 465.54 36.92 464.99 C 60.84 460.44 85.23 453.94 104.86 438.85 C 109.06 434.83 113.81 430.75 116.78 425.72 C 118.08 423.61 119.77 421.87 121.57 420.18 Z" fill="#a6a8ad" />
<path d="M 112.97 434.92 C 110.81 437.57 108.16 439.34 105.46 441.37 C 94.22 449.60 82.35 456.53 69.21 461.27 C 68.10 461.61 66.96 461.85 65.80 462.02 C 67.22 460.77 68.92 460.31 70.63 459.62 C 83.53 454.58 95.19 447.49 106.32 439.31 C 108.55 437.70 110.34 435.91 112.97 434.92 Z" fill="#808186" />
<path d="M 66.93 447.72 C 65.38 448.44 63.83 448.97 62.14 449.27 L 62.09 448.52 C 63.20 447.13 65.48 446.32 66.93 447.72 Z" fill="#717274" />
</svg>